M48
;Layer_Color=9474304
;FILE_FORMAT=4:4
METRIC,LZ
;TYPE=PLATED
T1F00S00C0.3000
T3F00S00C1.1000
T4F00S00C2.0000
%
T01
X00015Y0005
X0003
X00045
X00063Y00035
X00086Y00062
X0011Y0004
X00145129Y00024543
X00124Y00087
X00054Y00086
X00023Y00088
X00022Y0012
X00015Y0015
X0003
X00045
X00062Y00156
X00015Y00178
X0016296Y00173
X00153Y00152
Y00142
Y00131
X00224Y00124
X0022746Y00115
X00246Y00122
Y00131
X00267985Y00127065
X00269Y00118586
X00251875Y00108876
X00254214Y00100078
X00211Y00086
X00208914Y00066913
X0020054Y00062
X00179Y00056
X00169Y00062
X00179Y00038
X00184Y00027
X00174
X00227Y00029
X00245Y00024
X00256
X00265Y00027
X00274Y00024
X00283Y00021
X00302Y00025
X00313
X00313465Y00034534
X00318477Y00041449
X00341Y00027
X00329Y00013
X00346Y00051
X00349Y0008
X00348Y001
X0034Y00115
X00334829Y00120836
X00336769Y00129982
X00327342Y0013604
X00319524Y00139476
X00311Y0014
X00302
X0029115Y00130651
X00317Y00098
Y00088
X00297Y00073
X00255Y00159
Y001675
Y001825
X00224Y00149
X00354Y00153812
X00372Y00133
X0041Y0011
X0042Y0008
X0041Y0005
Y0003
X00384Y00026
X00401303Y00184697
X00399979Y0021646
X00404Y00229
X00377Y00219
X00361Y00234
X00334Y00227
X00326Y0026
X00305571
X00348
X0037
X00392
X00414Y00259
X00436
X00441193Y002855
X00441Y00306
Y00329
Y00348
X0042008Y00368599
X0041054Y00385
X00404Y00393
X00388Y00394
X00378
X00366133Y00394
X0036754Y00384
X00378454Y00356966
X00399846Y0035304
X0040046Y00361558
X00383202Y00328118
X00351Y00329
X0034946Y00360085
X0033Y00368
X00311Y00375
X00302Y00388
X00327133Y00394
X00267Y00373
X00241Y00368
X00221
X0023Y00387
X00211
X00193
Y00369
X00176Y00368
X00168Y00387
X00172Y00338
X00162
X00198Y00304
X00201Y00288
X0021051Y00315
X00252Y00228
X0026Y0021554
X00269877
X00271249Y00244
X00255Y001925
X00162Y00209
Y00223
Y00234
X0015Y0027
X00096Y00243
X00088
X00079Y00233
X00078944Y00224104
X00042Y00221
X0004Y00201
X00026Y00187
X0003Y0025
X00015
X00006122Y0023834
X00045Y0025
Y0035
X0003
X00015
X0004Y0037
Y0039
X0006
X00069Y00385
X0006Y0037
X00096Y00373
X00139Y00388
X00133Y0035
X00121Y00203
X0009523Y00190339
T03
X0043Y0006
Y00095
Y0013
X00395
T04
X00015Y00015
X00435
Y00385
X00015
M30
