G04*
G04 #@! TF.GenerationSoftware,Altium Limited,Altium Designer,21.6.4 (81)*
G04*
G04 Layer_Physical_Order=3*
G04 Layer_Color=32768*
%FSLAX44Y44*%
%MOMM*%
G71*
G04*
G04 #@! TF.SameCoordinates,D5C97574-E224-4ECB-8EF4-D48BC8F4BA3E*
G04*
G04*
G04 #@! TF.FilePolarity,Negative*
G04*
G01*
G75*
%ADD71C,3.0000*%
%ADD73C,1.0160*%
%ADD74O,2.4000X1.6000*%
%ADD75C,2.1000*%
%ADD76C,1.3000*%
G36*
X340000Y310000D02*
X180000D01*
X130000Y260000D01*
X60000D01*
Y243000D01*
X0D01*
Y357000D01*
X158000D01*
X161000Y360000D01*
X340000D01*
Y310000D01*
D02*
G37*
G36*
X450000Y150000D02*
X279000D01*
Y250000D01*
X450000D01*
Y150000D01*
D02*
G37*
D71*
X15000Y15000D02*
D03*
Y385000D02*
D03*
X435000Y15000D02*
D03*
Y385000D02*
D03*
D73*
X0Y10000D02*
G03*
X10000Y0I10000J0D01*
G01*
X440000D02*
G03*
X450000Y10000I0J10000D01*
G01*
Y390000D02*
G03*
X440000Y400000I-10000J0D01*
G01*
X10000Y400000D02*
G03*
X-0Y390000I-0J-10000D01*
G01*
X10000Y0D02*
X440000D01*
X450000Y10000D02*
Y390000D01*
X10000Y400000D02*
X440000D01*
X-0Y390000D02*
X0Y10000D01*
D74*
X394000Y157000D02*
D03*
Y243000D02*
D03*
X435000Y157000D02*
D03*
Y243000D02*
D03*
D75*
X430000Y95000D02*
D03*
Y60000D02*
D03*
X395000Y130000D02*
D03*
X430000D02*
D03*
D76*
X410540Y385000D02*
D03*
X404000Y393000D02*
D03*
X401303Y184697D02*
D03*
X269000Y118586D02*
D03*
X267985Y127065D02*
D03*
X265000Y27000D02*
D03*
X340000Y115000D02*
D03*
X169000Y62000D02*
D03*
X227000Y29000D02*
D03*
X399979Y216460D02*
D03*
X441000Y348000D02*
D03*
X200540Y62000D02*
D03*
X208914Y66913D02*
D03*
X378454Y356966D02*
D03*
X251875Y108876D02*
D03*
X254214Y100078D02*
D03*
X349460Y360085D02*
D03*
X351000Y329000D02*
D03*
X133000Y350000D02*
D03*
X210510Y315000D02*
D03*
X198000Y304000D02*
D03*
X201000Y288000D02*
D03*
X336769Y129982D02*
D03*
X334829Y120836D02*
D03*
X313000Y25000D02*
D03*
X313465Y34534D02*
D03*
X227460Y115000D02*
D03*
X78944Y224104D02*
D03*
X153000Y131000D02*
D03*
Y142000D02*
D03*
Y152000D02*
D03*
X327342Y136040D02*
D03*
X271249Y244000D02*
D03*
X269877Y215540D02*
D03*
X260000D02*
D03*
X246000Y122000D02*
D03*
Y131000D02*
D03*
X319524Y139476D02*
D03*
X311000Y140000D02*
D03*
X302000D02*
D03*
X291150Y130651D02*
D03*
X377000Y219000D02*
D03*
X354000Y153812D02*
D03*
X305571Y260000D02*
D03*
X139000Y388000D02*
D03*
X193000Y369000D02*
D03*
X241000Y368000D02*
D03*
X86000Y62000D02*
D03*
X334000Y227000D02*
D03*
X361000Y234000D02*
D03*
X404000Y229000D02*
D03*
X420080Y368599D02*
D03*
X30000Y150000D02*
D03*
X15000D02*
D03*
X45000D02*
D03*
X15000Y50000D02*
D03*
X45000D02*
D03*
X30000D02*
D03*
Y350000D02*
D03*
X15000D02*
D03*
X45000D02*
D03*
X15000Y250000D02*
D03*
X45000D02*
D03*
X30000D02*
D03*
X42000Y221000D02*
D03*
X221000Y368000D02*
D03*
X302000Y388000D02*
D03*
X441193Y285500D02*
D03*
X441000Y306000D02*
D03*
Y329000D02*
D03*
X414000Y259000D02*
D03*
X436000D02*
D03*
X392000Y260000D02*
D03*
X370000D02*
D03*
X348000D02*
D03*
X326000D02*
D03*
X172000Y338000D02*
D03*
X162000D02*
D03*
X367540Y384000D02*
D03*
X366133Y394000D02*
D03*
X318477Y41449D02*
D03*
X330000Y368000D02*
D03*
X384000Y26000D02*
D03*
X341000Y27000D02*
D03*
X388000Y394000D02*
D03*
X378000D02*
D03*
X121000Y203000D02*
D03*
X327133Y394000D02*
D03*
X179000Y38000D02*
D03*
X283000Y21000D02*
D03*
X245000Y24000D02*
D03*
X329000Y13000D02*
D03*
X349000Y80000D02*
D03*
X346000Y51000D02*
D03*
X311000Y375000D02*
D03*
X79000Y233000D02*
D03*
X399846Y353040D02*
D03*
X26000Y187000D02*
D03*
X302000Y25000D02*
D03*
X274000Y24000D02*
D03*
X88000Y243000D02*
D03*
X96000D02*
D03*
X174000Y27000D02*
D03*
X184000D02*
D03*
M02*
