G04*
G04 #@! TF.GenerationSoftware,Altium Limited,Altium Designer,21.6.4 (81)*
G04*
G04 Layer_Physical_Order=1*
G04 Layer_Color=255*
%FSLAX44Y44*%
%MOMM*%
G71*
G04*
G04 #@! TF.SameCoordinates,D5C97574-E224-4ECB-8EF4-D48BC8F4BA3E*
G04*
G04*
G04 #@! TF.FilePolarity,Positive*
G04*
G01*
G75*
%ADD11C,0.2000*%
G04:AMPARAMS|DCode=13|XSize=1.2mm|YSize=0.6mm|CornerRadius=0.15mm|HoleSize=0mm|Usage=FLASHONLY|Rotation=180.000|XOffset=0mm|YOffset=0mm|HoleType=Round|Shape=RoundedRectangle|*
%AMROUNDEDRECTD13*
21,1,1.2000,0.3000,0,0,180.0*
21,1,0.9000,0.6000,0,0,180.0*
1,1,0.3000,-0.4500,0.1500*
1,1,0.3000,0.4500,0.1500*
1,1,0.3000,0.4500,-0.1500*
1,1,0.3000,-0.4500,-0.1500*
%
%ADD13ROUNDEDRECTD13*%
G04:AMPARAMS|DCode=14|XSize=1.2mm|YSize=0.3mm|CornerRadius=0.075mm|HoleSize=0mm|Usage=FLASHONLY|Rotation=180.000|XOffset=0mm|YOffset=0mm|HoleType=Round|Shape=RoundedRectangle|*
%AMROUNDEDRECTD14*
21,1,1.2000,0.1500,0,0,180.0*
21,1,1.0500,0.3000,0,0,180.0*
1,1,0.1500,-0.5250,0.0750*
1,1,0.1500,0.5250,0.0750*
1,1,0.1500,0.5250,-0.0750*
1,1,0.1500,-0.5250,-0.0750*
%
%ADD14ROUNDEDRECTD14*%
G04:AMPARAMS|DCode=15|XSize=1mm|YSize=1mm|CornerRadius=0.25mm|HoleSize=0mm|Usage=FLASHONLY|Rotation=90.000|XOffset=0mm|YOffset=0mm|HoleType=Round|Shape=RoundedRectangle|*
%AMROUNDEDRECTD15*
21,1,1.0000,0.5000,0,0,90.0*
21,1,0.5000,1.0000,0,0,90.0*
1,1,0.5000,0.2500,0.2500*
1,1,0.5000,0.2500,-0.2500*
1,1,0.5000,-0.2500,-0.2500*
1,1,0.5000,-0.2500,0.2500*
%
%ADD15ROUNDEDRECTD15*%
G04:AMPARAMS|DCode=16|XSize=0.6mm|YSize=0.6mm|CornerRadius=0.15mm|HoleSize=0mm|Usage=FLASHONLY|Rotation=270.000|XOffset=0mm|YOffset=0mm|HoleType=Round|Shape=RoundedRectangle|*
%AMROUNDEDRECTD16*
21,1,0.6000,0.3000,0,0,270.0*
21,1,0.3000,0.6000,0,0,270.0*
1,1,0.3000,-0.1500,-0.1500*
1,1,0.3000,-0.1500,0.1500*
1,1,0.3000,0.1500,0.1500*
1,1,0.3000,0.1500,-0.1500*
%
%ADD16ROUNDEDRECTD16*%
G04:AMPARAMS|DCode=17|XSize=0.2mm|YSize=0.2mm|CornerRadius=0.05mm|HoleSize=0mm|Usage=FLASHONLY|Rotation=0.000|XOffset=0mm|YOffset=0mm|HoleType=Round|Shape=RoundedRectangle|*
%AMROUNDEDRECTD17*
21,1,0.2000,0.1000,0,0,0.0*
21,1,0.1000,0.2000,0,0,0.0*
1,1,0.1000,0.0500,-0.0500*
1,1,0.1000,-0.0500,-0.0500*
1,1,0.1000,-0.0500,0.0500*
1,1,0.1000,0.0500,0.0500*
%
%ADD17ROUNDEDRECTD17*%
%ADD18C,0.2000*%
G04:AMPARAMS|DCode=19|XSize=1.6mm|YSize=1.6mm|CornerRadius=0.4mm|HoleSize=0mm|Usage=FLASHONLY|Rotation=0.000|XOffset=0mm|YOffset=0mm|HoleType=Round|Shape=RoundedRectangle|*
%AMROUNDEDRECTD19*
21,1,1.6000,0.8000,0,0,0.0*
21,1,0.8000,1.6000,0,0,0.0*
1,1,0.8000,0.4000,-0.4000*
1,1,0.8000,-0.4000,-0.4000*
1,1,0.8000,-0.4000,0.4000*
1,1,0.8000,0.4000,0.4000*
%
%ADD19ROUNDEDRECTD19*%
G04:AMPARAMS|DCode=20|XSize=1mm|YSize=1mm|CornerRadius=0.25mm|HoleSize=0mm|Usage=FLASHONLY|Rotation=0.000|XOffset=0mm|YOffset=0mm|HoleType=Round|Shape=RoundedRectangle|*
%AMROUNDEDRECTD20*
21,1,1.0000,0.5000,0,0,0.0*
21,1,0.5000,1.0000,0,0,0.0*
1,1,0.5000,0.2500,-0.2500*
1,1,0.5000,-0.2500,-0.2500*
1,1,0.5000,-0.2500,0.2500*
1,1,0.5000,0.2500,0.2500*
%
%ADD20ROUNDEDRECTD20*%
G04:AMPARAMS|DCode=21|XSize=0.6mm|YSize=0.25mm|CornerRadius=0.0625mm|HoleSize=0mm|Usage=FLASHONLY|Rotation=0.000|XOffset=0mm|YOffset=0mm|HoleType=Round|Shape=RoundedRectangle|*
%AMROUNDEDRECTD21*
21,1,0.6000,0.1250,0,0,0.0*
21,1,0.4750,0.2500,0,0,0.0*
1,1,0.1250,0.2375,-0.0625*
1,1,0.1250,-0.2375,-0.0625*
1,1,0.1250,-0.2375,0.0625*
1,1,0.1250,0.2375,0.0625*
%
%ADD21ROUNDEDRECTD21*%
G04:AMPARAMS|DCode=22|XSize=0.6mm|YSize=0.25mm|CornerRadius=0.0625mm|HoleSize=0mm|Usage=FLASHONLY|Rotation=270.000|XOffset=0mm|YOffset=0mm|HoleType=Round|Shape=RoundedRectangle|*
%AMROUNDEDRECTD22*
21,1,0.6000,0.1250,0,0,270.0*
21,1,0.4750,0.2500,0,0,270.0*
1,1,0.1250,-0.0625,-0.2375*
1,1,0.1250,-0.0625,0.2375*
1,1,0.1250,0.0625,0.2375*
1,1,0.1250,0.0625,-0.2375*
%
%ADD22ROUNDEDRECTD22*%
G04:AMPARAMS|DCode=23|XSize=3mm|YSize=3mm|CornerRadius=0.75mm|HoleSize=0mm|Usage=FLASHONLY|Rotation=90.000|XOffset=0mm|YOffset=0mm|HoleType=Round|Shape=RoundedRectangle|*
%AMROUNDEDRECTD23*
21,1,3.0000,1.5000,0,0,90.0*
21,1,1.5000,3.0000,0,0,90.0*
1,1,1.5000,0.7500,0.7500*
1,1,1.5000,0.7500,-0.7500*
1,1,1.5000,-0.7500,-0.7500*
1,1,1.5000,-0.7500,0.7500*
%
%ADD23ROUNDEDRECTD23*%
G04:AMPARAMS|DCode=24|XSize=0.6mm|YSize=0.3mm|CornerRadius=0.075mm|HoleSize=0mm|Usage=FLASHONLY|Rotation=270.000|XOffset=0mm|YOffset=0mm|HoleType=Round|Shape=RoundedRectangle|*
%AMROUNDEDRECTD24*
21,1,0.6000,0.1500,0,0,270.0*
21,1,0.4500,0.3000,0,0,270.0*
1,1,0.1500,-0.0750,-0.2250*
1,1,0.1500,-0.0750,0.2250*
1,1,0.1500,0.0750,0.2250*
1,1,0.1500,0.0750,-0.2250*
%
%ADD24ROUNDEDRECTD24*%
G04:AMPARAMS|DCode=25|XSize=0.6mm|YSize=0.3mm|CornerRadius=0.075mm|HoleSize=0mm|Usage=FLASHONLY|Rotation=180.000|XOffset=0mm|YOffset=0mm|HoleType=Round|Shape=RoundedRectangle|*
%AMROUNDEDRECTD25*
21,1,0.6000,0.1500,0,0,180.0*
21,1,0.4500,0.3000,0,0,180.0*
1,1,0.1500,-0.2250,0.0750*
1,1,0.1500,0.2250,0.0750*
1,1,0.1500,0.2250,-0.0750*
1,1,0.1500,-0.2250,-0.0750*
%
%ADD25ROUNDEDRECTD25*%
G04:AMPARAMS|DCode=26|XSize=1.2mm|YSize=2mm|CornerRadius=0.3mm|HoleSize=0mm|Usage=FLASHONLY|Rotation=90.000|XOffset=0mm|YOffset=0mm|HoleType=Round|Shape=RoundedRectangle|*
%AMROUNDEDRECTD26*
21,1,1.2000,1.4000,0,0,90.0*
21,1,0.6000,2.0000,0,0,90.0*
1,1,0.6000,0.7000,0.3000*
1,1,0.6000,0.7000,-0.3000*
1,1,0.6000,-0.7000,-0.3000*
1,1,0.6000,-0.7000,0.3000*
%
%ADD26ROUNDEDRECTD26*%
G04:AMPARAMS|DCode=27|XSize=2mm|YSize=1.5mm|CornerRadius=0.375mm|HoleSize=0mm|Usage=FLASHONLY|Rotation=270.000|XOffset=0mm|YOffset=0mm|HoleType=Round|Shape=RoundedRectangle|*
%AMROUNDEDRECTD27*
21,1,2.0000,0.7500,0,0,270.0*
21,1,1.2500,1.5000,0,0,270.0*
1,1,0.7500,-0.3750,-0.6250*
1,1,0.7500,-0.3750,0.6250*
1,1,0.7500,0.3750,0.6250*
1,1,0.7500,0.3750,-0.6250*
%
%ADD27ROUNDEDRECTD27*%
G04:AMPARAMS|DCode=28|XSize=2mm|YSize=1mm|CornerRadius=0.25mm|HoleSize=0mm|Usage=FLASHONLY|Rotation=90.000|XOffset=0mm|YOffset=0mm|HoleType=Round|Shape=RoundedRectangle|*
%AMROUNDEDRECTD28*
21,1,2.0000,0.5000,0,0,90.0*
21,1,1.5000,1.0000,0,0,90.0*
1,1,0.5000,0.2500,0.7500*
1,1,0.5000,0.2500,-0.7500*
1,1,0.5000,-0.2500,-0.7500*
1,1,0.5000,-0.2500,0.7500*
%
%ADD28ROUNDEDRECTD28*%
G04:AMPARAMS|DCode=29|XSize=5mm|YSize=1.4mm|CornerRadius=0.35mm|HoleSize=0mm|Usage=FLASHONLY|Rotation=0.000|XOffset=0mm|YOffset=0mm|HoleType=Round|Shape=RoundedRectangle|*
%AMROUNDEDRECTD29*
21,1,5.0000,0.7000,0,0,0.0*
21,1,4.3000,1.4000,0,0,0.0*
1,1,0.7000,2.1500,-0.3500*
1,1,0.7000,-2.1500,-0.3500*
1,1,0.7000,-2.1500,0.3500*
1,1,0.7000,2.1500,0.3500*
%
%ADD29ROUNDEDRECTD29*%
G04:AMPARAMS|DCode=30|XSize=5mm|YSize=1mm|CornerRadius=0.25mm|HoleSize=0mm|Usage=FLASHONLY|Rotation=0.000|XOffset=0mm|YOffset=0mm|HoleType=Round|Shape=RoundedRectangle|*
%AMROUNDEDRECTD30*
21,1,5.0000,0.5000,0,0,0.0*
21,1,4.5000,1.0000,0,0,0.0*
1,1,0.5000,2.2500,-0.2500*
1,1,0.5000,-2.2500,-0.2500*
1,1,0.5000,-2.2500,0.2500*
1,1,0.5000,2.2500,0.2500*
%
%ADD30ROUNDEDRECTD30*%
G04:AMPARAMS|DCode=31|XSize=2mm|YSize=0.4mm|CornerRadius=0.1mm|HoleSize=0mm|Usage=FLASHONLY|Rotation=180.000|XOffset=0mm|YOffset=0mm|HoleType=Round|Shape=RoundedRectangle|*
%AMROUNDEDRECTD31*
21,1,2.0000,0.2000,0,0,180.0*
21,1,1.8000,0.4000,0,0,180.0*
1,1,0.2000,-0.9000,0.1000*
1,1,0.2000,0.9000,0.1000*
1,1,0.2000,0.9000,-0.1000*
1,1,0.2000,-0.9000,-0.1000*
%
%ADD31ROUNDEDRECTD31*%
%ADD63C,0.4000*%
%ADD64C,0.3500*%
%ADD65C,0.3000*%
%ADD66C,0.2200*%
%ADD67C,0.2500*%
%ADD68C,0.5000*%
G04:AMPARAMS|DCode=69|XSize=2mm|YSize=1mm|CornerRadius=0.25mm|HoleSize=0mm|Usage=FLASHONLY|Rotation=180.000|XOffset=0mm|YOffset=0mm|HoleType=Round|Shape=RoundedRectangle|*
%AMROUNDEDRECTD69*
21,1,2.0000,0.5000,0,0,180.0*
21,1,1.5000,1.0000,0,0,180.0*
1,1,0.5000,-0.7500,0.2500*
1,1,0.5000,0.7500,0.2500*
1,1,0.5000,0.7500,-0.2500*
1,1,0.5000,-0.7500,-0.2500*
%
%ADD69ROUNDEDRECTD69*%
%ADD70C,2.0000*%
%ADD71C,3.0000*%
%ADD72C,0.6000*%
G36*
X131344Y394902D02*
X131971Y393632D01*
X131696Y393274D01*
X131142Y391936D01*
X130953Y390500D01*
Y385500D01*
X131142Y384064D01*
X131696Y382726D01*
X132577Y381577D01*
X133726Y380696D01*
X135064Y380142D01*
X136500Y379953D01*
X141500D01*
X142936Y380142D01*
X144274Y380696D01*
X145423Y381577D01*
X146304Y382726D01*
X146858Y384064D01*
X147047Y385500D01*
Y390500D01*
X146858Y391936D01*
X146304Y393274D01*
X146029Y393632D01*
X146656Y394902D01*
X180115D01*
X180601Y393729D01*
X147936Y361064D01*
X146997Y359658D01*
X146667Y358000D01*
Y357694D01*
X145726Y357304D01*
X145330Y357000D01*
X138670D01*
X138274Y357304D01*
X136936Y357858D01*
X135500Y358047D01*
X130500D01*
X129064Y357858D01*
X127726Y357304D01*
X127330Y357000D01*
X115670D01*
X115274Y357304D01*
X113936Y357858D01*
X112500Y358047D01*
X107500D01*
X106064Y357858D01*
X104726Y357304D01*
X104330Y357000D01*
X57007D01*
X56136Y358136D01*
X54778Y359178D01*
X53197Y359833D01*
X51500Y360056D01*
X8500D01*
X6803Y359833D01*
X6368Y359652D01*
X5098Y360501D01*
Y369824D01*
X6218Y370422D01*
X6948Y369935D01*
X10041Y368653D01*
X13326Y368000D01*
X16674D01*
X19959Y368653D01*
X23052Y369935D01*
X25837Y371795D01*
X28205Y374163D01*
X30065Y376948D01*
X31347Y380041D01*
X32000Y383326D01*
Y386674D01*
X31347Y389959D01*
X30065Y393052D01*
X29578Y393782D01*
X30176Y394902D01*
X131344D01*
D02*
G37*
G36*
X251936Y384936D02*
X253342Y383997D01*
X255000Y383667D01*
X255306D01*
X255696Y382726D01*
X256577Y381577D01*
X257726Y380696D01*
X259064Y380142D01*
X260500Y379953D01*
X264919D01*
X269936Y374936D01*
X271342Y373997D01*
X273000Y373667D01*
X293484D01*
X294333Y372397D01*
X294142Y371936D01*
X293953Y370500D01*
Y365500D01*
X294114Y364270D01*
X293819Y363568D01*
X293439Y363000D01*
X248580D01*
X247954Y364270D01*
X248304Y364726D01*
X248858Y366064D01*
X249047Y367500D01*
Y372500D01*
X248858Y373936D01*
X248304Y375274D01*
X247423Y376423D01*
X246274Y377304D01*
X244936Y377858D01*
X243500Y378047D01*
X238500D01*
X237064Y377858D01*
X235726Y377304D01*
X234577Y376423D01*
X233696Y375274D01*
X233142Y373936D01*
X232953Y372500D01*
Y370415D01*
X232873Y370362D01*
X230317Y367806D01*
X229047Y368332D01*
Y372500D01*
X228858Y373936D01*
X228304Y375274D01*
X227423Y376423D01*
X226274Y377304D01*
X224936Y377858D01*
X223500Y378047D01*
X218500D01*
X217064Y377858D01*
X216268Y377529D01*
X215018Y378034D01*
X214835Y378221D01*
X214768Y378561D01*
X213884Y379884D01*
X212561Y380768D01*
X211000Y381078D01*
X190000D01*
X188439Y380768D01*
X187116Y379884D01*
X186232Y378561D01*
X185922Y377000D01*
Y368000D01*
X186232Y366439D01*
X187116Y365116D01*
X188382Y364270D01*
X188400Y364175D01*
X187986Y363000D01*
X164000D01*
X158918Y357918D01*
X158855Y357931D01*
X158437Y359309D01*
X189795Y390667D01*
X246205D01*
X251936Y384936D01*
D02*
G37*
G36*
X211000Y363000D02*
X200000D01*
X195000Y368000D01*
X190000D01*
Y377000D01*
X211000D01*
Y363000D01*
D02*
G37*
G36*
X400949Y369729D02*
X401876Y369492D01*
X402577Y368577D01*
X403726Y367696D01*
X405064Y367142D01*
X406500Y366953D01*
X411500D01*
X411585Y366964D01*
X412344Y366204D01*
X413750Y365265D01*
X415408Y364935D01*
X415965D01*
X416703Y364198D01*
X417617Y363670D01*
X417696Y363274D01*
X417142Y361936D01*
X416953Y360500D01*
Y356441D01*
X411100Y350588D01*
X406198D01*
X405223Y351858D01*
X405346Y352316D01*
Y353764D01*
X404971Y355163D01*
X404247Y356417D01*
X403223Y357441D01*
X401969Y358165D01*
X400570Y358540D01*
X399122D01*
X397799Y358186D01*
X397325Y358504D01*
X397296Y358529D01*
X396819Y359110D01*
X397071Y360375D01*
Y361625D01*
X396790Y363039D01*
X395989Y364238D01*
X396208Y365620D01*
X400319Y369731D01*
X400949Y369729D01*
D02*
G37*
G36*
X293953Y309500D02*
Y305081D01*
X282205Y293333D01*
X238694D01*
X238304Y294274D01*
X237423Y295423D01*
X236274Y296304D01*
X236253Y296313D01*
Y297687D01*
X236274Y297696D01*
X237423Y298577D01*
X238304Y299726D01*
X238858Y301064D01*
X239047Y302500D01*
Y307500D01*
X238885Y308730D01*
X239181Y309432D01*
X239561Y310000D01*
X293514D01*
X293953Y309500D01*
D02*
G37*
G36*
X195193Y308730D02*
X194623Y308401D01*
X193599Y307377D01*
X192875Y306123D01*
X192500Y304724D01*
Y303276D01*
X192875Y301877D01*
X193599Y300623D01*
X194623Y299599D01*
X195877Y298875D01*
X197276Y298500D01*
X198724D01*
X200123Y298875D01*
X201377Y299599D01*
X201680Y299902D01*
X203623D01*
X203696Y299726D01*
X204577Y298577D01*
X205726Y297696D01*
X205747Y297687D01*
Y296313D01*
X205726Y296304D01*
X204577Y295423D01*
X203696Y294274D01*
X203236Y293164D01*
X203123Y293125D01*
X201724Y293500D01*
X200276D01*
X198877Y293125D01*
X197623Y292401D01*
X196599Y291377D01*
X195875Y290123D01*
X195500Y288724D01*
Y287276D01*
X195749Y286348D01*
X195009Y285078D01*
X172000D01*
X172000Y285078D01*
X170439Y284768D01*
X169116Y283884D01*
X169116Y283884D01*
X149311Y264078D01*
X135738D01*
X135252Y265252D01*
X180000Y310000D01*
X194852D01*
X195193Y308730D01*
D02*
G37*
G36*
X295392Y277771D02*
X295953Y277389D01*
Y273500D01*
X296142Y272064D01*
X296696Y270726D01*
X297577Y269577D01*
X298726Y268696D01*
X298747Y268687D01*
Y267313D01*
X298726Y267304D01*
X297577Y266423D01*
X296696Y265274D01*
X296142Y263936D01*
X295953Y262500D01*
Y259613D01*
X294683Y259360D01*
X294304Y260274D01*
X293423Y261423D01*
X292274Y262304D01*
X290936Y262858D01*
X289500Y263047D01*
X284500D01*
X283064Y262858D01*
X281726Y262304D01*
X280577Y261423D01*
X279696Y260274D01*
X279687Y260253D01*
X278313D01*
X278304Y260274D01*
X277423Y261423D01*
X276274Y262304D01*
X274936Y262858D01*
X273500Y263047D01*
X268500D01*
X267064Y262858D01*
X265726Y262304D01*
X264577Y261423D01*
X263696Y260274D01*
X263142Y258936D01*
X262953Y257500D01*
Y253802D01*
X256575Y247425D01*
X255526Y245853D01*
X255157Y244000D01*
Y218151D01*
X254875Y217663D01*
X254500Y216264D01*
Y214816D01*
X254875Y213417D01*
X255050Y213113D01*
X254641Y211843D01*
X244183D01*
X243000Y212078D01*
X225000D01*
X223439Y211768D01*
X222116Y210884D01*
X221232Y209561D01*
X220922Y208000D01*
Y206000D01*
X221232Y204439D01*
X221693Y203750D01*
X221232Y203061D01*
X220922Y201500D01*
Y199500D01*
X221232Y197939D01*
X221693Y197250D01*
X221232Y196561D01*
X220922Y195000D01*
Y193000D01*
X221232Y191439D01*
X221693Y190750D01*
X221232Y190061D01*
X220922Y188500D01*
Y186500D01*
X221009Y186060D01*
X220203Y185078D01*
X215799D01*
X215304Y186274D01*
X214423Y187423D01*
X213274Y188304D01*
X211936Y188858D01*
X210500Y189047D01*
X205500D01*
X204064Y188858D01*
X202726Y188304D01*
X201577Y187423D01*
X200696Y186274D01*
X200142Y184936D01*
X199953Y183500D01*
Y178500D01*
X200142Y177064D01*
X200696Y175726D01*
X201577Y174577D01*
X202726Y173696D01*
X203110Y173537D01*
X203251Y172104D01*
X202806Y171805D01*
X202805Y171805D01*
X199116Y168116D01*
X198232Y166793D01*
X197922Y165232D01*
X197922Y165232D01*
Y160612D01*
X195774Y158465D01*
X194890Y157142D01*
X194742Y156783D01*
X194514Y156486D01*
X194217Y156258D01*
X193871Y156115D01*
X193233Y156031D01*
X188767D01*
X188129Y156115D01*
X187783Y156258D01*
X187486Y156486D01*
X186931Y157209D01*
X186892Y157244D01*
X186470Y157876D01*
X185147Y158760D01*
X183586Y159070D01*
X167992D01*
X149992Y159070D01*
X148431Y158760D01*
X147108Y157876D01*
X146224Y156553D01*
X145914Y154992D01*
Y128000D01*
X146224Y126439D01*
X147108Y125116D01*
X148431Y124232D01*
X149992Y123922D01*
X187000D01*
X187000Y123922D01*
X188561Y124232D01*
X189884Y125116D01*
X189884Y125116D01*
X227384Y162616D01*
X227588Y162922D01*
X237151D01*
X237638Y161748D01*
X236576Y160687D01*
X235692Y159364D01*
X235382Y157803D01*
X235382Y157803D01*
Y128689D01*
X227192Y120500D01*
X226736D01*
X225337Y120125D01*
X224083Y119401D01*
X223059Y118377D01*
X222335Y117123D01*
X221960Y115724D01*
Y114276D01*
X222335Y112877D01*
X223059Y111623D01*
X224083Y110599D01*
X225337Y109875D01*
X226736Y109500D01*
X228184D01*
X229583Y109875D01*
X230837Y110599D01*
X231861Y111623D01*
X232585Y112877D01*
X232960Y114276D01*
Y114732D01*
X239288Y121060D01*
X240669Y120645D01*
X240875Y119877D01*
X241599Y118623D01*
X242623Y117599D01*
X243877Y116875D01*
X245276Y116500D01*
X246724D01*
X248123Y116875D01*
X249377Y117599D01*
X250401Y118623D01*
X251125Y119877D01*
X251500Y121276D01*
Y122724D01*
X251125Y124123D01*
X250401Y125377D01*
X250128Y125650D01*
X249455Y126500D01*
X250128Y127350D01*
X250401Y127623D01*
X251125Y128877D01*
X251500Y130276D01*
Y131724D01*
X251125Y133123D01*
X250401Y134377D01*
X249377Y135401D01*
X248123Y136125D01*
X246724Y136500D01*
X245276D01*
X244808Y136375D01*
X243538Y137344D01*
Y156114D01*
X250884Y163459D01*
X250884Y163459D01*
X251768Y164782D01*
X252078Y166343D01*
Y192828D01*
X252078Y192828D01*
X251768Y194389D01*
X252346Y195657D01*
X260500D01*
X262353Y196026D01*
X263925Y197075D01*
X273299Y206450D01*
X274349Y208021D01*
X274718Y209875D01*
Y212554D01*
X275474Y213687D01*
X275843Y215540D01*
X275474Y217393D01*
X275281Y217682D01*
Y226285D01*
X276274Y226696D01*
X277423Y227577D01*
X277730Y227978D01*
X279000Y227547D01*
Y150000D01*
X283493D01*
X283979Y148827D01*
X267718Y132565D01*
X267261D01*
X265862Y132190D01*
X264608Y131466D01*
X263584Y130442D01*
X262860Y129188D01*
X262485Y127789D01*
Y126341D01*
X262860Y124942D01*
X263584Y123688D01*
X264608Y122664D01*
X264270Y121393D01*
X263875Y120709D01*
X263500Y119310D01*
Y117862D01*
X263875Y116463D01*
X264599Y115209D01*
X265623Y114185D01*
X266877Y113461D01*
X268276Y113086D01*
X269724D01*
X271123Y113461D01*
X272377Y114185D01*
X273401Y115209D01*
X274125Y116463D01*
X274500Y117862D01*
Y118318D01*
X284827Y128645D01*
X286201Y128223D01*
X286749Y127273D01*
X287773Y126249D01*
X289028Y125525D01*
X290426Y125150D01*
X291875D01*
X293273Y125525D01*
X294528Y126249D01*
X295552Y127273D01*
X296276Y128528D01*
X296651Y129926D01*
Y131375D01*
X296276Y132773D01*
X295552Y134028D01*
X294528Y135052D01*
X293578Y135600D01*
X293156Y136974D01*
X295295Y139113D01*
X296659Y138681D01*
X296875Y137877D01*
X297599Y136623D01*
X298623Y135599D01*
X299877Y134875D01*
X301276Y134500D01*
X302724D01*
X304123Y134875D01*
X305377Y135599D01*
X305650Y135872D01*
X306500Y136545D01*
X307350Y135872D01*
X307623Y135599D01*
X308877Y134875D01*
X310276Y134500D01*
X311724D01*
X313123Y134875D01*
X314377Y135599D01*
X315898Y135324D01*
X316147Y135075D01*
X317401Y134351D01*
X318800Y133976D01*
X320248D01*
X320978Y134172D01*
X322217Y133917D01*
X322941Y132663D01*
X323965Y131639D01*
X325219Y130915D01*
X326618Y130540D01*
X328066D01*
X329465Y130915D01*
X330109Y131287D01*
X330733Y130974D01*
X331269Y130490D01*
Y129258D01*
X331130Y129078D01*
X329000D01*
X327439Y128768D01*
X326116Y127884D01*
X326116Y127884D01*
X319116Y120884D01*
X319116Y120884D01*
X318232Y119561D01*
X317922Y118000D01*
X317922Y118000D01*
Y109000D01*
X318232Y107439D01*
X319116Y106116D01*
X320439Y105232D01*
X322000Y104922D01*
X353000D01*
X354561Y105232D01*
X355884Y106116D01*
X356768Y107439D01*
X357078Y109000D01*
Y111495D01*
X358252Y111981D01*
X376922Y93311D01*
Y69000D01*
X376922Y69000D01*
X377232Y67439D01*
X378116Y66116D01*
X381953Y62280D01*
Y57500D01*
X382142Y56064D01*
X382696Y54726D01*
X383577Y53577D01*
X384726Y52696D01*
X386064Y52142D01*
X387500Y51953D01*
X392500D01*
X393936Y52142D01*
X395274Y52696D01*
X396423Y53577D01*
X397304Y54726D01*
X397313Y54747D01*
X398687D01*
X398696Y54726D01*
X399577Y53577D01*
X400726Y52696D01*
X402064Y52142D01*
X403500Y51953D01*
X408500D01*
X409936Y52142D01*
X411274Y52696D01*
X412423Y53577D01*
X413304Y54726D01*
X413377Y54902D01*
X419123D01*
X419366Y54316D01*
X420679Y52350D01*
X422350Y50679D01*
X424316Y49366D01*
X426500Y48461D01*
X428818Y48000D01*
X431182D01*
X433500Y48461D01*
X435684Y49366D01*
X437650Y50679D01*
X439321Y52350D01*
X440634Y54316D01*
X441539Y56500D01*
X442000Y58818D01*
Y61182D01*
X441539Y63500D01*
X440634Y65684D01*
X439321Y67649D01*
X437650Y69321D01*
X435684Y70634D01*
X433500Y71539D01*
X431182Y72000D01*
X428818D01*
X426500Y71539D01*
X424316Y70634D01*
X422350Y69321D01*
X420679Y67649D01*
X419366Y65684D01*
X419123Y65098D01*
X413377D01*
X413304Y65274D01*
X412423Y66423D01*
X411274Y67304D01*
X409936Y67858D01*
X408500Y68047D01*
X403500D01*
X402064Y67858D01*
X400726Y67304D01*
X399577Y66423D01*
X398696Y65274D01*
X398687Y65253D01*
X397313D01*
X397304Y65274D01*
X396423Y66423D01*
X395274Y67304D01*
X393936Y67858D01*
X392500Y68047D01*
X387720D01*
X385078Y70689D01*
Y86356D01*
X386348Y87104D01*
X387500Y86953D01*
X392500D01*
X393936Y87142D01*
X395274Y87696D01*
X396423Y88577D01*
X397304Y89726D01*
X397313Y89747D01*
X398687D01*
X398696Y89726D01*
X399577Y88577D01*
X400726Y87696D01*
X402064Y87142D01*
X403500Y86953D01*
X408500D01*
X409936Y87142D01*
X411274Y87696D01*
X412423Y88577D01*
X413304Y89726D01*
X413377Y89902D01*
X419123D01*
X419366Y89316D01*
X420679Y87350D01*
X422350Y85679D01*
X424316Y84366D01*
X426500Y83461D01*
X428818Y83000D01*
X431182D01*
X433500Y83461D01*
X435684Y84366D01*
X437650Y85679D01*
X439321Y87350D01*
X440634Y89316D01*
X441539Y91500D01*
X442000Y93818D01*
Y96182D01*
X441539Y98500D01*
X440634Y100684D01*
X439321Y102650D01*
X437650Y104321D01*
X435684Y105634D01*
X433500Y106539D01*
X431182Y107000D01*
X428818D01*
X426500Y106539D01*
X424316Y105634D01*
X422350Y104321D01*
X420679Y102650D01*
X419366Y100684D01*
X419123Y100098D01*
X413377D01*
X413304Y100274D01*
X412423Y101423D01*
X411274Y102304D01*
X409936Y102858D01*
X408500Y103047D01*
X403500D01*
X402064Y102858D01*
X400726Y102304D01*
X399577Y101423D01*
X398696Y100274D01*
X398687Y100253D01*
X397313D01*
X397304Y100274D01*
X396423Y101423D01*
X395274Y102304D01*
X393936Y102858D01*
X392500Y103047D01*
X387720D01*
X346988Y143779D01*
X347474Y144953D01*
X350500D01*
X351936Y145142D01*
X353274Y145696D01*
X354423Y146577D01*
X355304Y147726D01*
X355313Y147747D01*
X356687D01*
X356696Y147726D01*
X357577Y146577D01*
X358726Y145696D01*
X360064Y145142D01*
X361500Y144953D01*
X366500D01*
X367936Y145142D01*
X369274Y145696D01*
X370423Y146577D01*
X371199Y147589D01*
X371755Y147599D01*
X372535Y147380D01*
X372761Y146244D01*
X373756Y144756D01*
X383915Y134596D01*
X383461Y133500D01*
X383000Y131182D01*
Y128818D01*
X383461Y126500D01*
X384366Y124316D01*
X385679Y122350D01*
X387350Y120679D01*
X389316Y119366D01*
X391500Y118461D01*
X393818Y118000D01*
X396182D01*
X398500Y118461D01*
X400684Y119366D01*
X402650Y120679D01*
X404321Y122350D01*
X405634Y124316D01*
X406539Y126500D01*
X407000Y128818D01*
Y131182D01*
X406539Y133500D01*
X405634Y135684D01*
X404321Y137650D01*
X402650Y139321D01*
X400684Y140634D01*
X398500Y141539D01*
X396182Y142000D01*
X393818D01*
X391500Y141539D01*
X390404Y141085D01*
X382759Y148730D01*
X383285Y150000D01*
X386057D01*
X386500Y149912D01*
X401500D01*
X401943Y150000D01*
X404101D01*
X404290Y149049D01*
X405395Y147395D01*
X418704Y134086D01*
X418461Y133500D01*
X418000Y131182D01*
Y128818D01*
X418461Y126500D01*
X419366Y124316D01*
X420679Y122350D01*
X422350Y120679D01*
X424316Y119366D01*
X426500Y118461D01*
X428818Y118000D01*
X431182D01*
X433500Y118461D01*
X435684Y119366D01*
X437650Y120679D01*
X439321Y122350D01*
X440634Y124316D01*
X441539Y126500D01*
X442000Y128818D01*
Y131182D01*
X441539Y133500D01*
X440634Y135684D01*
X439321Y137650D01*
X437650Y139321D01*
X435684Y140634D01*
X433500Y141539D01*
X431182Y142000D01*
X428818D01*
X426500Y141539D01*
X425914Y141296D01*
X418383Y148827D01*
X418869Y150000D01*
X427057D01*
X427500Y149912D01*
X442500D01*
X442943Y150000D01*
X444902D01*
Y30176D01*
X443782Y29578D01*
X443052Y30065D01*
X439959Y31347D01*
X436674Y32000D01*
X433326D01*
X430041Y31347D01*
X426948Y30065D01*
X424163Y28205D01*
X421795Y25837D01*
X419935Y23052D01*
X418653Y19959D01*
X418000Y16674D01*
Y13326D01*
X418653Y10041D01*
X419935Y6948D01*
X420422Y6218D01*
X419824Y5098D01*
X278581D01*
X278150Y6368D01*
X278423Y6577D01*
X279304Y7726D01*
X279858Y9064D01*
X280047Y10500D01*
Y14887D01*
X280320Y15212D01*
X281095Y15721D01*
X281294Y15763D01*
X282276Y15500D01*
X283724D01*
X285123Y15875D01*
X286377Y16599D01*
X287401Y17623D01*
X288125Y18877D01*
X288500Y20276D01*
Y21724D01*
X288125Y23123D01*
X287401Y24377D01*
X286377Y25401D01*
X285123Y26125D01*
X283724Y26500D01*
X282276D01*
X280877Y26125D01*
X280498Y25906D01*
X279150Y26119D01*
X278966Y26399D01*
X278401Y27377D01*
X278414Y27571D01*
X278423Y27577D01*
X279304Y28726D01*
X279858Y30064D01*
X280047Y31500D01*
Y36500D01*
X279858Y37936D01*
X279304Y39274D01*
X278423Y40423D01*
X277274Y41304D01*
X275936Y41858D01*
X274500Y42047D01*
X269500D01*
X268064Y41858D01*
X266726Y41304D01*
X265577Y40423D01*
X264696Y39274D01*
X264142Y37936D01*
X263953Y36500D01*
Y32441D01*
X263915Y32403D01*
X262877Y32125D01*
X261623Y31401D01*
X260599Y30377D01*
X259875Y29123D01*
X259500Y27724D01*
Y26276D01*
X259875Y24877D01*
X260599Y23623D01*
X261623Y22599D01*
X262877Y21875D01*
X264276Y21500D01*
X265439D01*
X266274Y20778D01*
X266469Y20385D01*
X266299Y19977D01*
X265577Y19423D01*
X264696Y18274D01*
X264687Y18253D01*
X263313D01*
X263304Y18274D01*
X262423Y19423D01*
X261274Y20304D01*
X259936Y20858D01*
X258500Y21047D01*
X254441D01*
X250403Y25085D01*
X250125Y26123D01*
X249401Y27377D01*
X248377Y28401D01*
X247123Y29125D01*
X245724Y29500D01*
X244276D01*
X242877Y29125D01*
X241623Y28401D01*
X240599Y27377D01*
X239875Y26123D01*
X239500Y24724D01*
Y23276D01*
X239875Y21877D01*
X240599Y20623D01*
X241623Y19599D01*
X242877Y18875D01*
X243915Y18597D01*
X247953Y14559D01*
Y10500D01*
X248142Y9064D01*
X248696Y7726D01*
X249577Y6577D01*
X249850Y6368D01*
X249419Y5098D01*
X30176Y5098D01*
X29578Y6218D01*
X30065Y6948D01*
X31347Y10041D01*
X32000Y13326D01*
Y16674D01*
X31347Y19959D01*
X30065Y23052D01*
X28205Y25837D01*
X25837Y28205D01*
X23052Y30065D01*
X19959Y31347D01*
X16674Y32000D01*
X13326D01*
X10041Y31347D01*
X6948Y30065D01*
X6218Y29578D01*
X5098Y30176D01*
Y39499D01*
X6368Y40348D01*
X6803Y40167D01*
X8500Y39944D01*
X51500D01*
X53197Y40167D01*
X54778Y40822D01*
X56136Y41864D01*
X57178Y43222D01*
X57833Y44803D01*
X58056Y46500D01*
Y50994D01*
X59157Y51899D01*
X59940Y51745D01*
Y45200D01*
X60180Y43373D01*
X60886Y41670D01*
X62008Y40208D01*
X63470Y39086D01*
X65173Y38380D01*
X67000Y38140D01*
X75000D01*
X76827Y38380D01*
X78530Y39086D01*
X79992Y40208D01*
X81115Y41670D01*
X81820Y43373D01*
X82060Y45200D01*
Y53200D01*
X81820Y55027D01*
X81115Y56730D01*
X79992Y58192D01*
X78530Y59314D01*
X76827Y60020D01*
X75000Y60260D01*
X67149D01*
X66605Y60805D01*
X64951Y61910D01*
X63000Y62298D01*
X60912D01*
X54047Y69162D01*
Y72500D01*
X53858Y73936D01*
X53304Y75274D01*
X52423Y76423D01*
X51274Y77304D01*
X49936Y77858D01*
X48500Y78047D01*
X43500D01*
X42064Y77858D01*
X40726Y77304D01*
X39577Y76423D01*
X38696Y75274D01*
X38687Y75253D01*
X37313D01*
X37304Y75274D01*
X36423Y76423D01*
X35274Y77304D01*
X33936Y77858D01*
X32500Y78047D01*
X27500D01*
X26064Y77858D01*
X24726Y77304D01*
X23577Y76423D01*
X22696Y75274D01*
X22142Y73936D01*
X21953Y72500D01*
Y67500D01*
X22142Y66064D01*
X22696Y64726D01*
X23577Y63577D01*
X24726Y62696D01*
X24902Y62623D01*
Y60056D01*
X8500D01*
X6803Y59833D01*
X6368Y59652D01*
X5098Y60501D01*
Y91345D01*
X6368Y92102D01*
X7500Y91953D01*
X52500D01*
X53936Y92142D01*
X55274Y92696D01*
X56423Y93577D01*
X57094Y94453D01*
X60143D01*
X60180Y94173D01*
X60886Y92470D01*
X62008Y91008D01*
X63470Y89886D01*
X65173Y89180D01*
X67000Y88940D01*
X75000D01*
X76827Y89180D01*
X78530Y89886D01*
X79992Y91008D01*
X81115Y92470D01*
X81820Y94173D01*
X82060Y96000D01*
Y104000D01*
X81820Y105827D01*
X81115Y107530D01*
X79992Y108992D01*
X78530Y110114D01*
X76827Y110820D01*
X75000Y111060D01*
X67000D01*
X65173Y110820D01*
X63470Y110114D01*
X62008Y108992D01*
X60886Y107530D01*
X60180Y105827D01*
X60143Y105547D01*
X57094D01*
X56423Y106423D01*
X55274Y107304D01*
X53936Y107858D01*
X52500Y108047D01*
X7500D01*
X6368Y107898D01*
X5098Y108655D01*
Y139499D01*
X6368Y140348D01*
X6803Y140167D01*
X8500Y139944D01*
X51500D01*
X53197Y140167D01*
X54778Y140822D01*
X56136Y141864D01*
X57178Y143222D01*
X57833Y144803D01*
X58056Y146500D01*
Y153500D01*
X57833Y155197D01*
X57178Y156778D01*
X56136Y158136D01*
X54778Y159178D01*
X53197Y159833D01*
X51500Y160056D01*
X8500D01*
X6803Y159833D01*
X6368Y159652D01*
X5098Y160501D01*
Y213593D01*
X6368Y214025D01*
X6436Y213936D01*
X7846Y212854D01*
X9488Y212174D01*
X11250Y211942D01*
X18750D01*
X20512Y212174D01*
X22154Y212854D01*
X23564Y213936D01*
X24646Y215346D01*
X25326Y216988D01*
X25558Y218750D01*
Y231250D01*
X25326Y233012D01*
X24646Y234654D01*
X23564Y236064D01*
X22154Y237146D01*
X20512Y237826D01*
X18750Y238058D01*
X11250D01*
X9488Y237826D01*
X7846Y237146D01*
X6436Y236064D01*
X6368Y235975D01*
X5098Y236407D01*
Y239499D01*
X6368Y240348D01*
X6803Y240167D01*
X8500Y239944D01*
X51500D01*
X53197Y240167D01*
X54778Y240822D01*
X56136Y241864D01*
X57007Y243000D01*
X60000D01*
Y260000D01*
X77114D01*
X78067Y258730D01*
X77922Y258000D01*
Y240000D01*
X78223Y238486D01*
X76877Y238125D01*
X75623Y237401D01*
X74599Y236377D01*
X73875Y235123D01*
X73500Y233724D01*
Y232276D01*
X73875Y230877D01*
X74599Y229623D01*
X74795Y229426D01*
X75551Y228524D01*
X74803Y227740D01*
X74543Y227481D01*
X73819Y226226D01*
X73444Y224828D01*
Y223379D01*
X73819Y221981D01*
X74543Y220727D01*
X75211Y220059D01*
X74922Y218604D01*
Y192000D01*
X75232Y190439D01*
X76116Y189116D01*
X77439Y188232D01*
X79000Y187922D01*
X79432D01*
X79726Y187696D01*
X81064Y187142D01*
X82500Y186953D01*
X87500D01*
X88936Y187142D01*
X90274Y187696D01*
X91423Y188577D01*
X92304Y189726D01*
X92858Y191064D01*
X92938Y191671D01*
X94189Y192922D01*
X97297D01*
X97691Y193000D01*
X98093D01*
X98464Y193154D01*
X98858Y193232D01*
X99192Y193455D01*
X99563Y193609D01*
X99937Y193859D01*
X100698Y194010D01*
X100698D01*
X100698Y194010D01*
X100702Y194011D01*
X101102D01*
X102084Y193198D01*
X102137Y193113D01*
X102243Y192530D01*
X102231Y192498D01*
X99116Y189384D01*
X98232Y188061D01*
X98195Y187876D01*
X98064Y187858D01*
X96726Y187304D01*
X95577Y186423D01*
X94696Y185274D01*
X94142Y183936D01*
X93953Y182500D01*
Y177500D01*
X94142Y176064D01*
X94696Y174726D01*
X95577Y173577D01*
X96726Y172696D01*
X98064Y172142D01*
X99500Y171953D01*
X104500D01*
X105936Y172142D01*
X107274Y172696D01*
X108423Y173577D01*
X109304Y174726D01*
X109858Y176064D01*
X110047Y177500D01*
Y182500D01*
X109858Y183936D01*
X109304Y185274D01*
X108423Y186423D01*
X108378Y187110D01*
X109884Y188616D01*
X109884Y188616D01*
X110768Y189939D01*
X111078Y191500D01*
Y192922D01*
X146000D01*
X147561Y193232D01*
X148884Y194116D01*
X149768Y195439D01*
X150078Y197000D01*
Y208000D01*
X149768Y209561D01*
X148884Y210884D01*
X148599Y211074D01*
X147884Y212116D01*
X148768Y213439D01*
X149078Y215000D01*
Y255922D01*
X151000D01*
X151000Y255922D01*
X152561Y256232D01*
X153884Y257116D01*
X173689Y276922D01*
X292000D01*
X292000Y276922D01*
X293561Y277232D01*
X294683Y277982D01*
X295392Y277771D01*
D02*
G37*
G36*
X110000Y247000D02*
X103047Y240047D01*
X99500D01*
X99140Y240000D01*
X82000D01*
Y258000D01*
X110000D01*
Y247000D01*
D02*
G37*
G36*
X105431Y235408D02*
X106000Y234804D01*
Y212078D01*
X104439Y211768D01*
X103116Y210884D01*
X102232Y209561D01*
X101922Y208000D01*
Y206039D01*
X102000Y205646D01*
X102000Y205244D01*
X102154Y204873D01*
X102232Y204478D01*
X102455Y204145D01*
X102608Y203774D01*
X102647Y203735D01*
X102955Y203274D01*
X102966Y203221D01*
X102922Y203000D01*
X103000Y202606D01*
Y199394D01*
X102935Y199065D01*
X102606Y199000D01*
X102204D01*
X101833Y198846D01*
X101439Y198768D01*
X101105Y198545D01*
X100734Y198391D01*
X100450Y198107D01*
X100306Y198011D01*
X99907D01*
X99907Y198011D01*
X98346Y197701D01*
X97297Y197000D01*
X92500D01*
X87500Y192000D01*
X79000D01*
Y218604D01*
X79668D01*
X81067Y218978D01*
X82321Y219702D01*
X83345Y220727D01*
X84069Y221981D01*
X84444Y223379D01*
Y224828D01*
X84069Y226226D01*
X83345Y227481D01*
X82913Y227913D01*
X90922Y235922D01*
X99140D01*
X99403Y235974D01*
X99672Y235957D01*
X99767Y235969D01*
X103047D01*
X103047Y235969D01*
X104000Y236159D01*
X105431Y235408D01*
D02*
G37*
G36*
X381912Y240500D02*
X382261Y238744D01*
X383256Y237256D01*
X384744Y236261D01*
X386500Y235912D01*
X400000D01*
Y232778D01*
X399599Y232377D01*
X398875Y231123D01*
X398500Y229724D01*
Y229098D01*
X395215D01*
X394256Y229739D01*
X392500Y230088D01*
X383500D01*
X381744Y229739D01*
X380256Y228744D01*
X379261Y227256D01*
X379054Y226214D01*
X377724Y224500D01*
X376276D01*
X374877Y224125D01*
X373623Y223401D01*
X372599Y222377D01*
X371875Y221123D01*
X371781Y220772D01*
X371775Y220766D01*
X369592Y220060D01*
X369274Y220304D01*
X367936Y220858D01*
X366500Y221047D01*
X361500D01*
X360064Y220858D01*
X358726Y220304D01*
X357577Y219423D01*
X357198Y218928D01*
X356762Y218777D01*
X355238D01*
X354802Y218928D01*
X354423Y219423D01*
X353274Y220304D01*
X351936Y220858D01*
X350500Y221047D01*
X345500D01*
X344064Y220858D01*
X342726Y220304D01*
X341577Y219423D01*
X340696Y218274D01*
X340142Y216936D01*
X339953Y215500D01*
Y211843D01*
X334183D01*
X333000Y212078D01*
X315000D01*
X313000Y213519D01*
Y241000D01*
X381912D01*
Y240500D01*
D02*
G37*
G36*
X145000Y215000D02*
X112000D01*
Y243232D01*
X112884Y244116D01*
X113768Y245439D01*
X113819Y245698D01*
X114078Y247000D01*
X114078Y247000D01*
Y255311D01*
X114689Y255922D01*
X145000D01*
Y215000D01*
D02*
G37*
G36*
X357198Y207072D02*
X357577Y206577D01*
X358726Y205696D01*
X360064Y205142D01*
X361500Y204953D01*
X365559D01*
X366256Y204256D01*
X367744Y203261D01*
X369500Y202912D01*
X372065D01*
X373695Y200912D01*
X373662Y200743D01*
Y197088D01*
X371381D01*
X371304Y197274D01*
X370423Y198423D01*
X369274Y199304D01*
X367936Y199858D01*
X366500Y200047D01*
X361500D01*
X360064Y199858D01*
X358726Y199304D01*
X357577Y198423D01*
X357198Y197928D01*
X356762Y197777D01*
X355238D01*
X354802Y197928D01*
X354423Y198423D01*
X353274Y199304D01*
X351936Y199858D01*
X350500Y200047D01*
X346802D01*
X345232Y201617D01*
X345424Y203575D01*
X346802Y204953D01*
X350500D01*
X351936Y205142D01*
X353274Y205696D01*
X354423Y206577D01*
X354802Y207072D01*
X355238Y207223D01*
X356762D01*
X357198Y207072D01*
D02*
G37*
G36*
X146000Y197000D02*
X110501D01*
X110391Y197266D01*
X110107Y197550D01*
X109884Y197884D01*
X109550Y198107D01*
X109266Y198391D01*
X108895Y198545D01*
X108561Y198768D01*
X108167Y198846D01*
X107796Y199000D01*
X107394D01*
X107078Y199063D01*
Y203000D01*
X107069Y203049D01*
Y203500D01*
X106797Y204866D01*
X106023Y206023D01*
X106000Y206039D01*
Y208000D01*
X146000D01*
Y197000D01*
D02*
G37*
G36*
X378250Y187912D02*
X378927D01*
Y186750D01*
X379218Y185287D01*
X379409Y185000D01*
X379218Y184713D01*
X378927Y183250D01*
Y181750D01*
X379218Y180287D01*
X379584Y179739D01*
X379261Y179256D01*
X378912Y177500D01*
Y174500D01*
X379261Y172744D01*
X380256Y171256D01*
X381744Y170261D01*
X383500Y169912D01*
X392500D01*
X394256Y170261D01*
X395215Y170902D01*
X400000D01*
Y164088D01*
X386500D01*
X384744Y163739D01*
X383256Y162744D01*
X382261Y161256D01*
X381912Y159500D01*
Y155000D01*
X359376D01*
X359125Y155935D01*
X358401Y157189D01*
X357377Y158213D01*
X356123Y158937D01*
X354724Y159312D01*
X354507D01*
X354423Y159423D01*
X353274Y160304D01*
X351936Y160858D01*
X350500Y161047D01*
X345500D01*
X344332Y160894D01*
X342672Y162554D01*
X343804Y164249D01*
X344064Y164142D01*
X345500Y163953D01*
X350500D01*
X351936Y164142D01*
X353274Y164696D01*
X354423Y165577D01*
X355304Y166726D01*
X355858Y168064D01*
X356047Y169500D01*
Y174500D01*
X355858Y175936D01*
X355304Y177274D01*
X354423Y178423D01*
X353274Y179304D01*
X351936Y179858D01*
X350500Y180047D01*
X345720D01*
X343474Y182294D01*
X343658Y182869D01*
X344514Y184082D01*
X345500Y183953D01*
X350500D01*
X351936Y184142D01*
X353274Y184696D01*
X354423Y185577D01*
X354802Y186072D01*
X355238Y186223D01*
X356762D01*
X357198Y186072D01*
X357577Y185577D01*
X358726Y184696D01*
X360064Y184142D01*
X361500Y183953D01*
X366500D01*
X367936Y184142D01*
X369274Y184696D01*
X370423Y185577D01*
X371304Y186726D01*
X371795Y187912D01*
X378250D01*
X378250Y187912D01*
D02*
G37*
G36*
X334068Y167621D02*
Y166868D01*
X335495Y163424D01*
X339364Y159556D01*
X339676Y159426D01*
X341270Y157832D01*
X341546Y157718D01*
X341696Y157459D01*
X343043Y157098D01*
X343279Y157000D01*
X342881Y155000D01*
X334796D01*
X334000Y155330D01*
X313500D01*
Y168168D01*
X315000Y169170D01*
X333000D01*
X334068Y167621D01*
D02*
G37*
G36*
X222500Y168922D02*
X224437Y167472D01*
X224500Y167303D01*
Y165500D01*
X187000Y128000D01*
X149992D01*
Y154992D01*
X167992Y154992D01*
X183586D01*
X183696Y154726D01*
X184577Y153577D01*
X185726Y152696D01*
X187064Y152142D01*
X188500Y151953D01*
X193500D01*
X194936Y152142D01*
X196274Y152696D01*
X197423Y153577D01*
X198304Y154726D01*
X198658Y155581D01*
X202000Y158923D01*
Y165232D01*
X205689Y168922D01*
X222500D01*
X222500Y168922D01*
D02*
G37*
G36*
X345000Y120000D02*
X350232D01*
X353000Y117232D01*
Y109000D01*
X322000D01*
Y118000D01*
X329000Y125000D01*
X334398D01*
X334646Y124857D01*
X336045Y124482D01*
X337493D01*
X338891Y124857D01*
X339139Y125000D01*
X340000D01*
X345000Y120000D01*
D02*
G37*
%LPC*%
G36*
X48750Y238058D02*
X41250D01*
X39488Y237826D01*
X37846Y237146D01*
X36436Y236064D01*
X35354Y234654D01*
X34674Y233012D01*
X34442Y231250D01*
Y218750D01*
X34674Y216988D01*
X35354Y215346D01*
X36436Y213936D01*
X37846Y212854D01*
X39488Y212174D01*
X41250Y211942D01*
X48750D01*
X50512Y212174D01*
X52154Y212854D01*
X53564Y213936D01*
X54646Y215346D01*
X55326Y216988D01*
X55558Y218750D01*
Y231250D01*
X55326Y233012D01*
X54646Y234654D01*
X53564Y236064D01*
X52154Y237146D01*
X50512Y237826D01*
X48750Y238058D01*
D02*
G37*
G36*
X26724Y192500D02*
X25276D01*
X23877Y192125D01*
X22623Y191401D01*
X21599Y190377D01*
X20875Y189123D01*
X20500Y187724D01*
Y186276D01*
X20875Y184877D01*
X21599Y183623D01*
X22623Y182599D01*
X23877Y181875D01*
X25276Y181500D01*
X26724D01*
X28123Y181875D01*
X29377Y182599D01*
X30401Y183623D01*
X31125Y184877D01*
X31500Y186276D01*
Y187724D01*
X31125Y189123D01*
X30401Y190377D01*
X29377Y191401D01*
X28123Y192125D01*
X26724Y192500D01*
D02*
G37*
G36*
X252600Y114375D02*
X251152D01*
X249753Y114001D01*
X248498Y113277D01*
X247474Y112253D01*
X246750Y110998D01*
X246376Y109600D01*
Y108152D01*
X246750Y106753D01*
X247474Y105499D01*
X248498Y104474D01*
X248875Y104257D01*
X249683Y103566D01*
X249321Y102603D01*
X249089Y102201D01*
X248714Y100802D01*
Y99354D01*
X249089Y97956D01*
X249813Y96701D01*
X250837Y95677D01*
X252091Y94953D01*
X253490Y94578D01*
X254938D01*
X256337Y94953D01*
X257591Y95677D01*
X258615Y96701D01*
X259339Y97956D01*
X259714Y99354D01*
Y100802D01*
X259339Y102201D01*
X258615Y103455D01*
X257591Y104480D01*
X257215Y104697D01*
X256406Y105388D01*
X256769Y106351D01*
X257001Y106753D01*
X257376Y108152D01*
Y109600D01*
X257001Y110998D01*
X256277Y112253D01*
X255253Y113277D01*
X253999Y114001D01*
X252600Y114375D01*
D02*
G37*
G36*
X349724Y85500D02*
X348276D01*
X346877Y85125D01*
X345623Y84401D01*
X344599Y83377D01*
X343875Y82123D01*
X343500Y80724D01*
Y79276D01*
X343875Y77877D01*
X344599Y76623D01*
X345623Y75599D01*
X346877Y74875D01*
X348276Y74500D01*
X349724D01*
X351123Y74875D01*
X352377Y75599D01*
X353401Y76623D01*
X354125Y77877D01*
X354500Y79276D01*
Y80724D01*
X354125Y82123D01*
X353401Y83377D01*
X352377Y84401D01*
X351123Y85125D01*
X349724Y85500D01*
D02*
G37*
G36*
X75000Y85660D02*
X67000D01*
X65173Y85420D01*
X63470Y84714D01*
X62008Y83592D01*
X60886Y82130D01*
X60180Y80427D01*
X59940Y78600D01*
Y70600D01*
X60180Y68773D01*
X60886Y67070D01*
X62008Y65608D01*
X63470Y64486D01*
X65173Y63780D01*
X67000Y63540D01*
X75000D01*
X76827Y63780D01*
X78530Y64486D01*
X79992Y65608D01*
X81115Y67070D01*
X81820Y68773D01*
X82060Y70600D01*
Y78600D01*
X81820Y80427D01*
X81115Y82130D01*
X79992Y83592D01*
X78530Y84714D01*
X76827Y85420D01*
X75000Y85660D01*
D02*
G37*
G36*
X137500Y124088D02*
X134500D01*
X132744Y123739D01*
X131256Y122744D01*
X130261Y121256D01*
X129912Y119500D01*
Y116500D01*
X130261Y114744D01*
X130902Y113785D01*
Y110916D01*
X130173Y110820D01*
X128470Y110114D01*
X127008Y108992D01*
X125886Y107530D01*
X125180Y105827D01*
X124940Y104000D01*
Y96000D01*
X125180Y94173D01*
X125886Y92470D01*
X127008Y91008D01*
X128470Y89886D01*
X130173Y89180D01*
X132000Y88940D01*
X140000D01*
X141827Y89180D01*
X143530Y89886D01*
X144993Y91008D01*
X146115Y92470D01*
X146820Y94173D01*
X146916Y94902D01*
X151623D01*
X151696Y94726D01*
X152577Y93577D01*
X153726Y92696D01*
X153747Y92687D01*
Y91313D01*
X153726Y91304D01*
X152577Y90423D01*
X151696Y89274D01*
X151142Y87936D01*
X150953Y86500D01*
Y81500D01*
X151142Y80064D01*
X151696Y78726D01*
X152577Y77577D01*
X153726Y76696D01*
X155064Y76142D01*
X156500Y75953D01*
X161500D01*
X162936Y76142D01*
X164274Y76696D01*
X165423Y77577D01*
X165733Y77982D01*
X167364Y78148D01*
X197756Y47756D01*
X199244Y46761D01*
X201000Y46412D01*
X313866D01*
X314392Y45142D01*
X314076Y44826D01*
X313352Y43572D01*
X312978Y42173D01*
Y40725D01*
X311908Y39811D01*
X311343Y39660D01*
X310088Y38935D01*
X309064Y37912D01*
X308340Y36657D01*
X307965Y35259D01*
Y33810D01*
X308340Y32411D01*
X309064Y31157D01*
X309452Y30769D01*
X309613Y29482D01*
X309367Y29146D01*
X308599Y28377D01*
X308228Y27735D01*
X306772D01*
X306401Y28377D01*
X305377Y29401D01*
X304123Y30125D01*
X302724Y30500D01*
X301276D01*
X299877Y30125D01*
X298623Y29401D01*
X297599Y28377D01*
X296875Y27123D01*
X296500Y25724D01*
Y24276D01*
X296875Y22877D01*
X297599Y21623D01*
X298623Y20599D01*
X299877Y19875D01*
X301276Y19500D01*
X302724D01*
X304123Y19875D01*
X305377Y20599D01*
X306401Y21623D01*
X306772Y22265D01*
X308228D01*
X308599Y21623D01*
X309623Y20599D01*
X310877Y19875D01*
X312276Y19500D01*
X313724D01*
X315123Y19875D01*
X316377Y20599D01*
X317401Y21623D01*
X318125Y22877D01*
X318500Y24276D01*
Y25724D01*
X318125Y27123D01*
X317401Y28377D01*
X317013Y28765D01*
X316853Y30052D01*
X317098Y30389D01*
X317866Y31157D01*
X318591Y32411D01*
X318965Y33810D01*
Y35259D01*
X320035Y36172D01*
X320600Y36324D01*
X321855Y37048D01*
X322878Y38072D01*
X323603Y39326D01*
X323977Y40725D01*
Y42173D01*
X323603Y43572D01*
X322878Y44826D01*
X322563Y45142D01*
X323089Y46412D01*
X342947D01*
X343877Y45875D01*
X345276Y45500D01*
X346724D01*
X348123Y45875D01*
X349377Y46599D01*
X350401Y47623D01*
X351125Y48877D01*
X351500Y50276D01*
Y51724D01*
X351125Y53123D01*
X350401Y54377D01*
X349377Y55401D01*
X348123Y56125D01*
X346724Y56500D01*
X345276D01*
X343877Y56125D01*
X342947Y55588D01*
X204060D01*
X203706Y56040D01*
X203917Y57599D01*
X204941Y58623D01*
X205665Y59877D01*
X205919Y60825D01*
X206432Y61391D01*
X207310Y61649D01*
X208190Y61413D01*
X209638D01*
X211037Y61788D01*
X212291Y62512D01*
X213315Y63536D01*
X214039Y64790D01*
X214414Y66189D01*
Y67637D01*
X214039Y69036D01*
X213315Y70290D01*
X212291Y71314D01*
X211037Y72038D01*
X209638Y72413D01*
X208190D01*
X206791Y72038D01*
X205537Y71314D01*
X204513Y70290D01*
X203789Y69036D01*
X203535Y68088D01*
X203022Y67522D01*
X202144Y67264D01*
X201264Y67500D01*
X199816D01*
X198417Y67125D01*
X197163Y66401D01*
X196139Y65377D01*
X195688Y64597D01*
X194247Y64242D01*
X171244Y87244D01*
X169756Y88239D01*
X168000Y88588D01*
X166588D01*
X166304Y89274D01*
X165423Y90423D01*
X164274Y91304D01*
X164253Y91313D01*
Y92687D01*
X164274Y92696D01*
X165423Y93577D01*
X166304Y94726D01*
X166858Y96064D01*
X167047Y97500D01*
Y102500D01*
X166858Y103936D01*
X166304Y105274D01*
X165423Y106423D01*
X164274Y107304D01*
X162936Y107858D01*
X161500Y108047D01*
X156500D01*
X155064Y107858D01*
X153726Y107304D01*
X152577Y106423D01*
X151696Y105274D01*
X151623Y105098D01*
X146916D01*
X146820Y105827D01*
X146115Y107530D01*
X144993Y108992D01*
X143530Y110114D01*
X141827Y110820D01*
X141098Y110916D01*
Y113785D01*
X141739Y114744D01*
X142088Y116500D01*
Y119500D01*
X141739Y121256D01*
X140744Y122744D01*
X139256Y123739D01*
X137500Y124088D01*
D02*
G37*
G36*
X48750Y188058D02*
X41250D01*
X39488Y187826D01*
X37846Y187146D01*
X36436Y186064D01*
X35354Y184654D01*
X34674Y183012D01*
X34442Y181250D01*
Y168750D01*
X34674Y166988D01*
X35354Y165346D01*
X36436Y163936D01*
X37846Y162854D01*
X39488Y162174D01*
X41250Y161942D01*
X48750D01*
X50512Y162174D01*
X52154Y162854D01*
X53564Y163936D01*
X54646Y165346D01*
X55326Y166988D01*
X55558Y168750D01*
Y169902D01*
X64888D01*
X109902Y124888D01*
Y74000D01*
X110290Y72049D01*
X111395Y70395D01*
X123395Y58395D01*
X124855Y57419D01*
X125049Y57290D01*
X125482Y56364D01*
X125541Y55897D01*
X125180Y55027D01*
X124940Y53200D01*
Y45200D01*
X125180Y43373D01*
X125886Y41670D01*
X127008Y40208D01*
X128470Y39086D01*
X130173Y38380D01*
X132000Y38140D01*
X140000D01*
X141827Y38380D01*
X143530Y39086D01*
X144993Y40208D01*
X146115Y41670D01*
X146820Y43373D01*
X146889Y43902D01*
X148623D01*
X148696Y43726D01*
X149577Y42577D01*
X150726Y41696D01*
X152064Y41142D01*
X153500Y40953D01*
X158500D01*
X159936Y41142D01*
X161274Y41696D01*
X162423Y42577D01*
X163304Y43726D01*
X163858Y45064D01*
X164047Y46500D01*
Y51500D01*
X163858Y52936D01*
X163304Y54274D01*
X162423Y55423D01*
X162150Y55632D01*
X162581Y56902D01*
X166830D01*
X166877Y56875D01*
X168276Y56500D01*
X169724D01*
X171123Y56875D01*
X172377Y57599D01*
X173401Y58623D01*
X174125Y59877D01*
X174500Y61276D01*
Y62724D01*
X174125Y64123D01*
X173401Y65377D01*
X172377Y66401D01*
X171123Y67125D01*
X169724Y67500D01*
X168276D01*
X166877Y67125D01*
X166830Y67098D01*
X147269D01*
X146564Y68154D01*
X146820Y68773D01*
X147060Y70600D01*
Y78600D01*
X146820Y80427D01*
X146115Y82130D01*
X144993Y83592D01*
X143530Y84714D01*
X141827Y85420D01*
X140000Y85660D01*
X132000D01*
X130173Y85420D01*
X128470Y84714D01*
X127008Y83592D01*
X125886Y82130D01*
X125180Y80427D01*
X124940Y78600D01*
Y72929D01*
X123766Y72443D01*
X120098Y76112D01*
Y127000D01*
X119710Y128951D01*
X118605Y130605D01*
X70605Y178605D01*
X68951Y179710D01*
X67000Y180098D01*
X55558D01*
Y181250D01*
X55326Y183012D01*
X54646Y184654D01*
X53564Y186064D01*
X52154Y187146D01*
X50512Y187826D01*
X48750Y188058D01*
D02*
G37*
G36*
X86724Y67500D02*
X85276D01*
X83877Y67125D01*
X82623Y66401D01*
X81599Y65377D01*
X80875Y64123D01*
X80500Y62724D01*
Y61276D01*
X80875Y59877D01*
X81599Y58623D01*
X82623Y57599D01*
X83877Y56875D01*
X85276Y56500D01*
X86724D01*
X88123Y56875D01*
X89377Y57599D01*
X90401Y58623D01*
X91125Y59877D01*
X91500Y61276D01*
Y62724D01*
X91125Y64123D01*
X90401Y65377D01*
X89377Y66401D01*
X88123Y67125D01*
X86724Y67500D01*
D02*
G37*
G36*
X179724Y43500D02*
X178276D01*
X176877Y43125D01*
X175623Y42401D01*
X174599Y41377D01*
X173875Y40123D01*
X173500Y38724D01*
Y37276D01*
X173875Y35877D01*
X174599Y34623D01*
X175623Y33599D01*
X175704Y33552D01*
X175214Y32369D01*
X174724Y32500D01*
X173276D01*
X171877Y32125D01*
X170623Y31401D01*
X169599Y30377D01*
X168875Y29123D01*
X168500Y27724D01*
Y26276D01*
X168875Y24877D01*
X169599Y23623D01*
X170623Y22599D01*
X171877Y21875D01*
X173276Y21500D01*
X174724D01*
X176123Y21875D01*
X177377Y22599D01*
X178231Y23453D01*
X179000Y23548D01*
X179769Y23453D01*
X180623Y22599D01*
X181877Y21875D01*
X183276Y21500D01*
X184724D01*
X186123Y21875D01*
X187377Y22599D01*
X188401Y23623D01*
X189125Y24877D01*
X189500Y26276D01*
Y27724D01*
X189125Y29123D01*
X188401Y30377D01*
X187377Y31401D01*
X186123Y32125D01*
X184724Y32500D01*
X183276D01*
X182787Y32369D01*
X182296Y33552D01*
X182377Y33599D01*
X183401Y34623D01*
X184125Y35877D01*
X184500Y37276D01*
Y38724D01*
X184125Y40123D01*
X183401Y41377D01*
X182377Y42401D01*
X181123Y43125D01*
X179724Y43500D01*
D02*
G37*
G36*
X227724Y34500D02*
X226276D01*
X224877Y34125D01*
X223623Y33401D01*
X222599Y32377D01*
X221875Y31123D01*
X221500Y29724D01*
Y28276D01*
X221875Y26877D01*
X222599Y25623D01*
X223623Y24599D01*
X224877Y23875D01*
X226276Y23500D01*
X227724D01*
X229123Y23875D01*
X230377Y24599D01*
X231401Y25623D01*
X232125Y26877D01*
X232500Y28276D01*
Y29724D01*
X232125Y31123D01*
X231401Y32377D01*
X230377Y33401D01*
X229123Y34125D01*
X227724Y34500D01*
D02*
G37*
G36*
X341724Y32500D02*
X340276D01*
X338877Y32125D01*
X337623Y31401D01*
X336599Y30377D01*
X335875Y29123D01*
X335500Y27724D01*
Y26276D01*
X335875Y24877D01*
X336599Y23623D01*
X337623Y22599D01*
X338877Y21875D01*
X340276Y21500D01*
X341724D01*
X343123Y21875D01*
X344377Y22599D01*
X345401Y23623D01*
X346125Y24877D01*
X346500Y26276D01*
Y27724D01*
X346125Y29123D01*
X345401Y30377D01*
X344377Y31401D01*
X343123Y32125D01*
X341724Y32500D01*
D02*
G37*
G36*
X384724Y31500D02*
X383276D01*
X381877Y31125D01*
X380623Y30401D01*
X379599Y29377D01*
X378875Y28123D01*
X378500Y26724D01*
Y25276D01*
X378875Y23877D01*
X379599Y22623D01*
X380623Y21599D01*
X381877Y20875D01*
X383276Y20500D01*
X384724D01*
X386123Y20875D01*
X387377Y21599D01*
X388401Y22623D01*
X389125Y23877D01*
X389500Y25276D01*
Y26724D01*
X389125Y28123D01*
X388401Y29377D01*
X387377Y30401D01*
X386123Y31125D01*
X384724Y31500D01*
D02*
G37*
G36*
X329724Y18500D02*
X328276D01*
X326877Y18125D01*
X325623Y17401D01*
X324599Y16377D01*
X323875Y15123D01*
X323500Y13724D01*
Y12276D01*
X323875Y10877D01*
X324599Y9623D01*
X325623Y8599D01*
X326877Y7875D01*
X328276Y7500D01*
X329724D01*
X331123Y7875D01*
X332377Y8599D01*
X333401Y9623D01*
X334125Y10877D01*
X334500Y12276D01*
Y13724D01*
X334125Y15123D01*
X333401Y16377D01*
X332377Y17401D01*
X331123Y18125D01*
X329724Y18500D01*
D02*
G37*
%LPD*%
D11*
X222500Y173000D02*
X223172Y173672D01*
X233172D01*
X204000Y173000D02*
X222500D01*
X191000Y160000D02*
X204000Y173000D01*
X227460Y115000D02*
X239460Y127000D01*
Y157803D02*
X248000Y166343D01*
X239460Y127000D02*
Y157803D01*
X359611Y183611D02*
X360389D01*
X356000Y187222D02*
Y229000D01*
X364000Y172000D02*
Y180000D01*
X360389Y183611D02*
X364000Y180000D01*
X356000Y187222D02*
X359611Y183611D01*
X356000Y229000D02*
X361000Y234000D01*
X398400Y385150D02*
X410390D01*
X410540Y385000D01*
X383750Y370500D02*
X398400Y385150D01*
X383500Y368500D02*
X383750Y368750D01*
Y370500D01*
X398235Y392235D02*
X403235D01*
X404000Y393000D01*
X378563Y372563D02*
X398235Y392235D01*
X400221Y184697D02*
X401303D01*
X397424Y187494D02*
X400221Y184697D01*
X388006Y187494D02*
X397424D01*
X388000Y187500D02*
X388006Y187494D01*
X301000Y330000D02*
X321000D01*
X301000Y346000D02*
X321000D01*
X288500D02*
X301000D01*
X288500Y330000D02*
X301000D01*
X321000D02*
X328000D01*
X279000Y327000D02*
X285500D01*
X288500Y330000D01*
X285500Y349000D02*
X288500Y346000D01*
X279000Y349000D02*
X285500D01*
X261000D02*
X279000D01*
X269000Y118586D02*
X297414Y147000D01*
X329000D01*
X381000Y95000D01*
X267985Y127065D02*
X291920Y151000D01*
X334000D01*
X246828Y194000D02*
X248000Y192828D01*
X234000Y194000D02*
X246828D01*
X248000Y166343D02*
Y192828D01*
X348795Y360750D02*
X349460Y360085D01*
X341250Y360750D02*
X348795D01*
X341000Y361000D02*
X341250Y360750D01*
X210000Y315510D02*
X210510Y315000D01*
X210000Y315510D02*
Y321500D01*
X209500Y322000D02*
X210000Y321500D01*
X150000Y270000D02*
X177000Y297000D01*
X265000D01*
X279000Y311000D01*
X150000Y270000D02*
Y270000D01*
X113000Y260000D02*
X151000D01*
X172000Y281000D02*
X292000D01*
X151000Y260000D02*
X172000Y281000D01*
X325000Y307000D02*
X340922Y322922D01*
X318000Y307000D02*
X325000D01*
X292000Y281000D02*
X318000Y307000D01*
X96500Y252000D02*
X105000D01*
X113000Y260000D01*
X407207Y360793D02*
X409000Y359000D01*
X401225Y360793D02*
X407207D01*
X400460Y361558D02*
X401225Y360793D01*
X340922Y322922D02*
Y325922D01*
X341000Y326000D01*
X233172Y173672D02*
X234000Y174500D01*
X15000Y175000D02*
Y190000D01*
X22000Y197000D01*
X334000Y151000D02*
X390000Y95000D01*
X381000Y69000D02*
Y95000D01*
Y69000D02*
X390000Y60000D01*
X208000Y181000D02*
X234000D01*
X324000D02*
X339000D01*
X348000Y172000D01*
Y98000D02*
Y100000D01*
X167000Y325000D02*
Y325172D01*
X172000Y330172D02*
Y338000D01*
X167000Y325172D02*
X172000Y330172D01*
X164918Y347918D02*
X167000Y350000D01*
X162000Y338000D02*
Y339082D01*
X164918Y342000D02*
Y347918D01*
X162000Y339082D02*
X164918Y342000D01*
X384000Y331651D02*
Y353500D01*
X383967Y328883D02*
Y331618D01*
X383202Y328118D02*
X383967Y328883D01*
Y331618D02*
X384000Y331651D01*
X373500Y373500D02*
X388000Y388000D01*
Y394000D01*
X378000Y385000D02*
Y394000D01*
X368500Y368500D02*
Y375500D01*
X378000Y385000D01*
X363500Y368500D02*
Y379960D01*
X367540Y384000D01*
X361000Y383222D02*
Y388867D01*
X366133Y394000D01*
X378563Y368563D02*
Y372563D01*
X378500Y368500D02*
X378563Y368563D01*
X373500Y368500D02*
Y373500D01*
X322382Y344618D02*
X330311D01*
X333929Y341000D01*
X321000Y346000D02*
X322382Y344618D01*
X333929Y341000D02*
X341000D01*
X121000Y203000D02*
X141000D01*
X113500D02*
X121000D01*
X103000Y199000D02*
Y203000D01*
X330000Y368000D02*
X330765Y367235D01*
Y362906D02*
X337672Y356000D01*
X330765Y362906D02*
Y367235D01*
X384000Y353500D02*
X386500Y356000D01*
X391000D01*
X358500Y368500D02*
Y380722D01*
X361000Y383222D01*
X92231Y185000D02*
Y186257D01*
X101933Y193933D02*
X103000Y195000D01*
X95974Y190000D02*
X99907Y193933D01*
X95230Y189256D02*
Y190339D01*
X92231Y186257D02*
X95230Y189256D01*
X99907Y193933D02*
X101933D01*
X95000Y190000D02*
X95974D01*
X51206Y238340D02*
X51546Y238000D01*
X6122Y238340D02*
X51206D01*
X287000Y396000D02*
X310000D01*
X279000Y388000D02*
X287000Y396000D01*
X319000Y387000D02*
X336000D01*
X310000Y396000D02*
X319000Y387000D01*
X336000D02*
X337000Y388000D01*
X345000Y396000D02*
X353000Y388000D01*
X328216Y394000D02*
X330215Y396000D01*
X345000D01*
X327133Y394000D02*
X328216D01*
X51546Y238000D02*
X68000D01*
X337000Y351000D02*
X341000D01*
X323074Y364926D02*
X337000Y351000D01*
X321074Y364926D02*
X323074D01*
X318000Y368000D02*
X321074Y364926D01*
X102000Y164000D02*
X112000D01*
X121000Y173000D02*
Y187000D01*
X112000Y164000D02*
X121000Y173000D01*
X92231Y185000D02*
X93000D01*
X80000D02*
X92231D01*
X68000Y197000D02*
X80000Y185000D01*
X93000Y173000D02*
Y185000D01*
Y173000D02*
X102000Y164000D01*
X68000Y203500D02*
Y238000D01*
X72000Y242000D01*
X22000Y197000D02*
X68000D01*
X68000Y203500D02*
X68000Y203500D01*
Y197000D02*
Y203500D01*
X121000Y187000D02*
X141000D01*
X271500Y372500D02*
X279000Y365000D01*
X267000Y373000D02*
X267500Y372500D01*
X271500D01*
X72000Y242000D02*
Y252000D01*
Y242000D02*
X72000Y242000D01*
X399061Y353040D02*
X399846D01*
X391000Y351000D02*
X397021D01*
X399061Y353040D01*
X320500Y98000D02*
X327000D01*
X320500Y98000D02*
X320500Y98000D01*
X317000Y98000D02*
X320500D01*
X327000Y98000D02*
X348000D01*
X193000Y387000D02*
X241000D01*
X84000Y217000D02*
X94000Y227000D01*
X101000D01*
X84000Y217000D02*
X84000D01*
X84000Y203500D02*
X84000Y203500D01*
X84000Y203500D02*
Y217000D01*
X84000Y197000D02*
Y203500D01*
Y197000D02*
X90000Y203000D01*
X103000D01*
X107000D02*
X113500D01*
X109500Y199000D02*
X113500Y203000D01*
X107000Y199000D02*
X109500D01*
X102000Y186500D02*
X107000Y191500D01*
Y195000D01*
X102000Y180000D02*
Y186500D01*
X261000Y327000D02*
X279000D01*
X256000Y24000D02*
Y34000D01*
X88000Y252000D02*
X96500D01*
X96000Y243000D02*
Y251500D01*
X96500Y252000D01*
X88000Y243000D02*
Y252000D01*
X121000D02*
X130000D01*
X138000Y244000D01*
Y224000D02*
Y244000D01*
X125500Y227000D02*
X128500Y224000D01*
X138000D01*
X119000Y227000D02*
X125500D01*
X348500Y368500D02*
Y376500D01*
X337000Y388000D02*
X348500Y376500D01*
X353500Y368500D02*
Y381000D01*
X353000Y381500D02*
X353500Y381000D01*
X353000Y381500D02*
Y388000D01*
X337672Y356000D02*
X341000D01*
X328000Y330000D02*
X334000Y336000D01*
X341000D01*
D13*
X388000Y224000D02*
D03*
Y232000D02*
D03*
Y168000D02*
D03*
Y176000D02*
D03*
D14*
Y182500D02*
D03*
Y187500D02*
D03*
Y217500D02*
D03*
Y212500D02*
D03*
Y207500D02*
D03*
Y202500D02*
D03*
Y197500D02*
D03*
Y192500D02*
D03*
D15*
X155000Y388000D02*
D03*
X139000Y388000D02*
D03*
X390000Y95000D02*
D03*
X406000D02*
D03*
X390000Y60000D02*
D03*
X406000D02*
D03*
X353000Y388000D02*
D03*
X337000D02*
D03*
X272000Y13000D02*
D03*
X256000D02*
D03*
X441000Y358000D02*
D03*
X425000D02*
D03*
X441000Y337000D02*
D03*
X425000D02*
D03*
X441000Y315000D02*
D03*
X425000D02*
D03*
X441000Y293000D02*
D03*
X425000D02*
D03*
X172000Y49000D02*
D03*
X156000D02*
D03*
X30000Y70000D02*
D03*
X46000D02*
D03*
X261000Y327000D02*
D03*
X245000D02*
D03*
X261000Y349000D02*
D03*
X245000D02*
D03*
X167000Y350000D02*
D03*
X151000D02*
D03*
X167000Y325000D02*
D03*
X151000D02*
D03*
X271000Y255000D02*
D03*
X287000D02*
D03*
X271000Y234000D02*
D03*
X287000D02*
D03*
X348000Y213000D02*
D03*
X364000D02*
D03*
X348000Y192000D02*
D03*
X364000D02*
D03*
X121000Y252000D02*
D03*
X105000D02*
D03*
X272000Y34000D02*
D03*
X256000D02*
D03*
X279000Y388000D02*
D03*
X263000D02*
D03*
X302000D02*
D03*
X318000D02*
D03*
X302000Y307000D02*
D03*
X318000D02*
D03*
X302000Y368000D02*
D03*
X318000D02*
D03*
X87000Y252000D02*
D03*
X71000D02*
D03*
X139000Y244000D02*
D03*
X155000D02*
D03*
X139000Y224000D02*
D03*
X155000D02*
D03*
X85000Y195000D02*
D03*
X69000D02*
D03*
X85000Y215000D02*
D03*
X69000D02*
D03*
X348000Y172000D02*
D03*
X364000D02*
D03*
X207000Y160000D02*
D03*
X191000D02*
D03*
X348000Y153000D02*
D03*
X364000D02*
D03*
D16*
X136000Y132000D02*
D03*
Y118000D02*
D03*
D17*
X103000Y203000D02*
D03*
D18*
Y199000D02*
D03*
X107000Y203000D02*
D03*
Y199000D02*
D03*
X103000Y195000D02*
D03*
X107000D02*
D03*
D19*
X136000Y100000D02*
D03*
Y74600D02*
D03*
Y49200D02*
D03*
X71000D02*
D03*
Y74600D02*
D03*
Y100000D02*
D03*
X217000Y338000D02*
D03*
D20*
X326000Y260000D02*
D03*
Y276000D02*
D03*
X159000Y84000D02*
D03*
Y100000D02*
D03*
X436000Y260000D02*
D03*
Y276000D02*
D03*
X414000Y260000D02*
D03*
Y276000D02*
D03*
X392000Y260000D02*
D03*
Y276000D02*
D03*
X370000Y260000D02*
D03*
Y276000D02*
D03*
X348000Y260000D02*
D03*
Y276000D02*
D03*
X304000Y260000D02*
D03*
Y276000D02*
D03*
X133000Y334000D02*
D03*
Y350000D02*
D03*
X110000Y300000D02*
D03*
Y316000D02*
D03*
X185000Y346000D02*
D03*
Y330000D02*
D03*
X133000Y316000D02*
D03*
Y300000D02*
D03*
X348000Y114000D02*
D03*
Y98000D02*
D03*
X327000Y114000D02*
D03*
Y98000D02*
D03*
X321000Y346000D02*
D03*
Y330000D02*
D03*
X301000Y346000D02*
D03*
Y330000D02*
D03*
X409000Y359000D02*
D03*
Y375000D02*
D03*
X211000Y289000D02*
D03*
Y305000D02*
D03*
X231000Y289000D02*
D03*
Y305000D02*
D03*
X110000Y334000D02*
D03*
Y350000D02*
D03*
X279000Y349000D02*
D03*
Y365000D02*
D03*
Y327000D02*
D03*
Y311000D02*
D03*
X201000Y386000D02*
D03*
Y370000D02*
D03*
X221000Y386000D02*
D03*
Y370000D02*
D03*
X241000Y386000D02*
D03*
Y370000D02*
D03*
X102000Y164000D02*
D03*
Y180000D02*
D03*
X121000Y203000D02*
D03*
Y187000D02*
D03*
X141000Y203000D02*
D03*
Y187000D02*
D03*
X208000Y197000D02*
D03*
X208000Y181000D02*
D03*
D21*
X341000Y326000D02*
D03*
Y331000D02*
D03*
Y336000D02*
D03*
Y341000D02*
D03*
Y346000D02*
D03*
Y351000D02*
D03*
Y356000D02*
D03*
Y361000D02*
D03*
X391000D02*
D03*
Y356000D02*
D03*
Y351000D02*
D03*
Y346000D02*
D03*
Y341000D02*
D03*
Y336000D02*
D03*
Y331000D02*
D03*
Y326000D02*
D03*
D22*
X348500Y368500D02*
D03*
X353500D02*
D03*
X358500D02*
D03*
X363500D02*
D03*
X368500D02*
D03*
X373500D02*
D03*
X378500D02*
D03*
X383500D02*
D03*
X383500Y318500D02*
D03*
X378500D02*
D03*
X373500D02*
D03*
X368500D02*
D03*
X363500D02*
D03*
X358500D02*
D03*
X353500D02*
D03*
X348500D02*
D03*
D23*
X366000Y343500D02*
D03*
D24*
X209500Y354000D02*
D03*
X214500D02*
D03*
X219500D02*
D03*
X224500D02*
D03*
Y322000D02*
D03*
X219500D02*
D03*
X214500D02*
D03*
X209500D02*
D03*
D25*
X233000Y345500D02*
D03*
Y340500D02*
D03*
Y335500D02*
D03*
Y330500D02*
D03*
X201000Y335500D02*
D03*
Y330500D02*
D03*
Y340500D02*
D03*
Y345500D02*
D03*
D26*
X79000Y300000D02*
D03*
Y334000D02*
D03*
D27*
X45000Y175000D02*
D03*
X15000D02*
D03*
Y225000D02*
D03*
X45000D02*
D03*
D28*
X120000Y227000D02*
D03*
X102000D02*
D03*
D29*
X30000Y150000D02*
D03*
Y50000D02*
D03*
Y350000D02*
D03*
Y250000D02*
D03*
D30*
Y100000D02*
D03*
Y300000D02*
D03*
D31*
X324000Y168000D02*
D03*
Y174500D02*
D03*
Y181000D02*
D03*
Y187500D02*
D03*
Y194000D02*
D03*
Y200500D02*
D03*
Y207000D02*
D03*
Y213500D02*
D03*
X234000D02*
D03*
Y207000D02*
D03*
Y200500D02*
D03*
Y194000D02*
D03*
Y187500D02*
D03*
Y181000D02*
D03*
Y174500D02*
D03*
Y168000D02*
D03*
D63*
X133000Y325000D02*
Y334000D01*
Y316000D02*
Y325000D01*
X133000Y325000D02*
X151000D01*
X133000Y325000D02*
X133000Y325000D01*
X115000Y74000D02*
Y127000D01*
X136000Y100000D02*
X159000D01*
X136000Y100000D02*
Y118000D01*
Y100000D02*
X136000Y100000D01*
X115000Y74000D02*
X127000Y62000D01*
X169000D01*
X441000Y348000D02*
Y358000D01*
X199541Y305000D02*
X219500D01*
X198000Y304000D02*
X198541D01*
X199541Y305000D01*
X409000Y151000D02*
Y176000D01*
Y218663D01*
X388000Y176000D02*
X409000D01*
Y151000D02*
X430000Y130000D01*
X403663Y224000D02*
Y228663D01*
X404000Y229000D01*
X403663Y224000D02*
X409000Y218663D01*
X388000Y224000D02*
X403663D01*
X44000Y223000D02*
Y224000D01*
X42000Y221000D02*
X44000Y223000D01*
X136200Y49000D02*
X156000D01*
X136000Y49200D02*
X136200Y49000D01*
X58800Y57200D02*
X63000D01*
X46000Y70000D02*
X58800Y57200D01*
X63000D02*
X71000Y49200D01*
X30000Y50000D02*
Y70000D01*
X441096Y285596D02*
X441193Y285500D01*
X441096Y285596D02*
Y291904D01*
X441000Y292000D02*
X441096Y291904D01*
X441000Y306000D02*
Y314000D01*
Y329000D02*
Y336000D01*
X392000Y259000D02*
Y260000D01*
X391000Y259000D02*
X392000D01*
X370000D02*
Y260000D01*
X348000Y259000D02*
Y260000D01*
X110000Y316000D02*
Y334000D01*
X67000Y175000D02*
X115000Y127000D01*
X44000Y224000D02*
X45000Y225000D01*
X219500Y305000D02*
X231000D01*
X406000Y60000D02*
X430000D01*
X406000Y95000D02*
X430000D01*
X45000Y175000D02*
X67000D01*
X30000Y300000D02*
X79000D01*
X111000D01*
X134000D01*
D64*
X234000Y200500D02*
X260500D01*
X234000Y207000D02*
X257808D01*
X260002Y209194D01*
Y215538D01*
X260500Y200500D02*
X269875Y209875D01*
Y215538D01*
X269877Y215540D01*
X260000D02*
X260002Y215538D01*
X300479Y208521D02*
Y220521D01*
Y208521D02*
X308500Y200500D01*
X339500D01*
X311192Y207000D02*
X342000D01*
X306979Y211213D02*
X311192Y207000D01*
X287000Y255000D02*
X306979Y235021D01*
Y211213D02*
Y235021D01*
X287000Y234000D02*
X300479Y220521D01*
X339500Y200500D02*
X348000Y192000D01*
X342000Y207000D02*
X348000Y213000D01*
X269877Y215540D02*
X271000D01*
X270438Y216102D02*
Y233438D01*
Y216102D02*
X271000Y215540D01*
X270438Y233438D02*
X271000Y234000D01*
X260000Y244000D02*
X271000Y255000D01*
X260000Y216540D02*
Y244000D01*
D65*
X396243Y197500D02*
X398000Y199257D01*
X388000Y197500D02*
X396243D01*
X369500Y207500D02*
X396243D01*
X398000Y205743D01*
Y199257D02*
Y205743D01*
X378250Y200743D02*
X380007Y202500D01*
X378250Y192500D02*
Y200743D01*
X380007Y202500D02*
X388000D01*
X364500Y192500D02*
X378250D01*
X265000Y27000D02*
X272000Y34000D01*
X168000Y84000D02*
X201000Y51000D01*
X159000Y84000D02*
X168000D01*
X201000Y51000D02*
X346000D01*
X413000Y346000D02*
X425000Y358000D01*
X391000Y346000D02*
X413000D01*
X221000Y370000D02*
Y371000D01*
Y368000D02*
Y370000D01*
Y364500D02*
Y368000D01*
X349406Y153406D02*
X353594D01*
X348500Y152500D02*
X349406Y153406D01*
X353594D02*
X354000Y153812D01*
X342854Y155883D02*
X345117D01*
X348500Y152500D01*
X333939Y164797D02*
X342854Y155883D01*
X332000Y168000D02*
X333939Y166061D01*
X324000Y168000D02*
X332000D01*
X333939Y164797D02*
Y166061D01*
X193000Y369000D02*
X193500Y369500D01*
X199500D02*
X201000Y371000D01*
X193500Y369500D02*
X199500D01*
X238117Y367117D02*
X240000Y369000D01*
X236117Y367117D02*
X238117D01*
X224500Y355500D02*
X236117Y367117D01*
X241000Y368000D02*
Y370000D01*
X377000Y148000D02*
Y168000D01*
X364000Y163000D02*
X377000D01*
X377000Y163000D01*
Y148000D02*
X395000Y130000D01*
X364000Y213000D02*
X369500Y207500D01*
X378250Y192500D02*
X378250Y192500D01*
X364000Y192000D02*
X364500Y192500D01*
X378250Y192500D02*
X378250D01*
X388000D01*
X207000Y160000D02*
X215000Y168000D01*
X234000D01*
X352500Y234000D02*
X361000D01*
X332000Y213500D02*
X352500Y234000D01*
X324000Y213500D02*
X332000D01*
X361000Y234000D02*
X380000D01*
X382000Y232000D01*
X388000D01*
X377000Y168000D02*
X388000D01*
X364000Y163000D02*
Y172000D01*
X342808Y163000D02*
X364000D01*
X364000Y163000D01*
Y153000D02*
Y163000D01*
X324000Y174500D02*
X334571D01*
X338939Y170132D01*
Y166868D02*
Y170132D01*
Y166868D02*
X342808Y163000D01*
X224500Y354000D02*
Y355500D01*
X324000Y296000D02*
X339000D01*
X304000Y276000D02*
X324000Y296000D01*
X326000Y276000D02*
X338000Y288000D01*
X343000D01*
X348000Y276000D02*
X368500Y296500D01*
Y318500D01*
X370000Y287000D02*
X373500Y290500D01*
X370000Y276000D02*
Y287000D01*
X373500Y290500D02*
Y318500D01*
X383500Y306500D02*
X414000Y276000D01*
X383500Y306500D02*
Y318500D01*
X378500Y289500D02*
Y318500D01*
Y289500D02*
X391000Y277000D01*
Y275000D02*
Y277000D01*
X391000Y311000D02*
X417500Y284500D01*
X426500D01*
X391000Y311000D02*
Y326000D01*
X431500Y279500D02*
X431959D01*
X436000Y275459D01*
X426500Y284500D02*
X431500Y279500D01*
X408000Y310000D02*
X425000Y293000D01*
X408000Y310000D02*
Y320000D01*
X326000Y259000D02*
Y260000D01*
X167000Y350000D02*
X173500Y356500D01*
X167000Y325000D02*
X173500Y318500D01*
X404000Y336000D02*
X425000Y315000D01*
X391000Y336000D02*
X404000D01*
X413000Y337000D02*
X425000D01*
X409000Y341000D02*
X413000Y337000D01*
X391000Y331000D02*
X397000D01*
X408000Y320000D01*
X245000Y24000D02*
X256000Y13000D01*
X363500Y308500D02*
Y318500D01*
X343000Y288000D02*
X363500Y308500D01*
X339000Y296000D02*
X353500Y310500D01*
Y318500D01*
X391000Y341000D02*
X409000D01*
X173500Y318500D02*
X195500D01*
X219500Y305000D02*
Y322000D01*
Y335500D01*
X238500Y347828D02*
X239672Y349000D01*
X233000Y345500D02*
X237328D01*
X239672Y349000D02*
X245000D01*
X238500Y346672D02*
Y347828D01*
X237328Y345500D02*
X238500Y346672D01*
X238672Y327000D02*
X245000D01*
X236328Y330500D02*
X237500Y329328D01*
X233000Y330500D02*
X236328D01*
X237500Y328172D02*
X238672Y327000D01*
X237500Y328172D02*
Y329328D01*
X233000Y330500D02*
Y335500D01*
Y330500D02*
X233000Y330500D01*
Y340500D02*
Y345500D01*
X274000Y22918D02*
Y24000D01*
X272000Y20918D02*
X274000Y22918D01*
X272000Y13000D02*
Y20918D01*
X201000Y371000D02*
X209500Y362500D01*
Y354000D02*
Y362500D01*
X219500Y363000D02*
X221000Y364500D01*
X219500Y354000D02*
Y363000D01*
X217000Y338000D02*
X219500Y335500D01*
X185000Y330000D02*
X190500Y335500D01*
X201000D01*
X190500Y340500D02*
X201000D01*
X185000Y346000D02*
X190500Y340500D01*
X195500Y318500D02*
X201000Y324000D01*
Y330500D01*
X195500Y356500D02*
X201000Y351000D01*
Y345500D02*
Y351000D01*
X173500Y356500D02*
X195500D01*
D66*
X388000Y217500D02*
X388400Y217100D01*
X399339D01*
X399979Y216460D01*
D67*
X378454Y356460D02*
Y356966D01*
X366000Y344006D02*
X378454Y356460D01*
X366000Y343500D02*
Y344006D01*
X151000Y350000D02*
Y358000D01*
X188000Y395000D02*
X248000D01*
X151000Y358000D02*
X188000Y395000D01*
X255000Y388000D02*
X263000D01*
X248000Y395000D02*
X255000Y388000D01*
X263000D02*
X273000Y378000D01*
X399460Y375000D02*
X409677D01*
X419410Y369268D02*
X420080Y368599D01*
X415408Y369268D02*
X419410D01*
X409677Y375000D02*
X415408Y369268D01*
X363500Y346000D02*
X366000Y343500D01*
X349000Y346000D02*
X363500D01*
X337000Y331000D02*
X341000D01*
Y346000D02*
X349000D01*
X335000D02*
X341000D01*
Y331000D02*
X347243D01*
X322000Y359000D02*
X335000Y346000D01*
X311000Y359000D02*
X322000D01*
X314000Y319000D02*
X325000D01*
X337000Y331000D01*
X302000Y368000D02*
X311000Y359000D01*
X302000Y368000D02*
Y378000D01*
Y388000D01*
X273000Y378000D02*
X302000D01*
Y307000D02*
X314000Y319000D01*
X347243Y331000D02*
X349000Y332757D01*
Y346000D01*
X391000Y366540D02*
X399460Y375000D01*
X391000Y361000D02*
Y366540D01*
X231000Y289000D02*
X284000D01*
X302000Y307000D01*
X211000Y289000D02*
X231000D01*
D68*
X133000Y350000D02*
X151000D01*
X110000D02*
X133000D01*
X79000D02*
X110000D01*
X311000Y375000D02*
X318000Y368000D01*
X30000Y100000D02*
X71000D01*
X45000Y350000D02*
X79000D01*
Y334000D02*
Y350000D01*
X45000Y350000D02*
X45000Y350000D01*
D69*
X394000Y157000D02*
D03*
Y243000D02*
D03*
X435000Y157000D02*
D03*
Y243000D02*
D03*
D70*
X430000Y95000D02*
D03*
Y60000D02*
D03*
X395000Y130000D02*
D03*
X430000D02*
D03*
D71*
X15000Y15000D02*
D03*
Y385000D02*
D03*
X435000Y15000D02*
D03*
Y385000D02*
D03*
D72*
X60000Y390000D02*
D03*
X40000Y370000D02*
D03*
Y390000D02*
D03*
X60000Y370000D02*
D03*
X124000Y87000D02*
D03*
X410540Y385000D02*
D03*
X404000Y393000D02*
D03*
X401303Y184697D02*
D03*
X162960Y173000D02*
D03*
X162000Y209000D02*
D03*
Y223000D02*
D03*
Y234000D02*
D03*
X269000Y118586D02*
D03*
X267985Y127065D02*
D03*
X255000Y159000D02*
D03*
Y167500D02*
D03*
Y182500D02*
D03*
Y192500D02*
D03*
X252000Y228000D02*
D03*
X265000Y27000D02*
D03*
X340000Y115000D02*
D03*
X169000Y62000D02*
D03*
X62000Y156000D02*
D03*
X227000Y29000D02*
D03*
X211000Y86000D02*
D03*
X399979Y216460D02*
D03*
X441000Y348000D02*
D03*
X200540Y62000D02*
D03*
X208914Y66913D02*
D03*
X378454Y356966D02*
D03*
X251875Y108876D02*
D03*
X254214Y100078D02*
D03*
X349460Y360085D02*
D03*
X351000Y329000D02*
D03*
X168000Y387000D02*
D03*
X176000Y368000D02*
D03*
X133000Y350000D02*
D03*
X69000Y385000D02*
D03*
X96000Y373000D02*
D03*
X179000Y56000D02*
D03*
X210510Y315000D02*
D03*
X198000Y304000D02*
D03*
X201000Y288000D02*
D03*
X400460Y361558D02*
D03*
X336769Y129982D02*
D03*
X334829Y120836D02*
D03*
X313000Y25000D02*
D03*
X313465Y34534D02*
D03*
X227460Y115000D02*
D03*
X78944Y224104D02*
D03*
X15000Y178000D02*
D03*
X153000Y131000D02*
D03*
Y142000D02*
D03*
Y152000D02*
D03*
X327342Y136040D02*
D03*
X271249Y244000D02*
D03*
X269877Y215540D02*
D03*
X260000D02*
D03*
X246000Y122000D02*
D03*
Y131000D02*
D03*
X319524Y139476D02*
D03*
X311000Y140000D02*
D03*
X302000D02*
D03*
X291150Y130651D02*
D03*
X377000Y219000D02*
D03*
X354000Y153812D02*
D03*
X305571Y260000D02*
D03*
X139000Y388000D02*
D03*
X193000Y369000D02*
D03*
X241000Y368000D02*
D03*
X86000Y62000D02*
D03*
X334000Y227000D02*
D03*
X361000Y234000D02*
D03*
X404000Y229000D02*
D03*
X420080Y368599D02*
D03*
X30000Y150000D02*
D03*
X15000D02*
D03*
X45000D02*
D03*
X15000Y50000D02*
D03*
X45000D02*
D03*
X30000D02*
D03*
Y350000D02*
D03*
X15000D02*
D03*
X45000D02*
D03*
X15000Y250000D02*
D03*
X45000D02*
D03*
X30000D02*
D03*
X42000Y221000D02*
D03*
X221000Y368000D02*
D03*
X348000Y100000D02*
D03*
X302000Y388000D02*
D03*
X441193Y285500D02*
D03*
X441000Y306000D02*
D03*
Y329000D02*
D03*
X414000Y259000D02*
D03*
X436000D02*
D03*
X392000Y260000D02*
D03*
X370000D02*
D03*
X348000D02*
D03*
X326000D02*
D03*
X150000Y270000D02*
D03*
X172000Y338000D02*
D03*
X162000D02*
D03*
X383202Y328118D02*
D03*
X367540Y384000D02*
D03*
X366133Y394000D02*
D03*
X318477Y41449D02*
D03*
X330000Y368000D02*
D03*
X224000Y124000D02*
D03*
X384000Y26000D02*
D03*
X341000Y27000D02*
D03*
X388000Y394000D02*
D03*
X378000D02*
D03*
X63000Y35000D02*
D03*
X121000Y203000D02*
D03*
X420000Y80000D02*
D03*
X410000Y110000D02*
D03*
Y50000D02*
D03*
Y30000D02*
D03*
X297000Y73000D02*
D03*
X95230Y190339D02*
D03*
X6122Y238340D02*
D03*
X327133Y394000D02*
D03*
X179000Y38000D02*
D03*
X283000Y21000D02*
D03*
X245000Y24000D02*
D03*
X329000Y13000D02*
D03*
X349000Y80000D02*
D03*
X346000Y51000D02*
D03*
X23000Y88000D02*
D03*
X22000Y120000D02*
D03*
X110000Y40000D02*
D03*
X40000Y201000D02*
D03*
X54000Y86000D02*
D03*
X145129Y24543D02*
D03*
X224000Y149000D02*
D03*
X372000Y133000D02*
D03*
X311000Y375000D02*
D03*
X79000Y233000D02*
D03*
X267000Y373000D02*
D03*
X399846Y353040D02*
D03*
X26000Y187000D02*
D03*
X317000Y88000D02*
D03*
Y98000D02*
D03*
X302000Y25000D02*
D03*
X274000Y24000D02*
D03*
X88000Y243000D02*
D03*
X96000D02*
D03*
X174000Y27000D02*
D03*
X184000D02*
D03*
X256000Y24000D02*
D03*
X211000Y387000D02*
D03*
X193000D02*
D03*
X230000D02*
D03*
M02*
