G04*
G04 #@! TF.GenerationSoftware,Altium Limited,Altium Designer,21.6.4 (81)*
G04*
G04 Layer_Physical_Order=5*
G04 Layer_Color=16440176*
%FSLAX44Y44*%
%MOMM*%
G71*
G04*
G04 #@! TF.SameCoordinates,D5C97574-E224-4ECB-8EF4-D48BC8F4BA3E*
G04*
G04*
G04 #@! TF.FilePolarity,Positive*
G04*
G01*
G75*
%ADD11C,0.2000*%
%ADD65C,0.3000*%
%ADD68C,0.5000*%
%ADD72C,0.6000*%
G36*
X136606Y394902D02*
X137360Y393632D01*
X137120Y393190D01*
X136877Y393125D01*
X135623Y392401D01*
X134599Y391377D01*
X133875Y390123D01*
X133500Y388724D01*
Y387276D01*
X133875Y385877D01*
X134599Y384623D01*
X135623Y383599D01*
X136877Y382875D01*
X138276Y382500D01*
X139724D01*
X141123Y382875D01*
X142377Y383599D01*
X143401Y384623D01*
X144125Y385877D01*
X144403Y386914D01*
X147941Y390452D01*
X295648D01*
X296623Y389182D01*
X296500Y388724D01*
Y387276D01*
X296875Y385877D01*
X297599Y384623D01*
X298623Y383599D01*
X299877Y382875D01*
X301276Y382500D01*
X302724D01*
X304123Y382875D01*
X305377Y383599D01*
X306401Y384623D01*
X307125Y385877D01*
X307500Y387276D01*
Y388724D01*
X307377Y389182D01*
X308352Y390452D01*
X313060D01*
X328819Y374692D01*
X328439Y373276D01*
X327877Y373125D01*
X326623Y372401D01*
X325599Y371377D01*
X324875Y370123D01*
X324500Y368724D01*
Y367276D01*
X324875Y365877D01*
X325599Y364623D01*
X326623Y363599D01*
X327877Y362875D01*
X329276Y362500D01*
X330724D01*
X331642Y362746D01*
X332912Y362001D01*
Y360000D01*
X161000D01*
X158000Y357000D01*
X5098D01*
Y369824D01*
X6218Y370422D01*
X6948Y369935D01*
X10041Y368653D01*
X13326Y368000D01*
X16674D01*
X19959Y368653D01*
X23052Y369935D01*
X25837Y371795D01*
X28205Y374163D01*
X30065Y376948D01*
X31347Y380041D01*
X32000Y383326D01*
Y386674D01*
X31347Y389959D01*
X30065Y393052D01*
X29578Y393782D01*
X30176Y394902D01*
X136606D01*
D02*
G37*
G36*
X397773Y394902D02*
X398546Y393895D01*
X398500Y393724D01*
Y392276D01*
X398875Y390877D01*
X399599Y389623D01*
X399922Y389300D01*
Y367959D01*
X399922Y367959D01*
X400232Y366398D01*
X401116Y365075D01*
X402922Y363270D01*
Y358913D01*
X401652Y358250D01*
X400570Y358540D01*
X399122D01*
X397723Y358165D01*
X396469Y357441D01*
X395445Y356417D01*
X394721Y355163D01*
X394346Y353764D01*
Y352316D01*
X394721Y350917D01*
X395445Y349663D01*
X396469Y348639D01*
X397723Y347915D01*
X399122Y347540D01*
X400570D01*
X401652Y347830D01*
X402922Y347167D01*
Y342689D01*
X376252Y316019D01*
X375078Y316505D01*
Y351294D01*
X376178Y351929D01*
X376331Y351841D01*
X377730Y351466D01*
X379178D01*
X380577Y351841D01*
X381831Y352565D01*
X382855Y353589D01*
X383579Y354843D01*
X383954Y356242D01*
Y357690D01*
X383579Y359089D01*
X382855Y360343D01*
X381831Y361367D01*
X380577Y362091D01*
X379178Y362466D01*
X377730D01*
X376331Y362091D01*
X376178Y362003D01*
X375078Y362638D01*
Y368311D01*
X390884Y384116D01*
X390884Y384116D01*
X391768Y385439D01*
X392078Y387000D01*
X392078Y387000D01*
Y390300D01*
X392401Y390623D01*
X393125Y391877D01*
X393500Y393276D01*
Y393632D01*
X394696Y394902D01*
X397773D01*
D02*
G37*
G36*
X195084Y292372D02*
X195798D01*
X196114Y291979D01*
X196440Y291102D01*
X196417Y291062D01*
X196196Y290774D01*
X196057Y290438D01*
X195875Y290123D01*
X195781Y289772D01*
X195642Y289436D01*
X195594Y289075D01*
X195500Y288724D01*
Y288360D01*
X195453Y288000D01*
Y272298D01*
X167077Y243923D01*
X166196Y242774D01*
X165642Y241436D01*
X165453Y240000D01*
Y103298D01*
X129702Y67547D01*
X86000D01*
X85640Y67500D01*
X85276D01*
X84925Y67406D01*
X84564Y67358D01*
X84228Y67219D01*
X83877Y67125D01*
X83562Y66943D01*
X83226Y66804D01*
X82938Y66583D01*
X82623Y66401D01*
X82366Y66144D01*
X82077Y65923D01*
X81856Y65634D01*
X81599Y65377D01*
X81417Y65062D01*
X81196Y64774D01*
X81057Y64438D01*
X80875Y64123D01*
X80781Y63772D01*
X80642Y63436D01*
X80594Y63075D01*
X80500Y62724D01*
Y62360D01*
X80453Y62000D01*
X80500Y61640D01*
Y61276D01*
X80594Y60925D01*
X80642Y60564D01*
X80781Y60228D01*
X80875Y59877D01*
X81057Y59562D01*
X81196Y59226D01*
X81417Y58938D01*
X81599Y58623D01*
X81856Y58366D01*
X82077Y58077D01*
X82366Y57856D01*
X82623Y57599D01*
X82938Y57417D01*
X83226Y57196D01*
X83562Y57057D01*
X83877Y56875D01*
X84228Y56781D01*
X84564Y56642D01*
X84925Y56594D01*
X85276Y56500D01*
X85640D01*
X86000Y56453D01*
X132000D01*
X133436Y56642D01*
X134774Y57196D01*
X135923Y58077D01*
X171748Y93903D01*
X172922Y93417D01*
Y68000D01*
X172922Y68000D01*
X173024Y67485D01*
X171889Y66683D01*
X171123Y67125D01*
X169724Y67500D01*
X168276D01*
X166877Y67125D01*
X165623Y66401D01*
X164599Y65377D01*
X163875Y64123D01*
X163500Y62724D01*
Y61276D01*
X163875Y59877D01*
X164599Y58623D01*
X165623Y57599D01*
X166877Y56875D01*
X168276Y56500D01*
X169724D01*
X171123Y56875D01*
X172377Y57599D01*
X173401Y58623D01*
X174125Y59877D01*
X174500Y61276D01*
Y62724D01*
X174422Y63014D01*
X175561Y63671D01*
X181922Y57311D01*
Y46000D01*
X181922Y46000D01*
X182232Y44439D01*
X182763Y43645D01*
X181871Y42693D01*
X181123Y43125D01*
X179724Y43500D01*
X178276D01*
X176877Y43125D01*
X175623Y42401D01*
X174599Y41377D01*
X173875Y40123D01*
X173500Y38724D01*
Y37276D01*
X173875Y35877D01*
X174599Y34623D01*
X175623Y33599D01*
X175704Y33552D01*
X175214Y32369D01*
X174724Y32500D01*
X173276D01*
X171877Y32125D01*
X170623Y31401D01*
X169599Y30377D01*
X168875Y29123D01*
X168500Y27724D01*
Y26276D01*
X168875Y24877D01*
X169599Y23623D01*
X170623Y22599D01*
X171877Y21875D01*
X173276Y21500D01*
X174724D01*
X176123Y21875D01*
X177377Y22599D01*
X178231Y23453D01*
X179000Y23548D01*
X179769Y23453D01*
X180623Y22599D01*
X181877Y21875D01*
X183276Y21500D01*
X184724D01*
X186123Y21875D01*
X187377Y22599D01*
X188401Y23623D01*
X189125Y24877D01*
X189500Y26276D01*
Y27724D01*
X189125Y29123D01*
X188401Y30377D01*
X187377Y31401D01*
X186123Y32125D01*
X184724Y32500D01*
X183276D01*
X182787Y32369D01*
X182296Y33552D01*
X182377Y33599D01*
X183401Y34623D01*
X184125Y35877D01*
X184500Y37276D01*
Y38724D01*
X184125Y40123D01*
X183868Y40568D01*
X184884Y41348D01*
X219961Y6271D01*
X219475Y5098D01*
X30176D01*
X29578Y6218D01*
X30065Y6948D01*
X31347Y10041D01*
X32000Y13326D01*
Y16674D01*
X31347Y19959D01*
X30065Y23052D01*
X28205Y25837D01*
X25837Y28205D01*
X23052Y30065D01*
X19959Y31347D01*
X16674Y32000D01*
X13326D01*
X10041Y31347D01*
X6948Y30065D01*
X6218Y29578D01*
X5098Y30176D01*
X5098Y250000D01*
X9500D01*
Y249276D01*
X9875Y247877D01*
X10599Y246623D01*
X11623Y245599D01*
X12877Y244875D01*
X14276Y244500D01*
X15724D01*
X17123Y244875D01*
X18377Y245599D01*
X19401Y246623D01*
X20125Y247877D01*
X20500Y249276D01*
Y250000D01*
X24500D01*
Y249276D01*
X24875Y247877D01*
X25599Y246623D01*
X26623Y245599D01*
X27877Y244875D01*
X29276Y244500D01*
X30724D01*
X32123Y244875D01*
X33377Y245599D01*
X34401Y246623D01*
X35125Y247877D01*
X35500Y249276D01*
Y250000D01*
X39500D01*
Y249276D01*
X39875Y247877D01*
X40599Y246623D01*
X41623Y245599D01*
X42877Y244875D01*
X44276Y244500D01*
X45724D01*
X47123Y244875D01*
X48377Y245599D01*
X49401Y246623D01*
X50125Y247877D01*
X50500Y249276D01*
Y250000D01*
X60000D01*
Y260000D01*
X76852D01*
X77338Y258827D01*
X75756Y257244D01*
X74761Y255756D01*
X74412Y254000D01*
Y239078D01*
X70000D01*
X70000Y239078D01*
X68439Y238768D01*
X67116Y237884D01*
X67116Y237884D01*
X48561Y219329D01*
X47422Y219986D01*
X47500Y220276D01*
Y221724D01*
X47125Y223123D01*
X46401Y224377D01*
X45377Y225401D01*
X44123Y226125D01*
X42724Y226500D01*
X41276D01*
X39877Y226125D01*
X38623Y225401D01*
X37599Y224377D01*
X36875Y223123D01*
X36500Y221724D01*
Y220276D01*
X36875Y218877D01*
X37599Y217623D01*
X38623Y216599D01*
X39877Y215875D01*
X41276Y215500D01*
X42724D01*
X43014Y215578D01*
X43671Y214439D01*
X40004Y210772D01*
X39821Y210497D01*
X39579Y210272D01*
X39383Y209842D01*
X39120Y209449D01*
X39056Y209125D01*
X38919Y208824D01*
X38902Y208352D01*
X38810Y207888D01*
X38874Y207564D01*
X38863Y207234D01*
X39258Y204801D01*
X39330Y204607D01*
X39344Y204400D01*
X39602Y203877D01*
X39609Y203840D01*
X39626Y203815D01*
X39815Y203310D01*
X39956Y203158D01*
X40048Y202973D01*
X40389Y202673D01*
X40493Y202517D01*
X41138Y201873D01*
X41325Y201549D01*
X41422Y201187D01*
Y200813D01*
X41325Y200451D01*
X41138Y200127D01*
X40873Y199862D01*
X40549Y199675D01*
X40187Y199578D01*
X39813D01*
X39451Y199675D01*
X39127Y199862D01*
X38483Y200507D01*
X38327Y200611D01*
X38028Y200952D01*
X37842Y201044D01*
X37690Y201185D01*
X37185Y201374D01*
X37160Y201391D01*
X37123Y201398D01*
X36600Y201656D01*
X36393Y201670D01*
X36199Y201742D01*
X33766Y202137D01*
X33436Y202126D01*
X33112Y202190D01*
X32648Y202098D01*
X32176Y202081D01*
X31875Y201944D01*
X31551Y201880D01*
X31158Y201617D01*
X30728Y201421D01*
X30503Y201179D01*
X30228Y200996D01*
X19616Y190384D01*
X18732Y189061D01*
X18422Y187500D01*
X18422Y187500D01*
X18422Y155842D01*
X17152Y155109D01*
X17123Y155125D01*
X15724Y155500D01*
X14276D01*
X12877Y155125D01*
X11623Y154401D01*
X10599Y153377D01*
X9875Y152123D01*
X9500Y150724D01*
Y149276D01*
X9875Y147877D01*
X10599Y146623D01*
X11623Y145599D01*
X12877Y144875D01*
X14276Y144500D01*
X15724D01*
X17123Y144875D01*
X17152Y144891D01*
X18422Y144158D01*
Y128000D01*
X18732Y126439D01*
X19616Y125116D01*
X20939Y124232D01*
X22500Y123922D01*
X156000D01*
X157561Y124232D01*
X158884Y125116D01*
X159768Y126439D01*
X160078Y128000D01*
Y235000D01*
X159768Y236561D01*
X158884Y237884D01*
X157561Y238768D01*
X156000Y239078D01*
X101553D01*
X100820Y240348D01*
X101125Y240877D01*
X101500Y242276D01*
Y243724D01*
X101125Y245123D01*
X100401Y246377D01*
X99377Y247401D01*
X98123Y248125D01*
X96724Y248500D01*
X95276D01*
X93877Y248125D01*
X92623Y247401D01*
X92000Y246778D01*
X91377Y247401D01*
X90123Y248125D01*
X88724Y248500D01*
X87276D01*
X85877Y248125D01*
X84858Y247537D01*
X84060Y247815D01*
X83588Y248162D01*
Y252099D01*
X87900Y256412D01*
X130000D01*
X131756Y256761D01*
X133244Y257756D01*
X167901Y292412D01*
X194883D01*
X195084Y292372D01*
D02*
G37*
G36*
X422912Y245500D02*
Y240500D01*
X423261Y238744D01*
X424256Y237256D01*
X425744Y236261D01*
X427500Y235912D01*
X442500D01*
X442902Y235992D01*
X444902Y234471D01*
X444902Y165529D01*
X442902Y164008D01*
X442500Y164088D01*
X427500D01*
X425744Y163739D01*
X424256Y162744D01*
X423261Y161256D01*
X422912Y159500D01*
Y158700D01*
X406088D01*
Y159500D01*
X405739Y161256D01*
X404744Y162744D01*
X403256Y163739D01*
X401500Y164088D01*
X386500D01*
X384744Y163739D01*
X383256Y162744D01*
X382261Y161256D01*
X381912Y159500D01*
Y158700D01*
X356534D01*
X356123Y158937D01*
X354724Y159312D01*
X353276D01*
X351877Y158937D01*
X351466Y158700D01*
X310000D01*
Y182574D01*
X310000Y247500D01*
X380271D01*
X381912Y245500D01*
Y240500D01*
X382261Y238744D01*
X383256Y237256D01*
X384744Y236261D01*
X386500Y235912D01*
X401170D01*
X401344Y235473D01*
X401527Y233923D01*
X400623Y233401D01*
X399599Y232377D01*
X398875Y231123D01*
X398500Y229724D01*
Y228276D01*
X398875Y226877D01*
X399599Y225623D01*
X400623Y224599D01*
X401877Y223875D01*
X403276Y223500D01*
X404724D01*
X406123Y223875D01*
X407377Y224599D01*
X408401Y225623D01*
X409125Y226877D01*
X409500Y228276D01*
Y229724D01*
X409125Y231123D01*
X408401Y232377D01*
X407377Y233401D01*
X406123Y234125D01*
X404724Y234500D01*
X403946D01*
X403837Y234777D01*
X403613Y236500D01*
X404744Y237256D01*
X405739Y238744D01*
X406088Y240500D01*
Y245500D01*
X407729Y247500D01*
X421270D01*
X422912Y245500D01*
D02*
G37*
G36*
X265918Y245354D02*
X265749Y244724D01*
Y243276D01*
X266124Y241877D01*
X266848Y240623D01*
X267872Y239599D01*
X269126Y238875D01*
X270525Y238500D01*
X270981D01*
X272339Y237143D01*
Y221884D01*
X271068Y220915D01*
X270601Y221040D01*
X269153D01*
X267754Y220665D01*
X266500Y219941D01*
X265724Y219165D01*
X264938Y219018D01*
X264153Y219165D01*
X263377Y219941D01*
X262123Y220665D01*
X260724Y221040D01*
X259276D01*
X257877Y220665D01*
X256623Y219941D01*
X255599Y218917D01*
X254875Y217663D01*
X254500Y216264D01*
Y214816D01*
X254875Y213417D01*
X255599Y212163D01*
X256623Y211139D01*
X257877Y210415D01*
X258360Y210285D01*
Y144128D01*
X252952Y138719D01*
X252068Y137396D01*
X251757Y135836D01*
X251757Y135835D01*
Y134568D01*
X250487Y134228D01*
X250401Y134377D01*
X249377Y135401D01*
X248123Y136125D01*
X246724Y136500D01*
X245276D01*
X244348Y136251D01*
X243078Y136991D01*
Y224311D01*
X264779Y246011D01*
X265918Y245354D01*
D02*
G37*
G36*
X156000Y128000D02*
X22500D01*
X22500Y187500D01*
X33112Y198112D01*
X35545Y197717D01*
X35599Y197623D01*
X36623Y196599D01*
X37877Y195875D01*
X39276Y195500D01*
X40724D01*
X42123Y195875D01*
X43377Y196599D01*
X44401Y197623D01*
X45125Y198877D01*
X45500Y200276D01*
Y201724D01*
X45125Y203123D01*
X44401Y204377D01*
X43377Y205401D01*
X43284Y205455D01*
X42888Y207888D01*
X70000Y235000D01*
X156000D01*
Y128000D01*
D02*
G37*
G36*
X229922Y225495D02*
Y121344D01*
X228652Y120375D01*
X228184Y120500D01*
X226736D01*
X225337Y120125D01*
X224083Y119401D01*
X223059Y118377D01*
X222335Y117123D01*
X221078Y117341D01*
Y218311D01*
X228748Y225981D01*
X229922Y225495D01*
D02*
G37*
G36*
X310000Y150000D02*
X350034D01*
X350623Y149411D01*
X351877Y148687D01*
X353276Y148312D01*
X354724D01*
X356123Y148687D01*
X357377Y149411D01*
X357966Y150000D01*
X386057D01*
X386500Y149912D01*
X401500D01*
X401943Y150000D01*
X427057D01*
X427500Y149912D01*
X442500D01*
X442943Y150000D01*
X444902D01*
Y30176D01*
X443782Y29578D01*
X443052Y30065D01*
X439959Y31347D01*
X436674Y32000D01*
X433326D01*
X430041Y31347D01*
X426948Y30065D01*
X424163Y28205D01*
X421795Y25837D01*
X419935Y23052D01*
X418653Y19959D01*
X418000Y16674D01*
Y13326D01*
X418653Y10041D01*
X419935Y6948D01*
X420422Y6218D01*
X419824Y5098D01*
X328353D01*
X327867Y6271D01*
X329096Y7500D01*
X329724D01*
X331123Y7875D01*
X332377Y8599D01*
X333401Y9623D01*
X334125Y10877D01*
X334500Y12276D01*
Y13724D01*
X334375Y14192D01*
X335344Y15462D01*
X342789D01*
X342789Y15462D01*
X344350Y15772D01*
X345673Y16656D01*
X350938Y21922D01*
X380300D01*
X380623Y21599D01*
X381877Y20875D01*
X383276Y20500D01*
X384724D01*
X386123Y20875D01*
X387377Y21599D01*
X388401Y22623D01*
X389125Y23877D01*
X389500Y25276D01*
Y26724D01*
X389125Y28123D01*
X388401Y29377D01*
X387377Y30401D01*
X386123Y31125D01*
X384724Y31500D01*
X383276D01*
X381877Y31125D01*
X380623Y30401D01*
X380300Y30078D01*
X349249D01*
X347688Y29768D01*
X347305Y29512D01*
X347237Y29490D01*
X345656Y29935D01*
X345401Y30377D01*
X344377Y31401D01*
X343123Y32125D01*
X341724Y32500D01*
X340276D01*
X338877Y32125D01*
X337623Y31401D01*
X337300Y31078D01*
X326000D01*
X326000Y31078D01*
X324439Y30768D01*
X323116Y29884D01*
X319633Y26401D01*
X318217Y26781D01*
X318125Y27123D01*
X317401Y28377D01*
X317013Y28765D01*
X316853Y30052D01*
X317098Y30389D01*
X317866Y31157D01*
X318591Y32411D01*
X318965Y33810D01*
Y35259D01*
X320035Y36172D01*
X320600Y36324D01*
X321855Y37048D01*
X322878Y38072D01*
X323603Y39326D01*
X323977Y40725D01*
Y42173D01*
X323603Y43572D01*
X322878Y44826D01*
X321855Y45850D01*
X320600Y46574D01*
X319202Y46949D01*
X318745D01*
X272810Y92884D01*
X271487Y93768D01*
X269926Y94078D01*
X269926Y94078D01*
X257361D01*
X257021Y95348D01*
X257591Y95677D01*
X258615Y96701D01*
X259339Y97956D01*
X259714Y99354D01*
Y99811D01*
X263719Y103816D01*
X263719Y103816D01*
X264604Y105139D01*
X264914Y106700D01*
Y113181D01*
X266184Y113861D01*
X266877Y113461D01*
X268276Y113086D01*
X269724D01*
X271068Y113446D01*
X271299Y113493D01*
X272339Y112892D01*
Y108583D01*
X272338Y108583D01*
X272649Y107022D01*
X273533Y105699D01*
X308656Y70576D01*
X308656Y70576D01*
X309979Y69692D01*
X311540Y69382D01*
X311540Y69382D01*
X351709D01*
X351709Y69382D01*
X353270Y69692D01*
X354593Y70576D01*
X358424Y74407D01*
X358424Y74407D01*
X359308Y75730D01*
X359618Y77291D01*
X359618Y77291D01*
Y111211D01*
X359618Y111211D01*
X359308Y112772D01*
X358424Y114095D01*
X358424Y114095D01*
X342269Y130250D01*
Y130707D01*
X341894Y132105D01*
X341170Y133359D01*
X340146Y134383D01*
X338891Y135108D01*
X337493Y135482D01*
X336045D01*
X334646Y135108D01*
X334001Y134735D01*
X333377Y135048D01*
X332842Y135533D01*
Y136764D01*
X332467Y138163D01*
X331743Y139417D01*
X330719Y140441D01*
X329465Y141165D01*
X328066Y141540D01*
X326618D01*
X325888Y141344D01*
X324649Y141599D01*
X323925Y142853D01*
X322901Y143877D01*
X321647Y144601D01*
X320248Y144976D01*
X318800D01*
X317401Y144601D01*
X316147Y143877D01*
X314626Y144152D01*
X314377Y144401D01*
X313123Y145125D01*
X311724Y145500D01*
X310276D01*
X308877Y145125D01*
X307623Y144401D01*
X307350Y144128D01*
X306500Y143455D01*
X305650Y144128D01*
X305377Y144401D01*
X304123Y145125D01*
X302724Y145500D01*
X301276D01*
X299877Y145125D01*
X298623Y144401D01*
X297599Y143377D01*
X296875Y142123D01*
X296500Y140724D01*
Y139276D01*
X296875Y137877D01*
X297599Y136623D01*
X298623Y135599D01*
X299877Y134875D01*
X301276Y134500D01*
X302724D01*
X304123Y134875D01*
X305377Y135599D01*
X305650Y135872D01*
X306500Y136545D01*
X307350Y135872D01*
X307623Y135599D01*
X308877Y134875D01*
X310276Y134500D01*
X311724D01*
X313123Y134875D01*
X314377Y135599D01*
X315898Y135324D01*
X316147Y135075D01*
X317401Y134351D01*
X318800Y133976D01*
X320248D01*
X320844Y134136D01*
X322012Y133950D01*
X322522Y133390D01*
X322941Y132663D01*
X323965Y131639D01*
X325219Y130915D01*
X326618Y130540D01*
X328066D01*
X329465Y130915D01*
X330109Y131287D01*
X330733Y130974D01*
X331269Y130490D01*
Y129258D01*
X331643Y127859D01*
X332137Y127004D01*
X332361Y126593D01*
X331761Y125416D01*
X331452Y125237D01*
X330428Y124213D01*
X329704Y122959D01*
X329329Y121560D01*
Y120112D01*
X329704Y118713D01*
X330428Y117459D01*
X331452Y116435D01*
X332706Y115711D01*
X334105Y115336D01*
X334500D01*
Y114276D01*
X334875Y112877D01*
X335599Y111623D01*
X336623Y110599D01*
X337877Y109875D01*
X339276Y109500D01*
X340724D01*
X342123Y109875D01*
X343377Y110599D01*
X344401Y111623D01*
X345125Y112877D01*
X345376Y113812D01*
X346680Y114304D01*
X351462Y109522D01*
Y86344D01*
X350192Y85375D01*
X349724Y85500D01*
X348276D01*
X346877Y85125D01*
X345623Y84401D01*
X345300Y84078D01*
X315689D01*
X285078Y114689D01*
Y127628D01*
X286348Y127968D01*
X286749Y127273D01*
X287773Y126249D01*
X289028Y125525D01*
X290426Y125150D01*
X291875D01*
X293273Y125525D01*
X294528Y126249D01*
X295552Y127273D01*
X296276Y128528D01*
X296651Y129926D01*
Y131375D01*
X296276Y132773D01*
X295552Y134028D01*
X294528Y135052D01*
X293273Y135776D01*
X291875Y136151D01*
X290426D01*
X289028Y135776D01*
X287773Y135052D01*
X286749Y134028D01*
X286348Y133333D01*
X285078Y133673D01*
Y150250D01*
X310000D01*
Y150000D01*
D02*
G37*
G36*
X222922Y78311D02*
Y32700D01*
X222599Y32377D01*
X222082Y31482D01*
X220686Y31082D01*
X198078Y53689D01*
Y55656D01*
X199348Y56625D01*
X199816Y56500D01*
X201264D01*
X202663Y56875D01*
X203917Y57599D01*
X204941Y58623D01*
X205665Y59877D01*
X205919Y60825D01*
X206432Y61391D01*
X207310Y61649D01*
X208190Y61413D01*
X209638D01*
X211037Y61788D01*
X212291Y62512D01*
X213315Y63536D01*
X214039Y64790D01*
X214414Y66189D01*
Y67637D01*
X214039Y69036D01*
X213315Y70290D01*
X212993Y70613D01*
Y78086D01*
X212993Y78086D01*
X212682Y79647D01*
X211798Y80970D01*
X211798Y80970D01*
X201078Y91689D01*
Y98495D01*
X202252Y98981D01*
X222922Y78311D01*
D02*
G37*
G36*
X296500Y24732D02*
Y24276D01*
X296875Y22877D01*
X297599Y21623D01*
X298623Y20599D01*
X299877Y19875D01*
X301276Y19500D01*
X302724D01*
X304123Y19875D01*
X305377Y20599D01*
X306401Y21623D01*
X306772Y22265D01*
X308228D01*
X308599Y21623D01*
X309623Y20599D01*
X310398Y20151D01*
X310786Y18878D01*
X310760Y18591D01*
X310361Y18078D01*
X288991D01*
X288251Y19348D01*
X288500Y20276D01*
Y21724D01*
X288125Y23123D01*
X287401Y24377D01*
X286377Y25401D01*
X285123Y26125D01*
X283724Y26500D01*
X282276D01*
X280877Y26125D01*
X280498Y25906D01*
X279150Y26119D01*
X278966Y26399D01*
X278401Y27377D01*
X277377Y28401D01*
X276123Y29125D01*
X274724Y29500D01*
X273276D01*
X271877Y29125D01*
X271498Y28906D01*
X270150Y29119D01*
X269966Y29399D01*
X269401Y30377D01*
X268377Y31401D01*
X267123Y32125D01*
X265724Y32500D01*
X264276D01*
X262877Y32125D01*
X261623Y31401D01*
X260599Y30377D01*
X259875Y29123D01*
X259500Y27724D01*
Y26276D01*
X259875Y24877D01*
X260599Y23623D01*
X261623Y22599D01*
X262877Y21875D01*
X264276Y21500D01*
X265724D01*
X267123Y21875D01*
X267502Y22094D01*
X268850Y21881D01*
X269034Y21601D01*
X269599Y20623D01*
X270623Y19599D01*
X271057Y19348D01*
X270717Y18078D01*
X248283D01*
X247943Y19348D01*
X248377Y19599D01*
X249401Y20623D01*
X250125Y21877D01*
X250500Y23276D01*
Y24724D01*
X250125Y26123D01*
X249401Y27377D01*
X249078Y27700D01*
Y69000D01*
X249078Y69000D01*
X248768Y70561D01*
X248551Y70885D01*
X249538Y71695D01*
X296500Y24732D01*
D02*
G37*
%LPC*%
G36*
X311724Y380500D02*
X310276D01*
X308877Y380125D01*
X307623Y379401D01*
X306599Y378377D01*
X305875Y377123D01*
X305500Y375724D01*
Y374276D01*
X305875Y372877D01*
X306599Y371623D01*
X307623Y370599D01*
X308877Y369875D01*
X310276Y369500D01*
X311724D01*
X313123Y369875D01*
X314377Y370599D01*
X315401Y371623D01*
X316125Y372877D01*
X316500Y374276D01*
Y375724D01*
X316125Y377123D01*
X315401Y378377D01*
X314377Y379401D01*
X313123Y380125D01*
X311724Y380500D01*
D02*
G37*
G36*
X193724Y374500D02*
X192276D01*
X190877Y374125D01*
X189623Y373401D01*
X188599Y372377D01*
X187875Y371123D01*
X187500Y369724D01*
Y368276D01*
X187875Y366877D01*
X188599Y365623D01*
X189623Y364599D01*
X190877Y363875D01*
X192276Y363500D01*
X193724D01*
X195123Y363875D01*
X196377Y364599D01*
X197401Y365623D01*
X198125Y366877D01*
X198500Y368276D01*
Y369724D01*
X198125Y371123D01*
X197401Y372377D01*
X196377Y373401D01*
X195123Y374125D01*
X193724Y374500D01*
D02*
G37*
G36*
X241724Y373500D02*
X240276D01*
X238877Y373125D01*
X237623Y372401D01*
X236599Y371377D01*
X235875Y370123D01*
X235500Y368724D01*
Y367276D01*
X235875Y365877D01*
X236599Y364623D01*
X237623Y363599D01*
X238877Y362875D01*
X240276Y362500D01*
X241724D01*
X243123Y362875D01*
X244377Y363599D01*
X245401Y364623D01*
X246125Y365877D01*
X246500Y367276D01*
Y368724D01*
X246125Y370123D01*
X245401Y371377D01*
X244377Y372401D01*
X243123Y373125D01*
X241724Y373500D01*
D02*
G37*
G36*
X221724D02*
X220276D01*
X218877Y373125D01*
X217623Y372401D01*
X216599Y371377D01*
X215875Y370123D01*
X215500Y368724D01*
Y367276D01*
X215875Y365877D01*
X216599Y364623D01*
X217623Y363599D01*
X218877Y362875D01*
X220276Y362500D01*
X221724D01*
X223123Y362875D01*
X224377Y363599D01*
X225401Y364623D01*
X226125Y365877D01*
X226500Y367276D01*
Y368724D01*
X226125Y370123D01*
X225401Y371377D01*
X224377Y372401D01*
X223123Y373125D01*
X221724Y373500D01*
D02*
G37*
G36*
X45724Y55500D02*
X44276D01*
X42877Y55125D01*
X41623Y54401D01*
X40599Y53377D01*
X39875Y52123D01*
X39500Y50724D01*
Y49276D01*
X39875Y47877D01*
X40599Y46623D01*
X41623Y45599D01*
X42877Y44875D01*
X44276Y44500D01*
X45724D01*
X47123Y44875D01*
X48377Y45599D01*
X49401Y46623D01*
X50125Y47877D01*
X50500Y49276D01*
Y50724D01*
X50125Y52123D01*
X49401Y53377D01*
X48377Y54401D01*
X47123Y55125D01*
X45724Y55500D01*
D02*
G37*
G36*
X30724D02*
X29276D01*
X27877Y55125D01*
X26623Y54401D01*
X25599Y53377D01*
X24875Y52123D01*
X24500Y50724D01*
Y49276D01*
X24875Y47877D01*
X25599Y46623D01*
X26623Y45599D01*
X27877Y44875D01*
X29276Y44500D01*
X30724D01*
X32123Y44875D01*
X33377Y45599D01*
X34401Y46623D01*
X35125Y47877D01*
X35500Y49276D01*
Y50724D01*
X35125Y52123D01*
X34401Y53377D01*
X33377Y54401D01*
X32123Y55125D01*
X30724Y55500D01*
D02*
G37*
G36*
X15724D02*
X14276D01*
X12877Y55125D01*
X11623Y54401D01*
X10599Y53377D01*
X9875Y52123D01*
X9500Y50724D01*
Y49276D01*
X9875Y47877D01*
X10599Y46623D01*
X11623Y45599D01*
X12877Y44875D01*
X14276Y44500D01*
X15724D01*
X17123Y44875D01*
X18377Y45599D01*
X19401Y46623D01*
X20125Y47877D01*
X20500Y49276D01*
Y50724D01*
X20125Y52123D01*
X19401Y53377D01*
X18377Y54401D01*
X17123Y55125D01*
X15724Y55500D01*
D02*
G37*
G36*
X377724Y224500D02*
X376276D01*
X374877Y224125D01*
X373623Y223401D01*
X372599Y222377D01*
X371875Y221123D01*
X371500Y219724D01*
Y218276D01*
X371875Y216877D01*
X372599Y215623D01*
X373623Y214599D01*
X374877Y213875D01*
X376276Y213500D01*
X377724D01*
X379123Y213875D01*
X380377Y214599D01*
X381401Y215623D01*
X382125Y216877D01*
X382500Y218276D01*
Y219724D01*
X382125Y221123D01*
X381401Y222377D01*
X380377Y223401D01*
X379123Y224125D01*
X377724Y224500D01*
D02*
G37*
G36*
X400703Y221960D02*
X399255D01*
X397856Y221585D01*
X396602Y220861D01*
X395578Y219837D01*
X394854Y218583D01*
X394479Y217184D01*
Y215736D01*
X394854Y214337D01*
X395578Y213083D01*
X396602Y212059D01*
X397856Y211335D01*
X399255Y210960D01*
X400703D01*
X402102Y211335D01*
X403356Y212059D01*
X404380Y213083D01*
X405104Y214337D01*
X405479Y215736D01*
Y217184D01*
X405104Y218583D01*
X404380Y219837D01*
X403356Y220861D01*
X402102Y221585D01*
X400703Y221960D01*
D02*
G37*
G36*
X402027Y190197D02*
X400579D01*
X399180Y189822D01*
X397926Y189098D01*
X396902Y188074D01*
X396178Y186820D01*
X395803Y185421D01*
Y183973D01*
X396178Y182574D01*
X396902Y181320D01*
X397926Y180296D01*
X399180Y179572D01*
X400579Y179197D01*
X402027D01*
X403426Y179572D01*
X404680Y180296D01*
X405704Y181320D01*
X406428Y182574D01*
X406803Y183973D01*
Y185421D01*
X406428Y186820D01*
X405704Y188074D01*
X404680Y189098D01*
X403426Y189822D01*
X402027Y190197D01*
D02*
G37*
G36*
X95954Y195839D02*
X94506D01*
X93107Y195464D01*
X91853Y194740D01*
X90829Y193716D01*
X90105Y192462D01*
X89730Y191063D01*
Y189615D01*
X90105Y188216D01*
X90829Y186962D01*
X91853Y185938D01*
X93107Y185214D01*
X94506Y184839D01*
X95954D01*
X97353Y185214D01*
X98607Y185938D01*
X99631Y186962D01*
X100356Y188216D01*
X100730Y189615D01*
Y191063D01*
X100356Y192462D01*
X99631Y193716D01*
X98607Y194740D01*
X97353Y195464D01*
X95954Y195839D01*
D02*
G37*
G36*
X62724Y161500D02*
X61276D01*
X59877Y161125D01*
X58623Y160401D01*
X57599Y159377D01*
X56875Y158123D01*
X56500Y156724D01*
Y155276D01*
X56875Y153877D01*
X57599Y152623D01*
X58623Y151599D01*
X59877Y150875D01*
X61276Y150500D01*
X62724D01*
X64123Y150875D01*
X65377Y151599D01*
X66401Y152623D01*
X67125Y153877D01*
X67500Y155276D01*
Y156724D01*
X67125Y158123D01*
X66401Y159377D01*
X65377Y160401D01*
X64123Y161125D01*
X62724Y161500D01*
D02*
G37*
G36*
X45724Y155500D02*
X44276D01*
X42877Y155125D01*
X41623Y154401D01*
X40599Y153377D01*
X39875Y152123D01*
X39500Y150724D01*
Y149276D01*
X39875Y147877D01*
X40599Y146623D01*
X41623Y145599D01*
X42877Y144875D01*
X44276Y144500D01*
X45724D01*
X47123Y144875D01*
X48377Y145599D01*
X49401Y146623D01*
X50125Y147877D01*
X50500Y149276D01*
Y150724D01*
X50125Y152123D01*
X49401Y153377D01*
X48377Y154401D01*
X47123Y155125D01*
X45724Y155500D01*
D02*
G37*
G36*
X30724D02*
X29276D01*
X27877Y155125D01*
X26623Y154401D01*
X25599Y153377D01*
X24875Y152123D01*
X24500Y150724D01*
Y149276D01*
X24875Y147877D01*
X25599Y146623D01*
X26623Y145599D01*
X27877Y144875D01*
X29276Y144500D01*
X30724D01*
X32123Y144875D01*
X33377Y145599D01*
X34401Y146623D01*
X35125Y147877D01*
X35500Y149276D01*
Y150724D01*
X35125Y152123D01*
X34401Y153377D01*
X33377Y154401D01*
X32123Y155125D01*
X30724Y155500D01*
D02*
G37*
G36*
X431182Y142000D02*
X428818D01*
X426500Y141539D01*
X424316Y140634D01*
X422350Y139321D01*
X420679Y137650D01*
X419366Y135684D01*
X418461Y133500D01*
X418000Y131182D01*
Y128818D01*
X418461Y126500D01*
X419366Y124316D01*
X420679Y122350D01*
X422350Y120679D01*
X424316Y119366D01*
X426500Y118461D01*
X428818Y118000D01*
X431182D01*
X433500Y118461D01*
X435684Y119366D01*
X437650Y120679D01*
X439321Y122350D01*
X440634Y124316D01*
X441539Y126500D01*
X442000Y128818D01*
Y131182D01*
X441539Y133500D01*
X440634Y135684D01*
X439321Y137650D01*
X437650Y139321D01*
X435684Y140634D01*
X433500Y141539D01*
X431182Y142000D01*
D02*
G37*
G36*
X396182D02*
X393818D01*
X391500Y141539D01*
X389316Y140634D01*
X387350Y139321D01*
X385679Y137650D01*
X384366Y135684D01*
X383461Y133500D01*
X383000Y131182D01*
Y128818D01*
X383461Y126500D01*
X384366Y124316D01*
X385679Y122350D01*
X387350Y120679D01*
X389316Y119366D01*
X391500Y118461D01*
X393818Y118000D01*
X396182D01*
X398500Y118461D01*
X400684Y119366D01*
X402650Y120679D01*
X404321Y122350D01*
X405634Y124316D01*
X406539Y126500D01*
X407000Y128818D01*
Y131182D01*
X406539Y133500D01*
X405634Y135684D01*
X404321Y137650D01*
X402650Y139321D01*
X400684Y140634D01*
X398500Y141539D01*
X396182Y142000D01*
D02*
G37*
G36*
X431182Y107000D02*
X428818D01*
X426500Y106539D01*
X424316Y105634D01*
X422350Y104321D01*
X420679Y102650D01*
X419366Y100684D01*
X418461Y98500D01*
X418000Y96182D01*
Y93818D01*
X418461Y91500D01*
X419366Y89316D01*
X420679Y87350D01*
X422350Y85679D01*
X424316Y84366D01*
X426500Y83461D01*
X428818Y83000D01*
X431182D01*
X433500Y83461D01*
X435684Y84366D01*
X437650Y85679D01*
X439321Y87350D01*
X440634Y89316D01*
X441539Y91500D01*
X442000Y93818D01*
Y96182D01*
X441539Y98500D01*
X440634Y100684D01*
X439321Y102650D01*
X437650Y104321D01*
X435684Y105634D01*
X433500Y106539D01*
X431182Y107000D01*
D02*
G37*
G36*
Y72000D02*
X428818D01*
X426500Y71539D01*
X424316Y70634D01*
X422350Y69321D01*
X420679Y67649D01*
X419366Y65684D01*
X418461Y63500D01*
X418000Y61182D01*
Y58818D01*
X418461Y56500D01*
X419366Y54316D01*
X420679Y52350D01*
X422350Y50679D01*
X424316Y49366D01*
X426500Y48461D01*
X428818Y48000D01*
X431182D01*
X433500Y48461D01*
X435684Y49366D01*
X437650Y50679D01*
X439321Y52350D01*
X440634Y54316D01*
X441539Y56500D01*
X442000Y58818D01*
Y61182D01*
X441539Y63500D01*
X440634Y65684D01*
X439321Y67649D01*
X437650Y69321D01*
X435684Y70634D01*
X433500Y71539D01*
X431182Y72000D01*
D02*
G37*
G36*
X346724Y56500D02*
X345276D01*
X343877Y56125D01*
X342623Y55401D01*
X341599Y54377D01*
X340875Y53123D01*
X340500Y51724D01*
Y50276D01*
X340875Y48877D01*
X341599Y47623D01*
X342623Y46599D01*
X343877Y45875D01*
X345276Y45500D01*
X346724D01*
X348123Y45875D01*
X349377Y46599D01*
X350401Y47623D01*
X351125Y48877D01*
X351500Y50276D01*
Y51724D01*
X351125Y53123D01*
X350401Y54377D01*
X349377Y55401D01*
X348123Y56125D01*
X346724Y56500D01*
D02*
G37*
%LPD*%
D11*
X411000Y364140D02*
Y384540D01*
X410540Y385000D02*
X411000Y384540D01*
Y364140D02*
X413540Y361600D01*
Y340540D02*
Y361600D01*
X356000Y283000D02*
X413540Y340540D01*
X353000Y287000D02*
X407000Y341000D01*
X404000Y367959D02*
X407000Y364959D01*
Y341000D02*
Y364959D01*
X404000Y367959D02*
Y393000D01*
X255836Y112826D02*
Y135836D01*
X251875Y108876D02*
X251885D01*
X255836Y112826D01*
X260835Y106700D02*
Y133764D01*
X254214Y100078D02*
X260835Y106700D01*
X227000Y29000D02*
Y80000D01*
X197000Y90000D02*
X208914Y78086D01*
Y66913D02*
Y78086D01*
X197000Y90000D02*
Y228000D01*
X202000Y105000D02*
Y226000D01*
Y105000D02*
X227000Y80000D01*
X192000Y83000D02*
X200540Y74460D01*
Y62000D02*
Y74460D01*
X192000Y83000D02*
Y230000D01*
X194000Y52000D02*
Y65000D01*
Y52000D02*
X232000Y14000D01*
X187000Y72000D02*
X194000Y65000D01*
X190000Y49000D02*
X230000Y9000D01*
X182000Y70000D02*
X190000Y62000D01*
Y49000D02*
Y62000D01*
X186000Y46000D02*
X228000Y4000D01*
X177000Y68000D02*
X186000Y59000D01*
Y46000D02*
Y59000D01*
X177000Y68000D02*
Y236000D01*
X187000Y72000D02*
Y232000D01*
X254000Y299000D01*
X182000Y70000D02*
Y234000D01*
X347000Y295000D02*
X366000Y314000D01*
Y372000D01*
X378000Y384000D01*
X350000Y291000D02*
X371000Y312000D01*
Y370000D02*
X388000Y387000D01*
X371000Y312000D02*
Y370000D01*
X358000Y321000D02*
Y385867D01*
X366133Y394000D01*
X340000Y303000D02*
X358000Y321000D01*
X362000Y378460D02*
X367540Y384000D01*
X362000Y317000D02*
Y378460D01*
X344000Y299000D02*
X362000Y317000D01*
X255836Y135836D02*
X262438Y142438D01*
X342000Y310657D02*
Y379133D01*
X339343Y308000D02*
X342000Y310657D01*
X327133Y394000D02*
X342000Y379133D01*
X249000Y308000D02*
X339343D01*
X251000Y303000D02*
X340000D01*
X336769Y129982D02*
X355540Y111211D01*
Y77291D02*
Y111211D01*
X351709Y73460D02*
X355540Y77291D01*
X311540Y73460D02*
X351709D01*
X276417Y108583D02*
Y238832D01*
X271249Y244000D02*
X276417Y238832D01*
X281000Y113000D02*
Y258000D01*
Y113000D02*
X314000Y80000D01*
X281000Y258000D02*
X283000Y260000D01*
X276417Y108583D02*
X311540Y73460D01*
X250000Y77000D02*
X302000Y25000D01*
X244000Y77000D02*
X250000D01*
X257000Y81000D02*
X313000Y25000D01*
X248000Y81000D02*
X257000D01*
X254000Y90000D02*
X269926D01*
X318477Y41449D01*
X263000Y85000D02*
X313465Y34534D01*
X251000Y85000D02*
X263000D01*
X212000Y109000D02*
X244000Y77000D01*
X207000Y107000D02*
X245000Y69000D01*
Y24000D02*
Y69000D01*
X217000Y112000D02*
X248000Y81000D01*
X234000Y102000D02*
X251000Y85000D01*
X239000Y105000D02*
X254000Y90000D01*
X254000Y299000D02*
X344000D01*
X257000Y295000D02*
X347000D01*
X260000Y291000D02*
X350000D01*
X266000Y283000D02*
X356000D01*
X228000Y4000D02*
X319828D01*
X230000Y9000D02*
X315000D01*
X232000Y14000D02*
X313000D01*
X207000Y107000D02*
Y224000D01*
X212000Y109000D02*
Y222000D01*
X217000Y112000D02*
Y220000D01*
X234000Y102000D02*
Y228000D01*
X319828Y4000D02*
X328828Y13000D01*
X315000Y9000D02*
X325540Y19540D01*
X313000Y14000D02*
X326000Y27000D01*
X283000Y260000D02*
X305571D01*
X177000Y236000D02*
X249000Y308000D01*
X182000Y234000D02*
X251000Y303000D01*
X192000Y230000D02*
X257000Y295000D01*
X197000Y228000D02*
X260000Y291000D01*
X202000Y226000D02*
X263000Y287000D01*
X207000Y224000D02*
X266000Y283000D01*
X212000Y222000D02*
X268540Y278540D01*
X217000Y220000D02*
X271540Y274540D01*
X234000Y228000D02*
X276540Y270540D01*
X239000Y226000D02*
X279540Y266540D01*
X239000Y105000D02*
Y226000D01*
X276540Y270540D02*
X337460D01*
X279540Y266540D02*
X319460D01*
X314000Y80000D02*
X349000D01*
X355460Y274540D02*
X370000Y260000D01*
X271540Y274540D02*
X355460D01*
X319460Y266540D02*
X326000Y260000D01*
X337460Y270540D02*
X348000Y260000D01*
X263000Y287000D02*
X353000D01*
X268540Y278540D02*
X373460D01*
X267438Y140367D02*
Y212368D01*
X262438Y142438D02*
Y212368D01*
X260835Y133764D02*
X267438Y140367D01*
X269877Y214807D02*
Y215540D01*
X267438Y212368D02*
X269877Y214807D01*
X260000D02*
X262438Y212368D01*
X260000Y214807D02*
Y215540D01*
X326000Y260000D02*
X326000D01*
X373460Y278540D02*
X392000Y260000D01*
X388000Y387000D02*
Y394000D01*
X378000Y384000D02*
Y394000D01*
X326000Y27000D02*
X341000D01*
X325540Y19540D02*
X342789D01*
X349249Y26000D01*
X384000D01*
X328828Y13000D02*
X329000D01*
D65*
X200956Y297000D02*
X230000D01*
X245500Y312500D02*
X335743D01*
X230000Y297000D02*
X245500Y312500D01*
X146040Y395040D02*
X314960D01*
X139000Y388000D02*
X146040Y395040D01*
X337500Y314257D02*
Y372500D01*
X314960Y395040D02*
X337500Y372500D01*
X166000Y297000D02*
X195044D01*
X195084Y296960D02*
X200916D01*
X200956Y297000D01*
X130000Y261000D02*
X166000Y297000D01*
X195044D02*
X195084Y296960D01*
X86000Y261000D02*
X130000D01*
X79000Y233000D02*
Y254000D01*
X86000Y261000D01*
X335743Y312500D02*
X337500Y314257D01*
D68*
X132000Y62000D02*
X171000Y101000D01*
Y240000D01*
X201000Y270000D01*
Y288000D01*
X86000Y62000D02*
X132000D01*
D72*
X60000Y390000D02*
D03*
X40000Y370000D02*
D03*
Y390000D02*
D03*
X60000Y370000D02*
D03*
X124000Y87000D02*
D03*
X410540Y385000D02*
D03*
X404000Y393000D02*
D03*
X162960Y173000D02*
D03*
X162000Y209000D02*
D03*
Y223000D02*
D03*
Y234000D02*
D03*
X255000Y159000D02*
D03*
Y167500D02*
D03*
Y182500D02*
D03*
Y192500D02*
D03*
X252000Y228000D02*
D03*
X227000Y29000D02*
D03*
X211000Y86000D02*
D03*
X200540Y62000D02*
D03*
X208914Y66913D02*
D03*
X251875Y108876D02*
D03*
X254214Y100078D02*
D03*
X168000Y387000D02*
D03*
X176000Y368000D02*
D03*
X69000Y385000D02*
D03*
X96000Y373000D02*
D03*
X179000Y56000D02*
D03*
X201000Y288000D02*
D03*
X400460Y361558D02*
D03*
X336769Y129982D02*
D03*
X313000Y25000D02*
D03*
X313465Y34534D02*
D03*
X78944Y224104D02*
D03*
X15000Y178000D02*
D03*
X153000Y131000D02*
D03*
Y142000D02*
D03*
Y152000D02*
D03*
X271249Y244000D02*
D03*
X269877Y215540D02*
D03*
X260000D02*
D03*
X305571Y260000D02*
D03*
X139000Y388000D02*
D03*
X86000Y62000D02*
D03*
X334000Y227000D02*
D03*
X361000Y234000D02*
D03*
X348000Y100000D02*
D03*
X392000Y260000D02*
D03*
X370000D02*
D03*
X348000D02*
D03*
X326000D02*
D03*
X150000Y270000D02*
D03*
X383202Y328118D02*
D03*
X367540Y384000D02*
D03*
X366133Y394000D02*
D03*
X318477Y41449D02*
D03*
X224000Y124000D02*
D03*
X384000Y26000D02*
D03*
X341000Y27000D02*
D03*
X388000Y394000D02*
D03*
X378000D02*
D03*
X63000Y35000D02*
D03*
X121000Y203000D02*
D03*
X420000Y80000D02*
D03*
X410000Y110000D02*
D03*
Y50000D02*
D03*
Y30000D02*
D03*
X297000Y73000D02*
D03*
X6122Y238340D02*
D03*
X327133Y394000D02*
D03*
X245000Y24000D02*
D03*
X329000Y13000D02*
D03*
X349000Y80000D02*
D03*
X23000Y88000D02*
D03*
X22000Y120000D02*
D03*
X110000Y40000D02*
D03*
X40000Y201000D02*
D03*
X54000Y86000D02*
D03*
X145129Y24543D02*
D03*
X224000Y149000D02*
D03*
X372000Y133000D02*
D03*
X79000Y233000D02*
D03*
X267000Y373000D02*
D03*
X26000Y187000D02*
D03*
X317000Y88000D02*
D03*
Y98000D02*
D03*
X302000Y25000D02*
D03*
X256000Y24000D02*
D03*
X211000Y387000D02*
D03*
X193000D02*
D03*
X230000D02*
D03*
M02*
