G04*
G04 #@! TF.GenerationSoftware,Altium Limited,Altium Designer,21.6.4 (81)*
G04*
G04 Layer_Color=3326705*
%FSLAX44Y44*%
%MOMM*%
G71*
G04*
G04 #@! TF.SameCoordinates,D5C97574-E224-4ECB-8EF4-D48BC8F4BA3E*
G04*
G04*
G04 #@! TF.FilePolarity,Positive*
G04*
G01*
G75*
%ADD10C,0.1500*%
%ADD11C,0.2000*%
%ADD106R,0.8000X0.7500*%
G36*
X50000Y212000D02*
X48000Y214000D01*
X52000D01*
X50000Y212000D01*
D02*
G37*
G36*
X338000Y238950D02*
X335500Y243950D01*
X340500D01*
X338000Y238950D01*
D02*
G37*
G36*
X340000Y117000D02*
X339902Y122830D01*
X345098Y119830D01*
X340000Y117000D01*
D02*
G37*
G36*
X378500Y88000D02*
X373197Y89768D01*
X376732Y93303D01*
X378500Y88000D01*
D02*
G37*
D10*
X372000Y204000D02*
G03*
X372000Y188000I8000J-8000D01*
G01*
X400000D02*
G03*
X400000Y204000I-8000J8000D01*
G01*
X285000Y11000D02*
G03*
X301000Y11000I8000J8000D01*
G01*
Y39000D02*
G03*
X285000Y39000I-8000J-8000D01*
G01*
X250000Y22000D02*
G03*
X250000Y6000I8000J-8000D01*
G01*
X278000D02*
G03*
X278000Y22000I-8000J8000D01*
G01*
X230000Y132000D02*
G03*
X230000Y116000I8000J-8000D01*
G01*
X258000D02*
G03*
X258000Y132000I-8000J8000D01*
G01*
X250000Y42000D02*
G03*
X250000Y26000I8000J-8000D01*
G01*
X278000D02*
G03*
X278000Y42000I-8000J8000D01*
G01*
X9000Y235000D02*
G03*
X9000Y219000I8000J-8000D01*
G01*
X37000D02*
G03*
X37000Y235000I-8000J8000D01*
G01*
X376000Y81000D02*
G03*
X360000Y81000I-8000J-8000D01*
G01*
Y53000D02*
G03*
X376000Y53000I8000J8000D01*
G01*
X405352Y96774D02*
G03*
X405352Y112774I-8000J8000D01*
G01*
X377352D02*
G03*
X377352Y96774I8000J-8000D01*
G01*
X371000Y362000D02*
G03*
X387000Y362000I8000J8000D01*
G01*
Y390000D02*
G03*
X371000Y390000I-8000J-8000D01*
G01*
X312000Y362000D02*
G03*
X328000Y362000I8000J8000D01*
G01*
Y390000D02*
G03*
X312000Y390000I-8000J-8000D01*
G01*
X335000Y376000D02*
G03*
X335000Y360000I8000J-8000D01*
G01*
X363000D02*
G03*
X363000Y376000I-8000J8000D01*
G01*
Y380000D02*
G03*
X363000Y396000I-8000J8000D01*
G01*
X335000D02*
G03*
X335000Y380000I8000J-8000D01*
G01*
X291000Y362000D02*
G03*
X307000Y362000I8000J8000D01*
G01*
Y390000D02*
G03*
X291000Y390000I-8000J-8000D01*
G01*
X417000Y381000D02*
G03*
X401000Y381000I-8000J-8000D01*
G01*
Y353000D02*
G03*
X417000Y353000I8000J8000D01*
G01*
X213000Y362000D02*
G03*
X229000Y362000I8000J8000D01*
G01*
Y390000D02*
G03*
X213000Y390000I-8000J-8000D01*
G01*
X233000Y362000D02*
G03*
X249000Y362000I8000J8000D01*
G01*
Y390000D02*
G03*
X233000Y390000I-8000J-8000D01*
G01*
X99000Y211000D02*
G03*
X99000Y195000I8000J-8000D01*
G01*
X127000D02*
G03*
X127000Y211000I-8000J8000D01*
G01*
X123000Y235000D02*
G03*
X123000Y219000I8000J-8000D01*
G01*
X151000D02*
G03*
X151000Y235000I-8000J8000D01*
G01*
X123000Y255000D02*
G03*
X123000Y239000I8000J-8000D01*
G01*
X151000D02*
G03*
X151000Y255000I-8000J8000D01*
G01*
X162000Y165000D02*
G03*
X162000Y181000I-8000J8000D01*
G01*
X134000D02*
G03*
X134000Y165000I8000J-8000D01*
G01*
X59000Y161000D02*
G03*
X75000Y161000I8000J8000D01*
G01*
Y189000D02*
G03*
X59000Y189000I-8000J-8000D01*
G01*
X79000Y161000D02*
G03*
X95000Y161000I8000J8000D01*
G01*
Y189000D02*
G03*
X79000Y189000I-8000J-8000D01*
G01*
X89000Y195000D02*
G03*
X89000Y211000I-8000J8000D01*
G01*
X61000D02*
G03*
X61000Y195000I8000J-8000D01*
G01*
X6000Y184000D02*
G03*
X22000Y184000I8000J8000D01*
G01*
Y212000D02*
G03*
X6000Y212000I-8000J-8000D01*
G01*
X112000Y219000D02*
G03*
X112000Y235000I-8000J8000D01*
G01*
X84000D02*
G03*
X84000Y219000I8000J-8000D01*
G01*
X46000Y235000D02*
G03*
X46000Y219000I8000J-8000D01*
G01*
X74000D02*
G03*
X74000Y235000I-8000J8000D01*
G01*
X187000Y62000D02*
G03*
X171000Y62000I-8000J-8000D01*
G01*
Y34000D02*
G03*
X187000Y34000I8000J8000D01*
G01*
X157000Y25000D02*
G03*
X157000Y9000I8000J-8000D01*
G01*
X185000D02*
G03*
X185000Y25000I-8000J8000D01*
G01*
X145000Y38000D02*
G03*
X129000Y38000I-8000J-8000D01*
G01*
Y10000D02*
G03*
X145000Y10000I8000J8000D01*
G01*
X137000Y81000D02*
G03*
X137000Y65000I8000J-8000D01*
G01*
X165000D02*
G03*
X165000Y81000I-8000J8000D01*
G01*
X137000Y61000D02*
G03*
X137000Y45000I8000J-8000D01*
G01*
X165000D02*
G03*
X165000Y61000I-8000J8000D01*
G01*
X133000Y376000D02*
G03*
X133000Y360000I8000J-8000D01*
G01*
X161000D02*
G03*
X161000Y376000I-8000J8000D01*
G01*
X69000Y363000D02*
G03*
X85000Y363000I8000J8000D01*
G01*
Y391000D02*
G03*
X69000Y391000I-8000J-8000D01*
G01*
X161000Y380000D02*
G03*
X161000Y396000I-8000J8000D01*
G01*
X133000D02*
G03*
X133000Y380000I8000J-8000D01*
G01*
X64000Y60000D02*
G03*
X64000Y44000I8000J-8000D01*
G01*
X92000D02*
G03*
X92000Y60000I-8000J8000D01*
G01*
X64000Y80000D02*
G03*
X64000Y64000I8000J-8000D01*
G01*
X92000D02*
G03*
X92000Y80000I-8000J8000D01*
G01*
X64000Y100000D02*
G03*
X64000Y84000I8000J-8000D01*
G01*
X92000D02*
G03*
X92000Y100000I-8000J8000D01*
G01*
X64000Y120000D02*
G03*
X64000Y104000I8000J-8000D01*
G01*
X92000Y104000D02*
G03*
X92000Y120000I-8000J8000D01*
G01*
X80000Y155000D02*
G03*
X64000Y155000I-8000J-8000D01*
G01*
Y127000D02*
G03*
X80000Y127000I8000J8000D01*
G01*
X137000Y101000D02*
G03*
X137000Y85000I8000J-8000D01*
G01*
X165000D02*
G03*
X165000Y101000I-8000J8000D01*
G01*
X202000Y111000D02*
G03*
X202000Y127000I-8000J8000D01*
G01*
X174000D02*
G03*
X174000Y111000I8000J-8000D01*
G01*
X427000Y203000D02*
G03*
X443000Y203000I8000J8000D01*
G01*
Y231000D02*
G03*
X427000Y231000I-8000J-8000D01*
G01*
X202000Y132000D02*
G03*
X202000Y148000I-8000J8000D01*
G01*
X174000D02*
G03*
X174000Y132000I8000J-8000D01*
G01*
X219000Y151000D02*
G03*
X219000Y167000I-8000J8000D01*
G01*
X191000D02*
G03*
X191000Y151000I8000J-8000D01*
G01*
X222000Y239000D02*
G03*
X206000Y239000I-8000J-8000D01*
G01*
Y211000D02*
G03*
X222000Y211000I8000J8000D01*
G01*
X206000Y173000D02*
G03*
X222000Y173000I8000J8000D01*
G01*
Y201000D02*
G03*
X206000Y201000I-8000J-8000D01*
G01*
X368000Y233000D02*
G03*
X352000Y233000I-8000J-8000D01*
G01*
Y205000D02*
G03*
X368000Y205000I8000J8000D01*
G01*
X372000Y188000D02*
X400000D01*
X372000Y204000D02*
X400000D01*
X301000Y11000D02*
Y39000D01*
X285000Y11000D02*
Y39000D01*
X250000Y6000D02*
X278000D01*
X250000Y22000D02*
X278000D01*
X230000Y116000D02*
X258000D01*
X230000Y132000D02*
X258000D01*
X250000Y26000D02*
X278000D01*
X250000Y42000D02*
X278000D01*
X9000Y219000D02*
X37000D01*
X9000Y235000D02*
X37000D01*
X360000Y53000D02*
Y81000D01*
X376000Y53000D02*
Y81000D01*
X377352Y112774D02*
X405352D01*
X377352Y96774D02*
X405352D01*
X387000Y362000D02*
Y390000D01*
X371000Y362000D02*
Y390000D01*
X328000Y362000D02*
Y390000D01*
X312000Y362000D02*
Y390000D01*
X335000Y360000D02*
X363000D01*
X335000Y376000D02*
X363000D01*
X335000Y396000D02*
X363000D01*
X335000Y380000D02*
X363000D01*
X307000Y362000D02*
Y390000D01*
X291000Y362000D02*
Y390000D01*
X401000Y353000D02*
Y381000D01*
X417000Y353000D02*
Y381000D01*
X229000Y362000D02*
Y390000D01*
X213000Y362000D02*
Y390000D01*
X249000Y362000D02*
Y390000D01*
X233000Y362000D02*
Y390000D01*
X99000Y195000D02*
X127000D01*
X99000Y211000D02*
X127000D01*
X123000Y219000D02*
X151000D01*
X123000Y235000D02*
X151000D01*
X123000Y239000D02*
X151000D01*
X123000Y255000D02*
X151000D01*
X134000Y181000D02*
X162000D01*
X134000Y165000D02*
X162000D01*
X75000Y161000D02*
Y189000D01*
X59000Y161000D02*
Y189000D01*
X95000Y161000D02*
Y189000D01*
X79000Y161000D02*
Y189000D01*
X61000Y211000D02*
X89000D01*
X61000Y195000D02*
X89000D01*
X22000Y184000D02*
Y212000D01*
X6000Y184000D02*
Y212000D01*
X84000Y235000D02*
X112000D01*
X84000Y219000D02*
X112000D01*
X46000D02*
X74000D01*
X46000Y235000D02*
X74000D01*
X171000Y34000D02*
Y62000D01*
X187000Y34000D02*
Y62000D01*
X157000Y9000D02*
X185000D01*
X157000Y25000D02*
X185000D01*
X129000Y10000D02*
Y38000D01*
X145000Y10000D02*
Y38000D01*
X137000Y65000D02*
X165000D01*
X137000Y81000D02*
X165000D01*
X137000Y45000D02*
X165000D01*
X137000Y61000D02*
X165000D01*
X133000Y360000D02*
X161000D01*
X133000Y376000D02*
X161000D01*
X85000Y363000D02*
Y391000D01*
X69000Y363000D02*
Y391000D01*
X133000Y396000D02*
X161000Y396000D01*
X133000Y380000D02*
X161000Y380000D01*
X64000Y44000D02*
X92000D01*
X64000Y60000D02*
X92000Y60000D01*
X64000Y64000D02*
X92000D01*
X64000Y80000D02*
X92000D01*
X64000Y84000D02*
X92000D01*
X64000Y100000D02*
X92000D01*
X64000Y104000D02*
X92000D01*
X64000Y120000D02*
X92000Y120000D01*
X64000Y127000D02*
Y155000D01*
X80000D02*
X80000Y127000D01*
X137000Y85000D02*
X165000D01*
X137000Y101000D02*
X165000D01*
X174000Y127000D02*
X202000D01*
X174000Y111000D02*
X202000D01*
X443000Y203000D02*
Y231000D01*
X427000Y203000D02*
Y231000D01*
X174000Y148000D02*
X202000D01*
X174000Y132000D02*
X202000D01*
X191000Y167000D02*
X219000D01*
X191000Y151000D02*
X219000D01*
X206000Y211000D02*
Y239000D01*
X222000Y211000D02*
Y239000D01*
Y173000D02*
Y201000D01*
X206000Y173000D02*
Y201000D01*
X352000Y205000D02*
Y233000D01*
X368000Y205000D02*
Y233000D01*
D11*
X401000Y321000D02*
Y343000D01*
X417000Y321000D02*
Y343000D01*
X165000Y29000D02*
Y34000D01*
X160000Y29000D02*
X165000D01*
X369000Y90000D02*
Y112000D01*
X353000Y90000D02*
Y112000D01*
X197687Y104747D02*
X219687D01*
X197687Y88747D02*
X219687D01*
X197687Y82747D02*
X219687D01*
X197687Y66747D02*
X219687D01*
X321000Y10000D02*
Y32000D01*
X337000Y10000D02*
Y32000D01*
X343000Y10000D02*
Y32000D01*
X359000Y10000D02*
Y32000D01*
X366000Y7000D02*
X388000D01*
X366000Y23000D02*
X388000D01*
X366000Y45000D02*
X388000D01*
X366000Y29000D02*
X388000D01*
X395000D02*
X417000D01*
X395000Y45000D02*
X417000D01*
X197687Y60747D02*
X219687D01*
X197687Y44747D02*
X219687D01*
X197687Y38747D02*
X219687D01*
X197687Y22747D02*
X219687D01*
X226000Y19000D02*
Y41000D01*
X242000Y19000D02*
Y41000D01*
X388000Y331000D02*
Y353000D01*
X372000Y331000D02*
Y353000D01*
X8000Y176000D02*
X30000D01*
X8000Y160000D02*
X30000D01*
X37000Y164000D02*
Y186000D01*
X53000Y164000D02*
Y186000D01*
X106000Y130000D02*
Y152000D01*
X122000Y130000D02*
Y152000D01*
X102000Y130000D02*
Y152000D01*
X86000Y130000D02*
Y152000D01*
X407000Y172000D02*
Y194000D01*
X423000Y172000D02*
Y194000D01*
Y206000D02*
Y228000D01*
X407000Y206000D02*
Y228000D01*
X427000Y172000D02*
Y194000D01*
X443000Y172000D02*
Y194000D01*
X277000Y247000D02*
X299000D01*
X277000Y263000D02*
X299000D01*
X151000Y187000D02*
Y209000D01*
X135000Y187000D02*
Y209000D01*
X104000Y66000D02*
X104000Y88000D01*
X120000D02*
X120000Y66000D01*
X178000Y188000D02*
X200000D01*
X178000Y172000D02*
X200000D01*
X130687Y113747D02*
X132687D01*
X131687Y112747D02*
X132687Y113747D01*
X130687D02*
X131687Y112747D01*
X113000Y169000D02*
Y187000D01*
X103000Y108000D02*
X121000D01*
X152000Y106000D02*
Y124000D01*
X182000Y208000D02*
X200000D01*
X143000Y134500D02*
X151000D01*
Y159500D01*
X143000Y134500D02*
Y159500D01*
X151000D01*
X104000Y390500D02*
X112000D01*
X104000Y365500D02*
Y390500D01*
X112000Y365500D02*
Y390500D01*
X104000Y365500D02*
X112000D01*
D106*
X147000Y138250D02*
D03*
X108000Y369250D02*
D03*
M02*
