G04*
G04 #@! TF.GenerationSoftware,Altium Limited,Altium Designer,21.6.4 (81)*
G04*
G04 Layer_Physical_Order=2*
G04 Layer_Color=36540*
%FSLAX44Y44*%
%MOMM*%
G71*
G04*
G04 #@! TF.SameCoordinates,D5C97574-E224-4ECB-8EF4-D48BC8F4BA3E*
G04*
G04*
G04 #@! TF.FilePolarity,Positive*
G04*
G01*
G75*
%ADD11C,0.2000*%
%ADD65C,0.3000*%
G04:AMPARAMS|DCode=69|XSize=2mm|YSize=1mm|CornerRadius=0.25mm|HoleSize=0mm|Usage=FLASHONLY|Rotation=180.000|XOffset=0mm|YOffset=0mm|HoleType=Round|Shape=RoundedRectangle|*
%AMROUNDEDRECTD69*
21,1,2.0000,0.5000,0,0,180.0*
21,1,1.5000,1.0000,0,0,180.0*
1,1,0.5000,-0.7500,0.2500*
1,1,0.5000,0.7500,0.2500*
1,1,0.5000,0.7500,-0.2500*
1,1,0.5000,-0.7500,-0.2500*
%
%ADD69ROUNDEDRECTD69*%
%ADD72C,0.6000*%
G36*
X397773Y394902D02*
X398546Y393895D01*
X398500Y393724D01*
Y392276D01*
X398875Y390877D01*
X399599Y389623D01*
X400623Y388599D01*
X401877Y387875D01*
X403276Y387500D01*
X404225D01*
X405085Y386595D01*
X405198Y386312D01*
X405040Y385724D01*
Y384276D01*
X405415Y382877D01*
X406139Y381623D01*
X407163Y380599D01*
X408417Y379875D01*
X409816Y379500D01*
X411264D01*
X412663Y379875D01*
X413917Y380599D01*
X414941Y381623D01*
X415665Y382877D01*
X416040Y384276D01*
Y385724D01*
X415665Y387123D01*
X414941Y388377D01*
X413917Y389401D01*
X412663Y390125D01*
X411264Y390500D01*
X410315D01*
X409455Y391405D01*
X409342Y391688D01*
X409500Y392276D01*
Y393632D01*
X409573Y394049D01*
X410227Y394902D01*
X419824D01*
X420422Y393782D01*
X419935Y393052D01*
X418653Y389959D01*
X418000Y386674D01*
Y383326D01*
X418653Y380041D01*
X419935Y376948D01*
X421028Y375312D01*
X421002Y375171D01*
X420311Y374099D01*
X419356D01*
X417957Y373724D01*
X416754Y373029D01*
X415439Y372768D01*
X414116Y371884D01*
X413232Y370561D01*
X412922Y369000D01*
Y336689D01*
X381252Y305019D01*
X380078Y305505D01*
Y351707D01*
X380577Y351841D01*
X381831Y352565D01*
X382855Y353589D01*
X383579Y354843D01*
X383954Y356242D01*
Y357690D01*
X383579Y359089D01*
X382855Y360343D01*
X381831Y361367D01*
X380577Y362091D01*
X380078Y362225D01*
Y388842D01*
X380074Y388862D01*
X380123Y388875D01*
X381377Y389599D01*
X382231Y390453D01*
X383000Y390548D01*
X383769Y390453D01*
X384623Y389599D01*
X385877Y388875D01*
X387276Y388500D01*
X388724D01*
X390123Y388875D01*
X391377Y389599D01*
X392401Y390623D01*
X393125Y391877D01*
X393500Y393276D01*
Y393632D01*
X394696Y394902D01*
X397773D01*
D02*
G37*
G36*
X180922Y394902D02*
Y360000D01*
X161000D01*
X158000Y357000D01*
X5098D01*
Y369824D01*
X6218Y370422D01*
X6948Y369935D01*
X10041Y368653D01*
X13326Y368000D01*
X16674D01*
X19959Y368653D01*
X23052Y369935D01*
X25837Y371795D01*
X28205Y374163D01*
X30065Y376948D01*
X31347Y380041D01*
X32000Y383326D01*
Y386674D01*
X31347Y389959D01*
X30065Y393052D01*
X29578Y393782D01*
X30176Y394902D01*
X180922D01*
D02*
G37*
G36*
X299158Y394902D02*
X299249Y394676D01*
X299491Y392902D01*
X298623Y392401D01*
X297599Y391377D01*
X296875Y390123D01*
X296500Y388724D01*
Y387276D01*
X296875Y385877D01*
X297599Y384623D01*
X298623Y383599D01*
X299877Y382875D01*
X301276Y382500D01*
X302724D01*
X304123Y382875D01*
X305377Y383599D01*
X306401Y384623D01*
X307125Y385877D01*
X307500Y387276D01*
Y388724D01*
X307125Y390123D01*
X306401Y391377D01*
X305377Y392401D01*
X304509Y392902D01*
X304751Y394676D01*
X304842Y394902D01*
X321497D01*
X321633Y394724D01*
Y393276D01*
X322008Y391877D01*
X322732Y390623D01*
X323756Y389599D01*
X325010Y388875D01*
X326409Y388500D01*
X327857D01*
X329256Y388875D01*
X330510Y389599D01*
X331534Y390623D01*
X332258Y391877D01*
X332633Y393276D01*
X334560Y394902D01*
X360497D01*
X360633Y394724D01*
Y393276D01*
X361008Y391877D01*
X361732Y390623D01*
X362756Y389599D01*
X363139Y387377D01*
X362415Y386123D01*
X362040Y384724D01*
Y383276D01*
X362415Y381877D01*
X363139Y380623D01*
X364163Y379599D01*
X365417Y378875D01*
X366816Y378500D01*
X368264D01*
X369663Y378875D01*
X370917Y379599D01*
X371941Y380623D01*
X372665Y381877D01*
X373040Y383276D01*
Y384724D01*
X372665Y386123D01*
X371941Y387377D01*
X370917Y388401D01*
X370655Y389924D01*
X371399Y390724D01*
X373339Y390635D01*
X373732Y390489D01*
X374623Y389599D01*
X375877Y388875D01*
X376000Y388842D01*
Y361900D01*
X375077Y361367D01*
X374053Y360343D01*
X373329Y359089D01*
X372954Y357690D01*
Y356242D01*
X373329Y354843D01*
X374053Y353589D01*
X375077Y352565D01*
X376000Y352032D01*
Y303500D01*
X366500Y294000D01*
X261000D01*
X197000Y230000D01*
X168351D01*
X167148Y231843D01*
X167158Y232000D01*
X167500Y233276D01*
Y234724D01*
X167125Y236123D01*
X166401Y237377D01*
X165377Y238401D01*
X164123Y239125D01*
X162724Y239500D01*
X161276D01*
X159877Y239125D01*
X158623Y238401D01*
X157599Y237377D01*
X156875Y236123D01*
X156500Y234724D01*
Y233276D01*
X156842Y232000D01*
X156853Y231843D01*
X155649Y230000D01*
X85781D01*
X84426Y232000D01*
X84500Y232276D01*
Y233724D01*
X84125Y235123D01*
X83401Y236377D01*
X82377Y237401D01*
X81123Y238125D01*
X79724Y238500D01*
X78276D01*
X76877Y238125D01*
X75623Y237401D01*
X74599Y236377D01*
X73875Y235123D01*
X73500Y233724D01*
Y232276D01*
X73574Y232000D01*
X72219Y230000D01*
X41000D01*
Y226426D01*
X39877Y226125D01*
X38623Y225401D01*
X37599Y224377D01*
X36875Y223123D01*
X36500Y221724D01*
Y220276D01*
X36875Y218877D01*
X37599Y217623D01*
X38623Y216599D01*
X39877Y215875D01*
X41000Y215574D01*
Y206712D01*
X40724Y206500D01*
X39276D01*
X37877Y206125D01*
X36623Y205401D01*
X35599Y204377D01*
X34875Y203123D01*
X34500Y201724D01*
Y200276D01*
X34875Y198877D01*
X35599Y197623D01*
X36623Y196599D01*
X37877Y195875D01*
X39276Y195500D01*
X40724D01*
X41000Y195288D01*
Y153778D01*
X40599Y153377D01*
X39875Y152123D01*
X39500Y150724D01*
Y149276D01*
X39875Y147877D01*
X40599Y146623D01*
X41000Y146222D01*
Y53778D01*
X40599Y53377D01*
X39875Y52123D01*
X39500Y50724D01*
Y49276D01*
X39875Y47877D01*
X40599Y46623D01*
X41623Y45599D01*
X42281Y45219D01*
X71500Y16000D01*
X157500Y16000D01*
X274000D01*
X283000Y25000D01*
X292000D01*
Y5098D01*
X30951Y5098D01*
X30008Y6862D01*
X30065Y6948D01*
X31347Y10041D01*
X32000Y13326D01*
Y16674D01*
X31347Y19959D01*
X30065Y23052D01*
X28205Y25837D01*
X25837Y28205D01*
X23052Y30065D01*
X19959Y31347D01*
X16674Y32000D01*
X13326D01*
X10041Y31347D01*
X6948Y30065D01*
X6862Y30008D01*
X5098Y30951D01*
X5098Y230964D01*
X6846Y232840D01*
X8244Y233214D01*
X9499Y233938D01*
X10523Y234962D01*
X11247Y236217D01*
X11622Y237615D01*
Y239064D01*
X11247Y240462D01*
X10936Y241000D01*
X11810Y242842D01*
X11991Y243000D01*
X60000D01*
Y260000D01*
X130000D01*
X143170Y273170D01*
X144875Y272123D01*
X144500Y270724D01*
Y269276D01*
X144875Y267877D01*
X145599Y266623D01*
X146623Y265599D01*
X147877Y264875D01*
X149276Y264500D01*
X150724D01*
X152123Y264875D01*
X153377Y265599D01*
X154401Y266623D01*
X155125Y267877D01*
X155500Y269276D01*
Y270724D01*
X155125Y272123D01*
X154401Y273377D01*
X153377Y274401D01*
X152123Y275125D01*
X150724Y275500D01*
X149276D01*
X147877Y275125D01*
X146830Y276830D01*
X180000Y310000D01*
X193521D01*
X193748Y309670D01*
X194222Y308000D01*
X193599Y307377D01*
X192875Y306123D01*
X192500Y304724D01*
Y303276D01*
X192875Y301877D01*
X193599Y300623D01*
X194623Y299599D01*
X195877Y298875D01*
X197276Y298500D01*
X198724D01*
X200123Y298875D01*
X201377Y299599D01*
X202401Y300623D01*
X203125Y301877D01*
X203500Y303276D01*
Y304724D01*
X203125Y306123D01*
X202401Y307377D01*
X201778Y308000D01*
X202252Y309670D01*
X202479Y310000D01*
X208170D01*
X208387Y309875D01*
X209786Y309500D01*
X211234D01*
X212633Y309875D01*
X212849Y310000D01*
X340000D01*
Y360000D01*
X185000D01*
Y394902D01*
X299158Y394902D01*
D02*
G37*
G36*
X426000Y332768D02*
X379311Y286078D01*
X276000D01*
X276000Y286078D01*
X274439Y285768D01*
X273116Y284884D01*
X232116Y243884D01*
X231232Y242561D01*
X230922Y241000D01*
X230922Y241000D01*
Y155000D01*
X230922Y155000D01*
X231232Y153439D01*
X232116Y152116D01*
X251922Y132311D01*
Y114375D01*
X251152D01*
X249753Y114001D01*
X248498Y113277D01*
X247474Y112253D01*
X246750Y110998D01*
X246376Y109600D01*
Y108152D01*
X246750Y106753D01*
X247474Y105499D01*
X248498Y104474D01*
X249673Y103564D01*
X249089Y102201D01*
X248714Y100802D01*
Y99354D01*
X249089Y97956D01*
X249813Y96701D01*
X250837Y95677D01*
X252091Y94953D01*
X253490Y94578D01*
X254938D01*
X256337Y94953D01*
X257591Y95677D01*
X258615Y96701D01*
X259339Y97956D01*
X259714Y99354D01*
Y100802D01*
X259339Y102201D01*
X259312Y102248D01*
X260811Y103652D01*
X261439Y103232D01*
X263000Y102922D01*
X263000Y102922D01*
X302000D01*
X302000Y102922D01*
X303561Y103232D01*
X304884Y104116D01*
X329373Y128605D01*
X331061Y128377D01*
X331583Y128085D01*
X331643Y127859D01*
X332368Y126605D01*
X333392Y125581D01*
X334646Y124857D01*
X336045Y124482D01*
X337493D01*
X338891Y124857D01*
X340146Y125581D01*
X340782Y126218D01*
X350000Y117000D01*
Y106479D01*
X348724Y105500D01*
X347276D01*
X345877Y105125D01*
X344623Y104401D01*
X343599Y103377D01*
X342875Y102123D01*
X342500Y100724D01*
Y99276D01*
X342875Y97877D01*
X343599Y96623D01*
X344623Y95599D01*
X345877Y94875D01*
X347276Y94500D01*
X348724D01*
X350000Y93521D01*
Y90000D01*
X346276Y86276D01*
X346276D01*
X346276Y86276D01*
X340875Y80875D01*
X340875Y80875D01*
Y80875D01*
X336377Y76377D01*
X336377Y76377D01*
Y76377D01*
X332413Y72413D01*
X332413Y72413D01*
Y72413D01*
X327875Y67875D01*
X327875Y67875D01*
Y67875D01*
X326401Y66401D01*
X326401Y66401D01*
Y66401D01*
X319377Y59377D01*
X319377Y59377D01*
X318123Y58123D01*
X318123Y58123D01*
X309276Y49276D01*
X309276Y49276D01*
Y49276D01*
X300724Y40724D01*
X300724Y40724D01*
Y40724D01*
X296623Y36623D01*
X296623Y36623D01*
X296623Y36623D01*
X292377Y32377D01*
X292377Y32377D01*
X291123Y31123D01*
X291123Y31123D01*
X289125Y29125D01*
X289125Y29125D01*
X289125Y29125D01*
X289125Y29125D01*
X287145Y29078D01*
X283000D01*
X283000Y29078D01*
X281439Y28768D01*
X280334Y28029D01*
X279742Y27829D01*
X278176Y27602D01*
X277377Y28401D01*
X276123Y29125D01*
X274724Y29500D01*
X273276D01*
X271877Y29125D01*
X270623Y28401D01*
X269599Y27377D01*
X268875Y26123D01*
X268500Y24724D01*
Y23276D01*
X268821Y22078D01*
X268732Y21676D01*
X267604Y20078D01*
X262396D01*
X261268Y21676D01*
X261179Y22078D01*
X261500Y23276D01*
Y24724D01*
X261125Y26123D01*
X260401Y27377D01*
X259377Y28401D01*
X258123Y29125D01*
X256724Y29500D01*
X255276D01*
X253877Y29125D01*
X252623Y28401D01*
X251670Y27448D01*
X251583Y27377D01*
X249417Y27377D01*
X249330Y27448D01*
X248377Y28401D01*
X247123Y29125D01*
X245724Y29500D01*
X244276D01*
X242877Y29125D01*
X241623Y28401D01*
X240599Y27377D01*
X239875Y26123D01*
X239500Y24724D01*
Y23276D01*
X239821Y22078D01*
X239732Y21676D01*
X238604Y20078D01*
X157500D01*
X151147D01*
X150056Y22078D01*
X150254Y22420D01*
X150629Y23819D01*
Y25267D01*
X150254Y26666D01*
X149530Y27920D01*
X148506Y28944D01*
X147252Y29669D01*
X145853Y30043D01*
X144404D01*
X143006Y29669D01*
X141751Y28944D01*
X140728Y27920D01*
X140003Y26666D01*
X139629Y25267D01*
Y23819D01*
X140003Y22420D01*
X140201Y22078D01*
X139110Y20078D01*
X73189Y20078D01*
X65241Y28027D01*
X65819Y30277D01*
X66377Y30599D01*
X67401Y31623D01*
X68125Y32877D01*
X68500Y34276D01*
Y35724D01*
X68125Y37123D01*
X67401Y38377D01*
X66377Y39401D01*
X65123Y40125D01*
X63724Y40500D01*
X62276D01*
X60877Y40125D01*
X59623Y39401D01*
X58599Y38377D01*
X58277Y37819D01*
X56027Y37241D01*
X48295Y44973D01*
X48377Y45599D01*
X49401Y46623D01*
X50125Y47877D01*
X50500Y49276D01*
Y50724D01*
X50125Y52123D01*
X49401Y53377D01*
X48377Y54401D01*
X47123Y55125D01*
X45724Y55500D01*
X45078D01*
Y144500D01*
X45724D01*
X47123Y144875D01*
X48377Y145599D01*
X49401Y146623D01*
X50125Y147877D01*
X50500Y149276D01*
Y150724D01*
X50125Y152123D01*
X49401Y153377D01*
X48377Y154401D01*
X47123Y155125D01*
X45724Y155500D01*
X45078D01*
Y195288D01*
X45026Y195552D01*
X45044Y195821D01*
X44872Y196326D01*
X44768Y196849D01*
X44618Y197073D01*
X44532Y197327D01*
X44333Y197555D01*
X44401Y197623D01*
X45125Y198877D01*
X45500Y200276D01*
Y201724D01*
X45125Y203123D01*
X44401Y204377D01*
X44333Y204445D01*
X44532Y204673D01*
X44618Y204927D01*
X44768Y205151D01*
X44872Y205674D01*
X45044Y206179D01*
X45026Y206448D01*
X45078Y206712D01*
Y215574D01*
X45026Y215838D01*
X45044Y216106D01*
X44872Y216611D01*
X44768Y217135D01*
X44619Y217358D01*
X44532Y217613D01*
X44180Y218014D01*
X43884Y218458D01*
X43660Y218607D01*
X43483Y218810D01*
X43004Y219045D01*
X42561Y219342D01*
X42411Y219372D01*
X41576Y220767D01*
X42269Y222592D01*
X42297Y222606D01*
X42561Y222658D01*
X43004Y222955D01*
X43483Y223190D01*
X43660Y223393D01*
X43884Y223542D01*
X44180Y223986D01*
X44532Y224387D01*
X44618Y224642D01*
X44768Y224865D01*
X44872Y225389D01*
X45044Y225894D01*
X45070Y225922D01*
X71667D01*
X72722Y225272D01*
X73374Y224430D01*
X73444Y224144D01*
Y223379D01*
X73819Y221981D01*
X74543Y220727D01*
X75567Y219702D01*
X76821Y218978D01*
X78220Y218604D01*
X79668D01*
X81067Y218978D01*
X82321Y219702D01*
X83345Y220727D01*
X84069Y221981D01*
X84444Y223379D01*
Y224143D01*
X84571Y224557D01*
X85252Y225325D01*
X86222Y225922D01*
X155116D01*
X155191Y225888D01*
X156316Y224709D01*
X156451Y224464D01*
X156574Y224000D01*
X156500Y223724D01*
Y222276D01*
X156875Y220877D01*
X157599Y219623D01*
X158623Y218599D01*
X159877Y217875D01*
X161276Y217500D01*
X162724D01*
X164123Y217875D01*
X165377Y218599D01*
X166401Y219623D01*
X167125Y220877D01*
X167500Y222276D01*
Y223724D01*
X167426Y224000D01*
X167549Y224464D01*
X167684Y224709D01*
X168809Y225888D01*
X168884Y225922D01*
X197000D01*
X197000Y225922D01*
X198561Y226232D01*
X199884Y227116D01*
X199884Y227116D01*
X262689Y289922D01*
X366500D01*
X366500Y289922D01*
X368061Y290232D01*
X369384Y291116D01*
X369384Y291116D01*
X372268Y294000D01*
X376000D01*
X417000Y335000D01*
Y369000D01*
X426000D01*
Y332768D01*
D02*
G37*
G36*
X283909Y267473D02*
X284361Y266129D01*
X275116Y256884D01*
X274232Y255561D01*
X273922Y254000D01*
X273922Y254000D01*
Y250182D01*
X272652Y249318D01*
X271973Y249500D01*
X270525D01*
X269126Y249125D01*
X267872Y248401D01*
X266848Y247377D01*
X266124Y246123D01*
X265749Y244724D01*
Y243276D01*
X266124Y241877D01*
X266848Y240623D01*
X267872Y239599D01*
X269126Y238875D01*
X270525Y238500D01*
X271973D01*
X272652Y238682D01*
X273922Y237818D01*
Y220998D01*
X272652Y220289D01*
X272000Y220665D01*
X270601Y221040D01*
X269153D01*
X267754Y220665D01*
X266500Y219941D01*
X265724Y219165D01*
X264938Y219018D01*
X264153Y219165D01*
X263377Y219941D01*
X262123Y220665D01*
X260724Y221040D01*
X259276D01*
X257877Y220665D01*
X256623Y219941D01*
X255599Y218917D01*
X254875Y217663D01*
X254500Y216264D01*
Y214816D01*
X254875Y213417D01*
X255599Y212163D01*
X256623Y211139D01*
X257877Y210415D01*
X259276Y210040D01*
X260724D01*
X262123Y210415D01*
X263377Y211139D01*
X264153Y211915D01*
X264938Y212062D01*
X265724Y211915D01*
X266500Y211139D01*
X267754Y210415D01*
X269153Y210040D01*
X270601D01*
X272000Y210415D01*
X272652Y210791D01*
X273922Y210082D01*
Y137805D01*
X272748Y137319D01*
X249078Y160989D01*
Y233311D01*
X283321Y267554D01*
X283909Y267473D01*
D02*
G37*
G36*
X381912Y245500D02*
Y240500D01*
X382261Y238744D01*
X383256Y237256D01*
X384744Y236261D01*
X386500Y235912D01*
X401170D01*
X401344Y235473D01*
X401527Y233923D01*
X400623Y233401D01*
X399599Y232377D01*
X398875Y231123D01*
X398500Y229724D01*
Y228276D01*
X398875Y226877D01*
X399599Y225623D01*
X400623Y224599D01*
X401877Y223875D01*
X403276Y223500D01*
X404724D01*
X406123Y223875D01*
X407377Y224599D01*
X408401Y225623D01*
X409125Y226877D01*
X409500Y228276D01*
Y229724D01*
X409125Y231123D01*
X408401Y232377D01*
X407377Y233401D01*
X406123Y234125D01*
X404724Y234500D01*
X403946D01*
X403837Y234777D01*
X403613Y236500D01*
X404744Y237256D01*
X405739Y238744D01*
X405774Y238922D01*
X423226D01*
X423261Y238744D01*
X424256Y237256D01*
X425744Y236261D01*
X427500Y235912D01*
X430922D01*
Y164088D01*
X427500D01*
X425744Y163739D01*
X424256Y162744D01*
X423261Y161256D01*
X423226Y161078D01*
X405774D01*
X405739Y161256D01*
X404744Y162744D01*
X403256Y163739D01*
X401500Y164088D01*
X386500D01*
X384744Y163739D01*
X383256Y162744D01*
X382261Y161256D01*
X381912Y159500D01*
Y158913D01*
X379912Y158700D01*
X374936D01*
X358588Y158700D01*
Y194100D01*
X378086Y213597D01*
X379123Y213875D01*
X380377Y214599D01*
X381401Y215623D01*
X382125Y216877D01*
X382500Y218276D01*
Y219724D01*
X382125Y221123D01*
X381401Y222377D01*
X380377Y223401D01*
X379123Y224125D01*
X377724Y224500D01*
X376276D01*
X374877Y224125D01*
X373623Y223401D01*
X372599Y222377D01*
X371875Y221123D01*
X371597Y220086D01*
X350756Y199244D01*
X349761Y197756D01*
X349412Y196000D01*
Y158700D01*
X331111D01*
X310000Y158700D01*
Y225300D01*
X310000Y247500D01*
X380271D01*
X381912Y245500D01*
D02*
G37*
G36*
X444902Y30176D02*
X443782Y29578D01*
X443052Y30065D01*
X439959Y31347D01*
X436674Y32000D01*
X433326D01*
X430041Y31347D01*
X426948Y30065D01*
X424163Y28205D01*
X421795Y25837D01*
X419935Y23052D01*
X418653Y19959D01*
X418000Y16674D01*
Y13326D01*
X418653Y10041D01*
X419935Y6948D01*
X420422Y6218D01*
X419824Y5098D01*
X296078D01*
Y21717D01*
X297348Y22057D01*
X297599Y21623D01*
X298623Y20599D01*
X299877Y19875D01*
X301276Y19500D01*
X302724D01*
X304123Y19875D01*
X305377Y20599D01*
X306401Y21623D01*
X306772Y22265D01*
X308228D01*
X308599Y21623D01*
X309623Y20599D01*
X310877Y19875D01*
X312276Y19500D01*
X313724D01*
X315123Y19875D01*
X316377Y20599D01*
X317401Y21623D01*
X318125Y22877D01*
X318500Y24276D01*
Y25724D01*
X318125Y27123D01*
X317401Y28377D01*
X317013Y28765D01*
X316853Y30052D01*
X317098Y30389D01*
X317866Y31157D01*
X318591Y32411D01*
X318965Y33810D01*
Y35259D01*
X320035Y36172D01*
X320600Y36324D01*
X321855Y37048D01*
X322878Y38072D01*
X323603Y39326D01*
X323977Y40725D01*
Y42173D01*
X323603Y43572D01*
X322878Y44826D01*
X321855Y45850D01*
X320600Y46574D01*
X319202Y46949D01*
X317753D01*
X316355Y46574D01*
X315100Y45850D01*
X314076Y44826D01*
X313352Y43572D01*
X312978Y42173D01*
Y40725D01*
X311908Y39811D01*
X311343Y39660D01*
X310088Y38935D01*
X309064Y37912D01*
X308340Y36657D01*
X307965Y35259D01*
Y33810D01*
X308340Y32411D01*
X309064Y31157D01*
X309452Y30769D01*
X309613Y29482D01*
X309367Y29146D01*
X308599Y28377D01*
X308228Y27735D01*
X306772D01*
X306401Y28377D01*
X305377Y29401D01*
X304123Y30125D01*
X302724Y30500D01*
X301276D01*
X299877Y30125D01*
X298623Y29401D01*
X297599Y28377D01*
X296875Y27123D01*
X296862Y27075D01*
X295512Y26944D01*
X294884Y27884D01*
X294773Y29006D01*
X295261Y29493D01*
X295261Y29493D01*
X299507Y33739D01*
X299507Y33739D01*
X303608Y37840D01*
X303608Y37840D01*
X303608Y37840D01*
X312160Y46392D01*
X312160Y46392D01*
X312160Y46392D01*
X321007Y55239D01*
X321007Y55239D01*
X322261Y56493D01*
X322261Y56493D01*
X329285Y63517D01*
X329285Y63517D01*
X329285Y63517D01*
X330759Y64991D01*
X330759Y64991D01*
X335297Y69529D01*
X335297Y69530D01*
X335297Y69530D01*
X339261Y73493D01*
X339261Y73493D01*
X339261Y73493D01*
X342861Y77093D01*
X344448Y76884D01*
X344599Y76623D01*
X345623Y75599D01*
X346877Y74875D01*
X348276Y74500D01*
X349724D01*
X351123Y74875D01*
X352377Y75599D01*
X353401Y76623D01*
X354125Y77877D01*
X354500Y79276D01*
Y80724D01*
X354125Y82123D01*
X353401Y83377D01*
X352377Y84401D01*
X352116Y84552D01*
X351907Y86139D01*
X352884Y87116D01*
X353768Y88439D01*
X354078Y90000D01*
X354078Y90000D01*
Y93521D01*
X354026Y93785D01*
X354044Y94053D01*
X353872Y94559D01*
X353768Y95082D01*
X353618Y95305D01*
X353532Y95560D01*
X353180Y95961D01*
X352884Y96405D01*
X352660Y96554D01*
X352483Y96757D01*
X351207Y97736D01*
X350728Y97971D01*
X350285Y98268D01*
X350021Y98320D01*
X349780Y98439D01*
X349247Y98474D01*
X348724Y98578D01*
X347813D01*
X347451Y98675D01*
X347127Y98862D01*
X346862Y99127D01*
X346675Y99451D01*
X346578Y99813D01*
Y100187D01*
X346675Y100549D01*
X346862Y100873D01*
X347127Y101138D01*
X347451Y101325D01*
X347813Y101422D01*
X348724D01*
X349247Y101526D01*
X349780Y101561D01*
X350021Y101680D01*
X350285Y101732D01*
X350728Y102029D01*
X351207Y102264D01*
X352483Y103243D01*
X352660Y103446D01*
X352884Y103595D01*
X353180Y104039D01*
X353532Y104440D01*
X353618Y104695D01*
X353768Y104918D01*
X353872Y105441D01*
X354044Y105947D01*
X354026Y106215D01*
X354078Y106479D01*
Y117000D01*
X353768Y118561D01*
X352884Y119884D01*
X343666Y129102D01*
X342343Y129986D01*
X342269Y130000D01*
Y130707D01*
X341894Y132105D01*
X341170Y133359D01*
X340146Y134383D01*
X338891Y135108D01*
X337493Y135482D01*
X336045D01*
X334646Y135108D01*
X334001Y134735D01*
X333377Y135048D01*
X332842Y135533D01*
Y136764D01*
X332467Y138163D01*
X331743Y139417D01*
X330719Y140441D01*
X329465Y141165D01*
X328066Y141540D01*
X326618D01*
X325888Y141344D01*
X324649Y141599D01*
X323925Y142853D01*
X322901Y143877D01*
X321647Y144601D01*
X320248Y144976D01*
X318800D01*
X317401Y144601D01*
X316147Y143877D01*
X314626Y144152D01*
X314377Y144401D01*
X313123Y145125D01*
X311724Y145500D01*
X310276D01*
X308877Y145125D01*
X307623Y144401D01*
X307350Y144128D01*
X306500Y143455D01*
X305650Y144128D01*
X305377Y144401D01*
X304123Y145125D01*
X302724Y145500D01*
X301276D01*
X299877Y145125D01*
X298623Y144401D01*
X297599Y143377D01*
X296875Y142123D01*
X296500Y140724D01*
Y139276D01*
X296875Y137877D01*
X297599Y136623D01*
X297922Y136300D01*
Y133492D01*
X297478Y133136D01*
X297319Y133095D01*
X295886Y133448D01*
X295552Y134028D01*
X294528Y135052D01*
X293273Y135776D01*
X291875Y136151D01*
X291418D01*
X287078Y140490D01*
Y150000D01*
X350034D01*
X350623Y149411D01*
X351877Y148687D01*
X353276Y148312D01*
X354724D01*
X356123Y148687D01*
X357377Y149411D01*
X357966Y150000D01*
X386057D01*
X386500Y149912D01*
X401500D01*
X401943Y150000D01*
X427057D01*
X427500Y149912D01*
X442500D01*
X442943Y150000D01*
X444902D01*
Y30176D01*
D02*
G37*
%LPC*%
G36*
X400570Y358540D02*
X399122D01*
X397723Y358165D01*
X396469Y357441D01*
X395445Y356417D01*
X394721Y355163D01*
X394346Y353764D01*
Y352316D01*
X394721Y350917D01*
X395445Y349663D01*
X396469Y348639D01*
X397723Y347915D01*
X399122Y347540D01*
X400570D01*
X401969Y347915D01*
X403223Y348639D01*
X404247Y349663D01*
X404971Y350917D01*
X405346Y352316D01*
Y353764D01*
X404971Y355163D01*
X404247Y356417D01*
X403223Y357441D01*
X401969Y358165D01*
X400570Y358540D01*
D02*
G37*
G36*
X139724Y393500D02*
X138276D01*
X136877Y393125D01*
X135623Y392401D01*
X134599Y391377D01*
X133875Y390123D01*
X133500Y388724D01*
Y387276D01*
X133875Y385877D01*
X134599Y384623D01*
X135623Y383599D01*
X136877Y382875D01*
X138276Y382500D01*
X139724D01*
X141123Y382875D01*
X142377Y383599D01*
X143401Y384623D01*
X144125Y385877D01*
X144500Y387276D01*
Y388724D01*
X144125Y390123D01*
X143401Y391377D01*
X142377Y392401D01*
X141123Y393125D01*
X139724Y393500D01*
D02*
G37*
G36*
X230724Y392500D02*
X229276D01*
X227877Y392125D01*
X226623Y391401D01*
X225599Y390377D01*
X224875Y389123D01*
X224500Y387724D01*
Y386276D01*
X224875Y384877D01*
X225599Y383623D01*
X226623Y382599D01*
X227877Y381875D01*
X229276Y381500D01*
X230724D01*
X232123Y381875D01*
X233377Y382599D01*
X234401Y383623D01*
X235125Y384877D01*
X235500Y386276D01*
Y387724D01*
X235125Y389123D01*
X234401Y390377D01*
X233377Y391401D01*
X232123Y392125D01*
X230724Y392500D01*
D02*
G37*
G36*
X211724D02*
X210276D01*
X208877Y392125D01*
X207623Y391401D01*
X206599Y390377D01*
X205875Y389123D01*
X205500Y387724D01*
Y386276D01*
X205875Y384877D01*
X206599Y383623D01*
X207623Y382599D01*
X208877Y381875D01*
X210276Y381500D01*
X211724D01*
X213123Y381875D01*
X214377Y382599D01*
X215401Y383623D01*
X216125Y384877D01*
X216500Y386276D01*
Y387724D01*
X216125Y389123D01*
X215401Y390377D01*
X214377Y391401D01*
X213123Y392125D01*
X211724Y392500D01*
D02*
G37*
G36*
X193724D02*
X192276D01*
X190877Y392125D01*
X189623Y391401D01*
X188599Y390377D01*
X187875Y389123D01*
X187500Y387724D01*
Y386276D01*
X187875Y384877D01*
X188599Y383623D01*
X189623Y382599D01*
X190877Y381875D01*
X192276Y381500D01*
X193724D01*
X195123Y381875D01*
X196377Y382599D01*
X197401Y383623D01*
X198125Y384877D01*
X198500Y386276D01*
Y387724D01*
X198125Y389123D01*
X197401Y390377D01*
X196377Y391401D01*
X195123Y392125D01*
X193724Y392500D01*
D02*
G37*
G36*
X267724Y378500D02*
X266276D01*
X264877Y378125D01*
X263623Y377401D01*
X262599Y376377D01*
X261875Y375123D01*
X261500Y373724D01*
Y372276D01*
X261875Y370877D01*
X262599Y369623D01*
X263623Y368599D01*
X264877Y367875D01*
X266276Y367500D01*
X267724D01*
X269123Y367875D01*
X270377Y368599D01*
X271401Y369623D01*
X272125Y370877D01*
X272500Y372276D01*
Y373724D01*
X272125Y375123D01*
X271401Y376377D01*
X270377Y377401D01*
X269123Y378125D01*
X267724Y378500D01*
D02*
G37*
G36*
X330724Y373500D02*
X329276D01*
X327877Y373125D01*
X326623Y372401D01*
X325599Y371377D01*
X324875Y370123D01*
X324500Y368724D01*
Y367276D01*
X324875Y365877D01*
X325599Y364623D01*
X326623Y363599D01*
X327877Y362875D01*
X329276Y362500D01*
X330724D01*
X332123Y362875D01*
X333377Y363599D01*
X334401Y364623D01*
X335125Y365877D01*
X335500Y367276D01*
Y368724D01*
X335125Y370123D01*
X334401Y371377D01*
X333377Y372401D01*
X332123Y373125D01*
X330724Y373500D01*
D02*
G37*
G36*
X241724D02*
X240276D01*
X238877Y373125D01*
X237623Y372401D01*
X236599Y371377D01*
X235875Y370123D01*
X235500Y368724D01*
Y367276D01*
X235875Y365877D01*
X236599Y364623D01*
X237623Y363599D01*
X238877Y362875D01*
X240276Y362500D01*
X241724D01*
X243123Y362875D01*
X244377Y363599D01*
X245401Y364623D01*
X246125Y365877D01*
X246500Y367276D01*
Y368724D01*
X246125Y370123D01*
X245401Y371377D01*
X244377Y372401D01*
X243123Y373125D01*
X241724Y373500D01*
D02*
G37*
G36*
X221724D02*
X220276D01*
X218877Y373125D01*
X217623Y372401D01*
X216599Y371377D01*
X215875Y370123D01*
X215500Y368724D01*
Y367276D01*
X215875Y365877D01*
X216599Y364623D01*
X217623Y363599D01*
X218877Y362875D01*
X220276Y362500D01*
X221724D01*
X223123Y362875D01*
X224377Y363599D01*
X225401Y364623D01*
X226125Y365877D01*
X226500Y367276D01*
Y368724D01*
X226125Y370123D01*
X225401Y371377D01*
X224377Y372401D01*
X223123Y373125D01*
X221724Y373500D01*
D02*
G37*
G36*
X350184Y365585D02*
X348736D01*
X347337Y365210D01*
X346083Y364486D01*
X345059Y363462D01*
X344335Y362208D01*
X343960Y360809D01*
Y359361D01*
X344335Y357962D01*
X345059Y356708D01*
X346083Y355684D01*
X347337Y354960D01*
X348736Y354585D01*
X350184D01*
X351583Y354960D01*
X352837Y355684D01*
X353861Y356708D01*
X354585Y357962D01*
X354960Y359361D01*
Y360809D01*
X354585Y362208D01*
X353861Y363462D01*
X352837Y364486D01*
X351583Y365210D01*
X350184Y365585D01*
D02*
G37*
G36*
X351724Y334500D02*
X350276D01*
X348877Y334125D01*
X347623Y333401D01*
X346599Y332377D01*
X345875Y331123D01*
X345500Y329724D01*
Y328276D01*
X345875Y326877D01*
X346599Y325623D01*
X347623Y324599D01*
X348877Y323875D01*
X350276Y323500D01*
X351724D01*
X353123Y323875D01*
X354377Y324599D01*
X355401Y325623D01*
X356125Y326877D01*
X356500Y328276D01*
Y329724D01*
X356125Y331123D01*
X355401Y332377D01*
X354377Y333401D01*
X353123Y334125D01*
X351724Y334500D01*
D02*
G37*
G36*
X201724Y293500D02*
X200276D01*
X198877Y293125D01*
X197623Y292401D01*
X196599Y291377D01*
X195875Y290123D01*
X195500Y288724D01*
Y287276D01*
X195875Y285877D01*
X196599Y284623D01*
X197623Y283599D01*
X198877Y282875D01*
X200276Y282500D01*
X201724D01*
X203123Y282875D01*
X204377Y283599D01*
X205401Y284623D01*
X206125Y285877D01*
X206500Y287276D01*
Y288724D01*
X206125Y290123D01*
X205401Y291377D01*
X204377Y292401D01*
X203123Y293125D01*
X201724Y293500D01*
D02*
G37*
G36*
X26724Y192500D02*
X25276D01*
X23877Y192125D01*
X22623Y191401D01*
X21599Y190377D01*
X20875Y189123D01*
X20500Y187724D01*
Y186276D01*
X20875Y184877D01*
X21599Y183623D01*
X22623Y182599D01*
X23877Y181875D01*
X25276Y181500D01*
X26724D01*
X28123Y181875D01*
X29377Y182599D01*
X30401Y183623D01*
X31125Y184877D01*
X31500Y186276D01*
Y187724D01*
X31125Y189123D01*
X30401Y190377D01*
X29377Y191401D01*
X28123Y192125D01*
X26724Y192500D01*
D02*
G37*
G36*
X15724Y183500D02*
X14276D01*
X12877Y183125D01*
X11623Y182401D01*
X10599Y181377D01*
X9875Y180123D01*
X9500Y178724D01*
Y177276D01*
X9875Y175877D01*
X10599Y174623D01*
X11623Y173599D01*
X12877Y172875D01*
X14276Y172500D01*
X15724D01*
X17123Y172875D01*
X18377Y173599D01*
X19401Y174623D01*
X20125Y175877D01*
X20500Y177276D01*
Y178724D01*
X20125Y180123D01*
X19401Y181377D01*
X18377Y182401D01*
X17123Y183125D01*
X15724Y183500D01*
D02*
G37*
G36*
X30724Y155500D02*
X29276D01*
X27877Y155125D01*
X26623Y154401D01*
X25599Y153377D01*
X24875Y152123D01*
X24500Y150724D01*
Y149276D01*
X24875Y147877D01*
X25599Y146623D01*
X26623Y145599D01*
X27877Y144875D01*
X29276Y144500D01*
X30724D01*
X32123Y144875D01*
X33377Y145599D01*
X34401Y146623D01*
X35125Y147877D01*
X35500Y149276D01*
Y150724D01*
X35125Y152123D01*
X34401Y153377D01*
X33377Y154401D01*
X32123Y155125D01*
X30724Y155500D01*
D02*
G37*
G36*
X15724D02*
X14276D01*
X12877Y155125D01*
X11623Y154401D01*
X10599Y153377D01*
X9875Y152123D01*
X9500Y150724D01*
Y149276D01*
X9875Y147877D01*
X10599Y146623D01*
X11623Y145599D01*
X12877Y144875D01*
X14276Y144500D01*
X15724D01*
X17123Y144875D01*
X18377Y145599D01*
X19401Y146623D01*
X20125Y147877D01*
X20500Y149276D01*
Y150724D01*
X20125Y152123D01*
X19401Y153377D01*
X18377Y154401D01*
X17123Y155125D01*
X15724Y155500D01*
D02*
G37*
G36*
X22724Y125500D02*
X21276D01*
X19877Y125125D01*
X18623Y124401D01*
X17599Y123377D01*
X16875Y122123D01*
X16500Y120724D01*
Y119276D01*
X16875Y117877D01*
X17599Y116623D01*
X18623Y115599D01*
X19877Y114875D01*
X21276Y114500D01*
X22724D01*
X24123Y114875D01*
X25377Y115599D01*
X26401Y116623D01*
X27125Y117877D01*
X27500Y119276D01*
Y120724D01*
X27125Y122123D01*
X26401Y123377D01*
X25377Y124401D01*
X24123Y125125D01*
X22724Y125500D01*
D02*
G37*
G36*
X23724Y93500D02*
X22276D01*
X20877Y93125D01*
X19623Y92401D01*
X18599Y91377D01*
X17875Y90123D01*
X17500Y88724D01*
Y87276D01*
X17875Y85877D01*
X18599Y84623D01*
X19623Y83599D01*
X20877Y82875D01*
X22276Y82500D01*
X23724D01*
X25123Y82875D01*
X26377Y83599D01*
X27401Y84623D01*
X28125Y85877D01*
X28500Y87276D01*
Y88724D01*
X28125Y90123D01*
X27401Y91377D01*
X26377Y92401D01*
X25123Y93125D01*
X23724Y93500D01*
D02*
G37*
G36*
X30724Y55500D02*
X29276D01*
X27877Y55125D01*
X26623Y54401D01*
X25599Y53377D01*
X24875Y52123D01*
X24500Y50724D01*
Y49276D01*
X24875Y47877D01*
X25599Y46623D01*
X26623Y45599D01*
X27877Y44875D01*
X29276Y44500D01*
X30724D01*
X32123Y44875D01*
X33377Y45599D01*
X34401Y46623D01*
X35125Y47877D01*
X35500Y49276D01*
Y50724D01*
X35125Y52123D01*
X34401Y53377D01*
X33377Y54401D01*
X32123Y55125D01*
X30724Y55500D01*
D02*
G37*
G36*
X15724D02*
X14276D01*
X12877Y55125D01*
X11623Y54401D01*
X10599Y53377D01*
X9875Y52123D01*
X9500Y50724D01*
Y49276D01*
X9875Y47877D01*
X10599Y46623D01*
X11623Y45599D01*
X12877Y44875D01*
X14276Y44500D01*
X15724D01*
X17123Y44875D01*
X18377Y45599D01*
X19401Y46623D01*
X20125Y47877D01*
X20500Y49276D01*
Y50724D01*
X20125Y52123D01*
X19401Y53377D01*
X18377Y54401D01*
X17123Y55125D01*
X15724Y55500D01*
D02*
G37*
G36*
X162724Y214500D02*
X161276D01*
X159877Y214125D01*
X158623Y213401D01*
X157599Y212377D01*
X156875Y211123D01*
X156500Y209724D01*
Y208276D01*
X156875Y206877D01*
X157599Y205623D01*
X158623Y204599D01*
X159877Y203875D01*
X161276Y203500D01*
X162724D01*
X164123Y203875D01*
X165377Y204599D01*
X166401Y205623D01*
X167125Y206877D01*
X167500Y208276D01*
Y209724D01*
X167125Y211123D01*
X166401Y212377D01*
X165377Y213401D01*
X164123Y214125D01*
X162724Y214500D01*
D02*
G37*
G36*
X121724Y208500D02*
X120276D01*
X118877Y208125D01*
X117623Y207401D01*
X116599Y206377D01*
X115875Y205123D01*
X115500Y203724D01*
Y202276D01*
X115875Y200877D01*
X116599Y199623D01*
X117623Y198599D01*
X118877Y197875D01*
X120276Y197500D01*
X121724D01*
X123123Y197875D01*
X124377Y198599D01*
X125401Y199623D01*
X126125Y200877D01*
X126500Y202276D01*
Y203724D01*
X126125Y205123D01*
X125401Y206377D01*
X124377Y207401D01*
X123123Y208125D01*
X121724Y208500D01*
D02*
G37*
G36*
X95954Y195839D02*
X94506D01*
X93107Y195464D01*
X91853Y194740D01*
X90829Y193716D01*
X90105Y192462D01*
X89730Y191063D01*
Y189615D01*
X90105Y188216D01*
X90829Y186962D01*
X91853Y185938D01*
X93107Y185214D01*
X94506Y184839D01*
X95954D01*
X97353Y185214D01*
X98607Y185938D01*
X99631Y186962D01*
X100356Y188216D01*
X100730Y189615D01*
Y191063D01*
X100356Y192462D01*
X99631Y193716D01*
X98607Y194740D01*
X97353Y195464D01*
X95954Y195839D01*
D02*
G37*
G36*
X163684Y178500D02*
X162236D01*
X160837Y178125D01*
X159583Y177401D01*
X158559Y176377D01*
X157835Y175123D01*
X157460Y173724D01*
Y172276D01*
X157835Y170877D01*
X158559Y169623D01*
X159583Y168599D01*
X160837Y167875D01*
X162236Y167500D01*
X163684D01*
X165083Y167875D01*
X166337Y168599D01*
X167361Y169623D01*
X168085Y170877D01*
X168460Y172276D01*
Y173724D01*
X168085Y175123D01*
X167361Y176377D01*
X166337Y177401D01*
X165083Y178125D01*
X163684Y178500D01*
D02*
G37*
G36*
X62724Y161500D02*
X61276D01*
X59877Y161125D01*
X58623Y160401D01*
X57599Y159377D01*
X56875Y158123D01*
X56500Y156724D01*
Y155276D01*
X56875Y153877D01*
X57599Y152623D01*
X58623Y151599D01*
X59877Y150875D01*
X61276Y150500D01*
X62724D01*
X64123Y150875D01*
X65377Y151599D01*
X66401Y152623D01*
X67125Y153877D01*
X67500Y155276D01*
Y156724D01*
X67125Y158123D01*
X66401Y159377D01*
X65377Y160401D01*
X64123Y161125D01*
X62724Y161500D01*
D02*
G37*
G36*
X224724Y154500D02*
X223276D01*
X221877Y154125D01*
X220623Y153401D01*
X219599Y152377D01*
X218875Y151123D01*
X218500Y149724D01*
Y148276D01*
X218875Y146877D01*
X219599Y145623D01*
X220623Y144599D01*
X221877Y143875D01*
X223276Y143500D01*
X224724D01*
X226123Y143875D01*
X227377Y144599D01*
X228401Y145623D01*
X229125Y146877D01*
X229500Y148276D01*
Y149724D01*
X229125Y151123D01*
X228401Y152377D01*
X227377Y153401D01*
X226123Y154125D01*
X224724Y154500D01*
D02*
G37*
G36*
X153724Y157500D02*
X152276D01*
X150877Y157125D01*
X149623Y156401D01*
X148599Y155377D01*
X147875Y154123D01*
X147500Y152724D01*
Y151276D01*
X147875Y149877D01*
X148599Y148623D01*
X148918Y148304D01*
X149401Y147000D01*
X148918Y145696D01*
X148599Y145377D01*
X147875Y144123D01*
X147500Y142724D01*
Y141276D01*
X147875Y139877D01*
X148599Y138623D01*
X149552Y137670D01*
X149623Y137583D01*
X149623Y135417D01*
X149552Y135330D01*
X148599Y134377D01*
X147875Y133123D01*
X147500Y131724D01*
Y130276D01*
X147875Y128877D01*
X148599Y127623D01*
X149623Y126599D01*
X150877Y125875D01*
X152276Y125500D01*
X153724D01*
X155123Y125875D01*
X156377Y126599D01*
X157401Y127623D01*
X158125Y128877D01*
X158500Y130276D01*
Y131724D01*
X158125Y133123D01*
X157401Y134377D01*
X156448Y135330D01*
X156377Y135417D01*
Y137583D01*
X156448Y137670D01*
X157401Y138623D01*
X158125Y139877D01*
X158500Y141276D01*
Y142724D01*
X158125Y144123D01*
X157401Y145377D01*
X157082Y145696D01*
X156599Y147000D01*
X157082Y148304D01*
X157401Y148623D01*
X158125Y149877D01*
X158500Y151276D01*
Y152724D01*
X158125Y154123D01*
X157401Y155377D01*
X156377Y156401D01*
X155123Y157125D01*
X153724Y157500D01*
D02*
G37*
G36*
X224724Y129500D02*
X223276D01*
X221877Y129125D01*
X220623Y128401D01*
X219599Y127377D01*
X218875Y126123D01*
X218500Y124724D01*
Y123276D01*
X218875Y121877D01*
X219599Y120623D01*
X220623Y119599D01*
X221877Y118875D01*
X222335Y117123D01*
X221960Y115724D01*
Y114276D01*
X222335Y112877D01*
X223059Y111623D01*
X224083Y110599D01*
X225337Y109875D01*
X226736Y109500D01*
X228184D01*
X229583Y109875D01*
X230837Y110599D01*
X231861Y111623D01*
X232585Y112877D01*
X232960Y114276D01*
Y115724D01*
X232585Y117123D01*
X231861Y118377D01*
X230837Y119401D01*
X229583Y120125D01*
X229125Y121877D01*
X229500Y123276D01*
Y124724D01*
X229125Y126123D01*
X228401Y127377D01*
X227377Y128401D01*
X226123Y129125D01*
X224724Y129500D01*
D02*
G37*
G36*
X317724Y103500D02*
X316276D01*
X314877Y103125D01*
X313623Y102401D01*
X312599Y101377D01*
X311875Y100123D01*
X311500Y98724D01*
Y97276D01*
X311875Y95877D01*
X312599Y94623D01*
X312918Y94304D01*
X313401Y93000D01*
X312918Y91696D01*
X312599Y91377D01*
X311875Y90123D01*
X311500Y88724D01*
Y87276D01*
X311875Y85877D01*
X312599Y84623D01*
X313623Y83599D01*
X314877Y82875D01*
X316276Y82500D01*
X317724D01*
X319123Y82875D01*
X320377Y83599D01*
X321401Y84623D01*
X322125Y85877D01*
X322500Y87276D01*
Y88724D01*
X322125Y90123D01*
X321401Y91377D01*
X321082Y91696D01*
X320599Y93000D01*
X321082Y94304D01*
X321401Y94623D01*
X322125Y95877D01*
X322500Y97276D01*
Y98724D01*
X322125Y100123D01*
X321401Y101377D01*
X320377Y102401D01*
X319123Y103125D01*
X317724Y103500D01*
D02*
G37*
G36*
X124724Y92500D02*
X123276D01*
X121877Y92125D01*
X120623Y91401D01*
X119599Y90377D01*
X118875Y89123D01*
X118500Y87724D01*
Y86276D01*
X118875Y84877D01*
X119599Y83623D01*
X120623Y82599D01*
X121877Y81875D01*
X123276Y81500D01*
X124724D01*
X126123Y81875D01*
X127377Y82599D01*
X128401Y83623D01*
X129125Y84877D01*
X129500Y86276D01*
Y87724D01*
X129125Y89123D01*
X128401Y90377D01*
X127377Y91401D01*
X126123Y92125D01*
X124724Y92500D01*
D02*
G37*
G36*
X211724Y91500D02*
X210276D01*
X208877Y91125D01*
X207623Y90401D01*
X206599Y89377D01*
X205875Y88123D01*
X205500Y86724D01*
Y85276D01*
X205875Y83877D01*
X206599Y82623D01*
X207623Y81599D01*
X208877Y80875D01*
X210276Y80500D01*
X211724D01*
X213123Y80875D01*
X214377Y81599D01*
X215401Y82623D01*
X216125Y83877D01*
X216500Y85276D01*
Y86724D01*
X216125Y88123D01*
X215401Y89377D01*
X214377Y90401D01*
X213123Y91125D01*
X211724Y91500D01*
D02*
G37*
G36*
X54724D02*
X53276D01*
X51877Y91125D01*
X50623Y90401D01*
X49599Y89377D01*
X48875Y88123D01*
X48500Y86724D01*
Y85276D01*
X48875Y83877D01*
X49599Y82623D01*
X50623Y81599D01*
X51877Y80875D01*
X53276Y80500D01*
X54724D01*
X56123Y80875D01*
X57377Y81599D01*
X58401Y82623D01*
X59125Y83877D01*
X59500Y85276D01*
Y86724D01*
X59125Y88123D01*
X58401Y89377D01*
X57377Y90401D01*
X56123Y91125D01*
X54724Y91500D01*
D02*
G37*
G36*
X297724Y78500D02*
X296276D01*
X294877Y78125D01*
X293623Y77401D01*
X292599Y76377D01*
X291875Y75123D01*
X291500Y73724D01*
Y72276D01*
X291875Y70877D01*
X292599Y69623D01*
X293623Y68599D01*
X294877Y67875D01*
X296276Y67500D01*
X297724D01*
X299123Y67875D01*
X300377Y68599D01*
X301401Y69623D01*
X302125Y70877D01*
X302500Y72276D01*
Y73724D01*
X302125Y75123D01*
X301401Y76377D01*
X300377Y77401D01*
X299123Y78125D01*
X297724Y78500D01*
D02*
G37*
G36*
X209638Y72413D02*
X208190D01*
X206791Y72038D01*
X205537Y71314D01*
X204513Y70290D01*
X203789Y69036D01*
X203731Y68818D01*
X202960Y67597D01*
X201414Y67460D01*
X201264Y67500D01*
X199816D01*
X198417Y67125D01*
X197163Y66401D01*
X196139Y65377D01*
X195415Y64123D01*
X195040Y62724D01*
Y61276D01*
X195415Y59877D01*
X196139Y58623D01*
X197163Y57599D01*
X198417Y56875D01*
X199816Y56500D01*
X201264D01*
X202663Y56875D01*
X203917Y57599D01*
X204941Y58623D01*
X205665Y59877D01*
X205724Y60095D01*
X206494Y61316D01*
X208040Y61454D01*
X208190Y61413D01*
X209638D01*
X211037Y61788D01*
X212291Y62512D01*
X213315Y63536D01*
X214039Y64790D01*
X214414Y66189D01*
Y67637D01*
X214039Y69036D01*
X213315Y70290D01*
X212291Y71314D01*
X211037Y72038D01*
X209638Y72413D01*
D02*
G37*
G36*
X86724Y67500D02*
X85276D01*
X83877Y67125D01*
X82623Y66401D01*
X81599Y65377D01*
X80875Y64123D01*
X80500Y62724D01*
Y61276D01*
X80875Y59877D01*
X81599Y58623D01*
X82623Y57599D01*
X83877Y56875D01*
X85276Y56500D01*
X86724D01*
X88123Y56875D01*
X89377Y57599D01*
X90401Y58623D01*
X91125Y59877D01*
X91500Y61276D01*
Y62724D01*
X91125Y64123D01*
X90401Y65377D01*
X89377Y66401D01*
X88123Y67125D01*
X86724Y67500D01*
D02*
G37*
G36*
X169724D02*
X168276D01*
X166877Y67125D01*
X165623Y66401D01*
X164599Y65377D01*
X163875Y64123D01*
X163500Y62724D01*
Y61276D01*
X163875Y59877D01*
X164599Y58623D01*
X165623Y57599D01*
X166877Y56875D01*
X168276Y56500D01*
X169724D01*
X171123Y56875D01*
X171582Y57140D01*
X171915Y57067D01*
X173500Y56027D01*
Y55276D01*
X173875Y53877D01*
X174599Y52623D01*
X175623Y51599D01*
X176877Y50875D01*
X178276Y50500D01*
X179724D01*
X181123Y50875D01*
X182377Y51599D01*
X183401Y52623D01*
X184125Y53877D01*
X184500Y55276D01*
Y56724D01*
X184125Y58123D01*
X183401Y59377D01*
X182377Y60401D01*
X181123Y61125D01*
X179724Y61500D01*
X178276D01*
X176877Y61125D01*
X176418Y60860D01*
X176084Y60933D01*
X174500Y61973D01*
Y62724D01*
X174125Y64123D01*
X173401Y65377D01*
X172377Y66401D01*
X171123Y67125D01*
X169724Y67500D01*
D02*
G37*
G36*
X110724Y45500D02*
X109276D01*
X107877Y45125D01*
X106623Y44401D01*
X105599Y43377D01*
X104875Y42123D01*
X104500Y40724D01*
Y39276D01*
X104875Y37877D01*
X105599Y36623D01*
X106623Y35599D01*
X107877Y34875D01*
X109276Y34500D01*
X110724D01*
X112123Y34875D01*
X113377Y35599D01*
X114401Y36623D01*
X115125Y37877D01*
X115500Y39276D01*
Y40724D01*
X115125Y42123D01*
X114401Y43377D01*
X113377Y44401D01*
X112123Y45125D01*
X110724Y45500D01*
D02*
G37*
G36*
X227724Y34500D02*
X226276D01*
X224877Y34125D01*
X223623Y33401D01*
X222599Y32377D01*
X221875Y31123D01*
X221500Y29724D01*
Y28276D01*
X221875Y26877D01*
X222599Y25623D01*
X223623Y24599D01*
X224877Y23875D01*
X226276Y23500D01*
X227724D01*
X229123Y23875D01*
X230377Y24599D01*
X231401Y25623D01*
X232125Y26877D01*
X232500Y28276D01*
Y29724D01*
X232125Y31123D01*
X231401Y32377D01*
X230377Y33401D01*
X229123Y34125D01*
X227724Y34500D01*
D02*
G37*
G36*
X400703Y221960D02*
X399255D01*
X397856Y221585D01*
X396602Y220861D01*
X395578Y219837D01*
X394854Y218583D01*
X394479Y217184D01*
Y215736D01*
X394854Y214337D01*
X395578Y213083D01*
X396602Y212059D01*
X397856Y211335D01*
X399255Y210960D01*
X400703D01*
X402102Y211335D01*
X403356Y212059D01*
X404380Y213083D01*
X405104Y214337D01*
X405479Y215736D01*
Y217184D01*
X405104Y218583D01*
X404380Y219837D01*
X403356Y220861D01*
X402102Y221585D01*
X400703Y221960D01*
D02*
G37*
G36*
X402027Y190197D02*
X400579D01*
X399180Y189822D01*
X397926Y189098D01*
X396902Y188074D01*
X396178Y186820D01*
X395803Y185421D01*
Y183973D01*
X396178Y182574D01*
X396902Y181320D01*
X397926Y180296D01*
X399180Y179572D01*
X400579Y179197D01*
X402027D01*
X403426Y179572D01*
X404680Y180296D01*
X405704Y181320D01*
X406428Y182574D01*
X406803Y183973D01*
Y185421D01*
X406428Y186820D01*
X405704Y188074D01*
X404680Y189098D01*
X403426Y189822D01*
X402027Y190197D01*
D02*
G37*
G36*
X431182Y142000D02*
X428818D01*
X426500Y141539D01*
X424316Y140634D01*
X422350Y139321D01*
X420679Y137650D01*
X419366Y135684D01*
X418461Y133500D01*
X418000Y131182D01*
Y128818D01*
X418461Y126500D01*
X419366Y124316D01*
X420679Y122350D01*
X422350Y120679D01*
X424316Y119366D01*
X426500Y118461D01*
X428818Y118000D01*
X431182D01*
X433500Y118461D01*
X435684Y119366D01*
X437650Y120679D01*
X439321Y122350D01*
X440634Y124316D01*
X441539Y126500D01*
X442000Y128818D01*
Y131182D01*
X441539Y133500D01*
X440634Y135684D01*
X439321Y137650D01*
X437650Y139321D01*
X435684Y140634D01*
X433500Y141539D01*
X431182Y142000D01*
D02*
G37*
G36*
X396182D02*
X393818D01*
X391500Y141539D01*
X389316Y140634D01*
X387350Y139321D01*
X385679Y137650D01*
X384366Y135684D01*
X383461Y133500D01*
X383000Y131182D01*
Y128818D01*
X383461Y126500D01*
X384366Y124316D01*
X385679Y122350D01*
X387350Y120679D01*
X389316Y119366D01*
X391500Y118461D01*
X393818Y118000D01*
X396182D01*
X398500Y118461D01*
X400684Y119366D01*
X402650Y120679D01*
X404321Y122350D01*
X405634Y124316D01*
X406539Y126500D01*
X407000Y128818D01*
Y131182D01*
X406539Y133500D01*
X405634Y135684D01*
X404321Y137650D01*
X402650Y139321D01*
X400684Y140634D01*
X398500Y141539D01*
X396182Y142000D01*
D02*
G37*
G36*
X431182Y107000D02*
X428818D01*
X426500Y106539D01*
X424316Y105634D01*
X422350Y104321D01*
X420679Y102650D01*
X419366Y100684D01*
X418461Y98500D01*
X418000Y96182D01*
Y93818D01*
X418461Y91500D01*
X419366Y89316D01*
X420679Y87350D01*
X422350Y85679D01*
X424316Y84366D01*
X426500Y83461D01*
X428818Y83000D01*
X431182D01*
X433500Y83461D01*
X435684Y84366D01*
X437650Y85679D01*
X439321Y87350D01*
X440634Y89316D01*
X441539Y91500D01*
X442000Y93818D01*
Y96182D01*
X441539Y98500D01*
X440634Y100684D01*
X439321Y102650D01*
X437650Y104321D01*
X435684Y105634D01*
X433500Y106539D01*
X431182Y107000D01*
D02*
G37*
G36*
Y72000D02*
X428818D01*
X426500Y71539D01*
X424316Y70634D01*
X422350Y69321D01*
X420679Y67649D01*
X419366Y65684D01*
X418461Y63500D01*
X418000Y61182D01*
Y58818D01*
X418461Y56500D01*
X419366Y54316D01*
X420679Y52350D01*
X422350Y50679D01*
X424316Y49366D01*
X426500Y48461D01*
X428818Y48000D01*
X431182D01*
X433500Y48461D01*
X435684Y49366D01*
X437650Y50679D01*
X439321Y52350D01*
X440634Y54316D01*
X441539Y56500D01*
X442000Y58818D01*
Y61182D01*
X441539Y63500D01*
X440634Y65684D01*
X439321Y67649D01*
X437650Y69321D01*
X435684Y70634D01*
X433500Y71539D01*
X431182Y72000D01*
D02*
G37*
G36*
X346724Y56500D02*
X345276D01*
X343877Y56125D01*
X342623Y55401D01*
X341599Y54377D01*
X340875Y53123D01*
X340500Y51724D01*
Y50276D01*
X340875Y48877D01*
X341599Y47623D01*
X342623Y46599D01*
X343877Y45875D01*
X345276Y45500D01*
X346724D01*
X348123Y45875D01*
X349377Y46599D01*
X350401Y47623D01*
X351125Y48877D01*
X351500Y50276D01*
Y51724D01*
X351125Y53123D01*
X350401Y54377D01*
X349377Y55401D01*
X348123Y56125D01*
X346724Y56500D01*
D02*
G37*
G36*
X341724Y32500D02*
X340276D01*
X338877Y32125D01*
X337623Y31401D01*
X336599Y30377D01*
X335875Y29123D01*
X335500Y27724D01*
Y26276D01*
X335875Y24877D01*
X336599Y23623D01*
X337623Y22599D01*
X338877Y21875D01*
X340276Y21500D01*
X341724D01*
X343123Y21875D01*
X344377Y22599D01*
X345401Y23623D01*
X346125Y24877D01*
X346500Y26276D01*
Y27724D01*
X346125Y29123D01*
X345401Y30377D01*
X344377Y31401D01*
X343123Y32125D01*
X341724Y32500D01*
D02*
G37*
G36*
X384724Y31500D02*
X383276D01*
X381877Y31125D01*
X380623Y30401D01*
X379599Y29377D01*
X378875Y28123D01*
X378500Y26724D01*
Y25276D01*
X378875Y23877D01*
X379599Y22623D01*
X380623Y21599D01*
X381877Y20875D01*
X383276Y20500D01*
X384724D01*
X386123Y20875D01*
X387377Y21599D01*
X388401Y22623D01*
X389125Y23877D01*
X389500Y25276D01*
Y26724D01*
X389125Y28123D01*
X388401Y29377D01*
X387377Y30401D01*
X386123Y31125D01*
X384724Y31500D01*
D02*
G37*
G36*
X329724Y18500D02*
X328276D01*
X326877Y18125D01*
X325623Y17401D01*
X324599Y16377D01*
X323875Y15123D01*
X323500Y13724D01*
Y12276D01*
X323875Y10877D01*
X324599Y9623D01*
X325623Y8599D01*
X326877Y7875D01*
X328276Y7500D01*
X329724D01*
X331123Y7875D01*
X332377Y8599D01*
X333401Y9623D01*
X334125Y10877D01*
X334500Y12276D01*
Y13724D01*
X334125Y15123D01*
X333401Y16377D01*
X332377Y17401D01*
X331123Y18125D01*
X329724Y18500D01*
D02*
G37*
%LPD*%
D11*
X235000Y241000D02*
X276000Y282000D01*
X235000Y155000D02*
X256000Y134000D01*
X235000Y155000D02*
Y241000D01*
X240000Y239000D02*
X278000Y277000D01*
X240000Y157000D02*
X260000Y137000D01*
X240000Y157000D02*
Y239000D01*
X245000Y235000D02*
X282000Y272000D01*
X245000Y159299D02*
Y235000D01*
Y159299D02*
X284799Y119500D01*
X265000Y112000D02*
X299000D01*
X260000Y117000D02*
X265000Y112000D01*
X260000Y117000D02*
Y137000D01*
X284799Y119500D02*
X297500D01*
X256000Y114000D02*
Y134000D01*
X283000Y138801D02*
Y252288D01*
Y138801D02*
X291150Y130651D01*
X284172Y253460D02*
X408460D01*
X283000Y252288D02*
X284172Y253460D01*
X291000Y267000D02*
X422693D01*
X278000Y254000D02*
X291000Y267000D01*
X278000Y134552D02*
Y254000D01*
X282000Y272000D02*
X407000D01*
X278000Y134552D02*
X288552Y124000D01*
X441000Y348000D02*
X441000Y348000D01*
X441000Y342000D02*
Y348000D01*
X381000Y282000D02*
X441000Y342000D01*
X276000Y282000D02*
X381000D01*
X278000Y277000D02*
X389000D01*
X441000Y329000D01*
X407000Y272000D02*
X441000Y306000D01*
X422693Y267000D02*
X441193Y285500D01*
X408460Y253460D02*
X414000Y259000D01*
X263000Y107000D02*
X302000D01*
X256000Y114000D02*
X263000Y107000D01*
X326948Y131948D02*
Y135646D01*
X327342Y136040D01*
X302000Y107000D02*
X326948Y131948D01*
X299000Y112000D02*
X319524Y132524D01*
X297500Y119500D02*
X311000Y133000D01*
X394000Y157000D02*
X435000D01*
Y243000D01*
X394000D02*
X435000D01*
X319524Y132524D02*
Y139476D01*
X311000Y133000D02*
Y140000D01*
X302000Y131000D02*
Y140000D01*
X295000Y124000D02*
X302000Y131000D01*
X288552Y124000D02*
X295000D01*
D65*
X354000Y196000D02*
X377000Y219000D01*
X354000Y153812D02*
Y196000D01*
D69*
X394000Y157000D02*
D03*
Y243000D02*
D03*
X435000Y157000D02*
D03*
Y243000D02*
D03*
D72*
X60000Y390000D02*
D03*
X40000Y370000D02*
D03*
Y390000D02*
D03*
X60000Y370000D02*
D03*
X255000Y159000D02*
D03*
Y167500D02*
D03*
Y182500D02*
D03*
Y192500D02*
D03*
X252000Y228000D02*
D03*
X265000Y27000D02*
D03*
X340000Y115000D02*
D03*
X441000Y348000D02*
D03*
X168000Y387000D02*
D03*
X176000Y368000D02*
D03*
X69000Y385000D02*
D03*
X96000Y373000D02*
D03*
X400460Y361558D02*
D03*
X334829Y120836D02*
D03*
X327342Y136040D02*
D03*
X246000Y122000D02*
D03*
Y131000D02*
D03*
X319524Y139476D02*
D03*
X311000Y140000D02*
D03*
X302000D02*
D03*
X291150Y130651D02*
D03*
X377000Y219000D02*
D03*
X354000Y153812D02*
D03*
X193000Y369000D02*
D03*
X334000Y227000D02*
D03*
X361000Y234000D02*
D03*
X420080Y368599D02*
D03*
X42000Y221000D02*
D03*
X348000Y100000D02*
D03*
X441193Y285500D02*
D03*
X441000Y306000D02*
D03*
Y329000D02*
D03*
X414000Y259000D02*
D03*
X383202Y328118D02*
D03*
X420000Y80000D02*
D03*
X410000Y110000D02*
D03*
Y50000D02*
D03*
Y30000D02*
D03*
X179000Y38000D02*
D03*
X283000Y21000D02*
D03*
X372000Y133000D02*
D03*
X311000Y375000D02*
D03*
X88000Y243000D02*
D03*
X96000D02*
D03*
X174000Y27000D02*
D03*
X184000D02*
D03*
M02*
