G04*
G04 #@! TF.GenerationSoftware,Altium Limited,Altium Designer,21.6.4 (81)*
G04*
G04 Layer_Physical_Order=6*
G04 Layer_Color=16711680*
%FSLAX44Y44*%
%MOMM*%
G71*
G04*
G04 #@! TF.SameCoordinates,D5C97574-E224-4ECB-8EF4-D48BC8F4BA3E*
G04*
G04*
G04 #@! TF.FilePolarity,Positive*
G04*
G01*
G75*
%ADD11C,0.2000*%
G04:AMPARAMS|DCode=13|XSize=1.2mm|YSize=0.6mm|CornerRadius=0.15mm|HoleSize=0mm|Usage=FLASHONLY|Rotation=180.000|XOffset=0mm|YOffset=0mm|HoleType=Round|Shape=RoundedRectangle|*
%AMROUNDEDRECTD13*
21,1,1.2000,0.3000,0,0,180.0*
21,1,0.9000,0.6000,0,0,180.0*
1,1,0.3000,-0.4500,0.1500*
1,1,0.3000,0.4500,0.1500*
1,1,0.3000,0.4500,-0.1500*
1,1,0.3000,-0.4500,-0.1500*
%
%ADD13ROUNDEDRECTD13*%
G04:AMPARAMS|DCode=15|XSize=1mm|YSize=1mm|CornerRadius=0.25mm|HoleSize=0mm|Usage=FLASHONLY|Rotation=90.000|XOffset=0mm|YOffset=0mm|HoleType=Round|Shape=RoundedRectangle|*
%AMROUNDEDRECTD15*
21,1,1.0000,0.5000,0,0,90.0*
21,1,0.5000,1.0000,0,0,90.0*
1,1,0.5000,0.2500,0.2500*
1,1,0.5000,0.2500,-0.2500*
1,1,0.5000,-0.2500,-0.2500*
1,1,0.5000,-0.2500,0.2500*
%
%ADD15ROUNDEDRECTD15*%
G04:AMPARAMS|DCode=16|XSize=0.6mm|YSize=0.6mm|CornerRadius=0.15mm|HoleSize=0mm|Usage=FLASHONLY|Rotation=270.000|XOffset=0mm|YOffset=0mm|HoleType=Round|Shape=RoundedRectangle|*
%AMROUNDEDRECTD16*
21,1,0.6000,0.3000,0,0,270.0*
21,1,0.3000,0.6000,0,0,270.0*
1,1,0.3000,-0.1500,-0.1500*
1,1,0.3000,-0.1500,0.1500*
1,1,0.3000,0.1500,0.1500*
1,1,0.3000,0.1500,-0.1500*
%
%ADD16ROUNDEDRECTD16*%
%ADD18C,0.2000*%
G04:AMPARAMS|DCode=20|XSize=1mm|YSize=1mm|CornerRadius=0.25mm|HoleSize=0mm|Usage=FLASHONLY|Rotation=0.000|XOffset=0mm|YOffset=0mm|HoleType=Round|Shape=RoundedRectangle|*
%AMROUNDEDRECTD20*
21,1,1.0000,0.5000,0,0,0.0*
21,1,0.5000,1.0000,0,0,0.0*
1,1,0.5000,0.2500,-0.2500*
1,1,0.5000,-0.2500,-0.2500*
1,1,0.5000,-0.2500,0.2500*
1,1,0.5000,0.2500,0.2500*
%
%ADD20ROUNDEDRECTD20*%
G04:AMPARAMS|DCode=28|XSize=2mm|YSize=1mm|CornerRadius=0.25mm|HoleSize=0mm|Usage=FLASHONLY|Rotation=90.000|XOffset=0mm|YOffset=0mm|HoleType=Round|Shape=RoundedRectangle|*
%AMROUNDEDRECTD28*
21,1,2.0000,0.5000,0,0,90.0*
21,1,1.5000,1.0000,0,0,90.0*
1,1,0.5000,0.2500,0.7500*
1,1,0.5000,0.2500,-0.7500*
1,1,0.5000,-0.2500,-0.7500*
1,1,0.5000,-0.2500,0.7500*
%
%ADD28ROUNDEDRECTD28*%
%ADD63C,0.4000*%
%ADD65C,0.3000*%
%ADD67C,0.2500*%
%ADD68C,0.5000*%
G04:AMPARAMS|DCode=69|XSize=2mm|YSize=1mm|CornerRadius=0.25mm|HoleSize=0mm|Usage=FLASHONLY|Rotation=180.000|XOffset=0mm|YOffset=0mm|HoleType=Round|Shape=RoundedRectangle|*
%AMROUNDEDRECTD69*
21,1,2.0000,0.5000,0,0,180.0*
21,1,1.5000,1.0000,0,0,180.0*
1,1,0.5000,-0.7500,0.2500*
1,1,0.5000,0.7500,0.2500*
1,1,0.5000,0.7500,-0.2500*
1,1,0.5000,-0.7500,-0.2500*
%
%ADD69ROUNDEDRECTD69*%
%ADD70C,2.0000*%
%ADD71C,3.0000*%
%ADD72C,0.6000*%
G04:AMPARAMS|DCode=77|XSize=0.74mm|YSize=0.28mm|CornerRadius=0.035mm|HoleSize=0mm|Usage=FLASHONLY|Rotation=180.000|XOffset=0mm|YOffset=0mm|HoleType=Round|Shape=RoundedRectangle|*
%AMROUNDEDRECTD77*
21,1,0.7400,0.2100,0,0,180.0*
21,1,0.6700,0.2800,0,0,180.0*
1,1,0.0700,-0.3350,0.1050*
1,1,0.0700,0.3350,0.1050*
1,1,0.0700,0.3350,-0.1050*
1,1,0.0700,-0.3350,-0.1050*
%
%ADD77ROUNDEDRECTD77*%
G04:AMPARAMS|DCode=78|XSize=0.9mm|YSize=1.6mm|CornerRadius=0.225mm|HoleSize=0mm|Usage=FLASHONLY|Rotation=180.000|XOffset=0mm|YOffset=0mm|HoleType=Round|Shape=RoundedRectangle|*
%AMROUNDEDRECTD78*
21,1,0.9000,1.1500,0,0,180.0*
21,1,0.4500,1.6000,0,0,180.0*
1,1,0.4500,-0.2250,0.5750*
1,1,0.4500,0.2250,0.5750*
1,1,0.4500,0.2250,-0.5750*
1,1,0.4500,-0.2250,-0.5750*
%
%ADD78ROUNDEDRECTD78*%
G04:AMPARAMS|DCode=79|XSize=0.2mm|YSize=0.2mm|CornerRadius=0.05mm|HoleSize=0mm|Usage=FLASHONLY|Rotation=90.000|XOffset=0mm|YOffset=0mm|HoleType=Round|Shape=RoundedRectangle|*
%AMROUNDEDRECTD79*
21,1,0.2000,0.1000,0,0,90.0*
21,1,0.1000,0.2000,0,0,90.0*
1,1,0.1000,0.0500,0.0500*
1,1,0.1000,0.0500,-0.0500*
1,1,0.1000,-0.0500,-0.0500*
1,1,0.1000,-0.0500,0.0500*
%
%ADD79ROUNDEDRECTD79*%
G04:AMPARAMS|DCode=80|XSize=5.4mm|YSize=5.4mm|CornerRadius=1.35mm|HoleSize=0mm|Usage=FLASHONLY|Rotation=180.000|XOffset=0mm|YOffset=0mm|HoleType=Round|Shape=RoundedRectangle|*
%AMROUNDEDRECTD80*
21,1,5.4000,2.7000,0,0,180.0*
21,1,2.7000,5.4000,0,0,180.0*
1,1,2.7000,-1.3500,1.3500*
1,1,2.7000,1.3500,1.3500*
1,1,2.7000,1.3500,-1.3500*
1,1,2.7000,-1.3500,-1.3500*
%
%ADD80ROUNDEDRECTD80*%
G04:AMPARAMS|DCode=81|XSize=0.8mm|YSize=0.3mm|CornerRadius=0.075mm|HoleSize=0mm|Usage=FLASHONLY|Rotation=270.000|XOffset=0mm|YOffset=0mm|HoleType=Round|Shape=RoundedRectangle|*
%AMROUNDEDRECTD81*
21,1,0.8000,0.1500,0,0,270.0*
21,1,0.6500,0.3000,0,0,270.0*
1,1,0.1500,-0.0750,-0.3250*
1,1,0.1500,-0.0750,0.3250*
1,1,0.1500,0.0750,0.3250*
1,1,0.1500,0.0750,-0.3250*
%
%ADD81ROUNDEDRECTD81*%
G04:AMPARAMS|DCode=82|XSize=0.8mm|YSize=0.3mm|CornerRadius=0.075mm|HoleSize=0mm|Usage=FLASHONLY|Rotation=0.000|XOffset=0mm|YOffset=0mm|HoleType=Round|Shape=RoundedRectangle|*
%AMROUNDEDRECTD82*
21,1,0.8000,0.1500,0,0,0.0*
21,1,0.6500,0.3000,0,0,0.0*
1,1,0.1500,0.3250,-0.0750*
1,1,0.1500,-0.3250,-0.0750*
1,1,0.1500,-0.3250,0.0750*
1,1,0.1500,0.3250,0.0750*
%
%ADD82ROUNDEDRECTD82*%
G04:AMPARAMS|DCode=83|XSize=2mm|YSize=0.6mm|CornerRadius=0.15mm|HoleSize=0mm|Usage=FLASHONLY|Rotation=180.000|XOffset=0mm|YOffset=0mm|HoleType=Round|Shape=RoundedRectangle|*
%AMROUNDEDRECTD83*
21,1,2.0000,0.3000,0,0,180.0*
21,1,1.7000,0.6000,0,0,180.0*
1,1,0.3000,-0.8500,0.1500*
1,1,0.3000,0.8500,0.1500*
1,1,0.3000,0.8500,-0.1500*
1,1,0.3000,-0.8500,-0.1500*
%
%ADD83ROUNDEDRECTD83*%
G04:AMPARAMS|DCode=84|XSize=0.4mm|YSize=0.4mm|CornerRadius=0.1mm|HoleSize=0mm|Usage=FLASHONLY|Rotation=180.000|XOffset=0mm|YOffset=0mm|HoleType=Round|Shape=RoundedRectangle|*
%AMROUNDEDRECTD84*
21,1,0.4000,0.2000,0,0,180.0*
21,1,0.2000,0.4000,0,0,180.0*
1,1,0.2000,-0.1000,0.1000*
1,1,0.2000,0.1000,0.1000*
1,1,0.2000,0.1000,-0.1000*
1,1,0.2000,-0.1000,-0.1000*
%
%ADD84ROUNDEDRECTD84*%
G04:AMPARAMS|DCode=85|XSize=5mm|YSize=2mm|CornerRadius=0.5mm|HoleSize=0mm|Usage=FLASHONLY|Rotation=0.000|XOffset=0mm|YOffset=0mm|HoleType=Round|Shape=RoundedRectangle|*
%AMROUNDEDRECTD85*
21,1,5.0000,1.0000,0,0,0.0*
21,1,4.0000,2.0000,0,0,0.0*
1,1,1.0000,2.0000,-0.5000*
1,1,1.0000,-2.0000,-0.5000*
1,1,1.0000,-2.0000,0.5000*
1,1,1.0000,2.0000,0.5000*
%
%ADD85ROUNDEDRECTD85*%
G04:AMPARAMS|DCode=86|XSize=0.85mm|YSize=0.75mm|CornerRadius=0.1875mm|HoleSize=0mm|Usage=FLASHONLY|Rotation=0.000|XOffset=0mm|YOffset=0mm|HoleType=Round|Shape=RoundedRectangle|*
%AMROUNDEDRECTD86*
21,1,0.8500,0.3750,0,0,0.0*
21,1,0.4750,0.7500,0,0,0.0*
1,1,0.3750,0.2375,-0.1875*
1,1,0.3750,-0.2375,-0.1875*
1,1,0.3750,-0.2375,0.1875*
1,1,0.3750,0.2375,0.1875*
%
%ADD86ROUNDEDRECTD86*%
G04:AMPARAMS|DCode=87|XSize=1mm|YSize=0.6mm|CornerRadius=0.15mm|HoleSize=0mm|Usage=FLASHONLY|Rotation=0.000|XOffset=0mm|YOffset=0mm|HoleType=Round|Shape=RoundedRectangle|*
%AMROUNDEDRECTD87*
21,1,1.0000,0.3000,0,0,0.0*
21,1,0.7000,0.6000,0,0,0.0*
1,1,0.3000,0.3500,-0.1500*
1,1,0.3000,-0.3500,-0.1500*
1,1,0.3000,-0.3500,0.1500*
1,1,0.3000,0.3500,0.1500*
%
%ADD87ROUNDEDRECTD87*%
%ADD88C,0.6000*%
G36*
X321497Y394902D02*
X321633Y394724D01*
Y393276D01*
X321692Y393055D01*
X320919Y392048D01*
X317500D01*
X316064Y391858D01*
X314726Y391304D01*
X313577Y390423D01*
X313293Y390052D01*
X307144D01*
X307125Y390123D01*
X306401Y391377D01*
X305377Y392401D01*
X304123Y393125D01*
X302724Y393500D01*
X301276D01*
X299877Y393125D01*
X298623Y392401D01*
X298269Y392048D01*
X296500D01*
X295064Y391858D01*
X293726Y391304D01*
X292577Y390423D01*
X291696Y389274D01*
X291142Y387936D01*
X290953Y386500D01*
Y381500D01*
X291142Y380064D01*
X291696Y378726D01*
X292577Y377577D01*
X293726Y376696D01*
X293747Y376687D01*
Y375313D01*
X293726Y375304D01*
X292577Y374423D01*
X291696Y373274D01*
X291142Y371936D01*
X290953Y370500D01*
Y365500D01*
X291042Y364818D01*
X290085Y363547D01*
X249915D01*
X248958Y364818D01*
X249047Y365500D01*
Y370500D01*
X248858Y371936D01*
X248304Y373274D01*
X247423Y374423D01*
X246274Y375304D01*
X244936Y375858D01*
X243500Y376047D01*
X238720D01*
X235884Y378884D01*
X234561Y379768D01*
X233000Y380078D01*
X233000Y380078D01*
X147000D01*
X147000Y380078D01*
X145439Y379768D01*
X144116Y378884D01*
X144116Y378884D01*
X141280Y376048D01*
X136500D01*
X135064Y375858D01*
X133726Y375304D01*
X132577Y374423D01*
X131696Y373274D01*
X131201Y372078D01*
X127768D01*
X127499Y372363D01*
X127244Y372744D01*
Y373256D01*
X128239Y374744D01*
X128588Y376500D01*
Y379500D01*
X128239Y381256D01*
X127647Y382142D01*
X128326Y383412D01*
X131412D01*
X131696Y382726D01*
X132577Y381577D01*
X133726Y380696D01*
X135064Y380142D01*
X136500Y379953D01*
X141500D01*
X142936Y380142D01*
X144274Y380696D01*
X145423Y381577D01*
X146304Y382726D01*
X146858Y384064D01*
X147047Y385500D01*
Y390500D01*
X146858Y391936D01*
X146304Y393274D01*
X146029Y393632D01*
X146656Y394902D01*
X321497Y394902D01*
D02*
G37*
G36*
X332271Y369986D02*
X332421Y369884D01*
X332593Y369794D01*
X332786Y369716D01*
X333000Y369650D01*
X333237Y369596D01*
X333495Y369554D01*
X333774Y369524D01*
X334398Y369500D01*
Y366500D01*
X334075Y366494D01*
X333495Y366446D01*
X333237Y366404D01*
X333000Y366350D01*
X332786Y366284D01*
X332593Y366206D01*
X332421Y366116D01*
X332271Y366014D01*
X332142Y365900D01*
X330000Y368000D01*
X332142Y370100D01*
X332271Y369986D01*
D02*
G37*
G36*
X330000Y368000D02*
X327858Y365900D01*
X327729Y366014D01*
X327579Y366116D01*
X327407Y366206D01*
X327214Y366284D01*
X327000Y366350D01*
X326763Y366404D01*
X326505Y366446D01*
X325925Y366494D01*
X325602Y366500D01*
Y369500D01*
X326226Y369524D01*
X326505Y369554D01*
X326763Y369596D01*
X327000Y369650D01*
X327214Y369716D01*
X327407Y369794D01*
X327579Y369884D01*
X327729Y369986D01*
X327858Y370100D01*
X330000Y368000D01*
D02*
G37*
G36*
X89873Y394902D02*
X90081Y394250D01*
X90084Y393632D01*
X88756Y392744D01*
X87761Y391256D01*
X87412Y389500D01*
Y386500D01*
X87761Y384744D01*
X88756Y383256D01*
X90244Y382261D01*
X92000Y381912D01*
X99000D01*
X100756Y382261D01*
X102244Y383256D01*
X102349Y383412D01*
X111266D01*
X111985Y382142D01*
X111947Y382078D01*
X110000D01*
X108439Y381768D01*
X107116Y380884D01*
X107116Y380884D01*
X105116Y378884D01*
X104232Y377561D01*
X103922Y376000D01*
X103922Y376000D01*
Y366689D01*
X102311Y365078D01*
X86689D01*
X85047Y366720D01*
Y371500D01*
X84858Y372936D01*
X84304Y374274D01*
X83423Y375423D01*
X82274Y376304D01*
X80936Y376858D01*
X79500Y377047D01*
X74500D01*
X73064Y376858D01*
X71726Y376304D01*
X70577Y375423D01*
X69696Y374274D01*
X69142Y372936D01*
X68952Y371500D01*
Y366500D01*
X69142Y365064D01*
X69696Y363726D01*
X70577Y362577D01*
X71726Y361696D01*
X73064Y361142D01*
X74500Y360953D01*
X79280D01*
X82116Y358116D01*
X83439Y357232D01*
X85000Y356922D01*
X104000D01*
X104000Y356922D01*
X105561Y357232D01*
X106884Y358116D01*
X110884Y362116D01*
X110884Y362116D01*
X111768Y363439D01*
X111845Y363829D01*
X113194Y364097D01*
X113756Y363256D01*
X115244Y362261D01*
X117000Y361912D01*
X124000D01*
X125756Y362261D01*
X127244Y363256D01*
X127689Y363922D01*
X131201D01*
X131696Y362726D01*
X132577Y361577D01*
X133726Y360696D01*
X135064Y360142D01*
X136500Y359953D01*
X141500D01*
X142936Y360142D01*
X144274Y360696D01*
X145423Y361577D01*
X146304Y362726D01*
X146858Y364064D01*
X147047Y365500D01*
Y370280D01*
X148689Y371922D01*
X187009D01*
X187749Y370652D01*
X187500Y369724D01*
Y368276D01*
X187875Y366877D01*
X188599Y365623D01*
X189623Y364599D01*
X190877Y363875D01*
X192276Y363500D01*
X193724D01*
X195123Y363875D01*
X196377Y364599D01*
X197401Y365623D01*
X198125Y366877D01*
X198500Y368276D01*
Y369724D01*
X198251Y370652D01*
X198991Y371922D01*
X212177D01*
X213014Y370967D01*
X212953Y370500D01*
Y365500D01*
X213142Y364064D01*
X213696Y362726D01*
X214577Y361577D01*
X215726Y360696D01*
X217064Y360142D01*
X218500Y359953D01*
X221101D01*
X221735Y359171D01*
X221226Y358000D01*
X171474D01*
X170884Y358884D01*
X169561Y359768D01*
X168000Y360078D01*
X166000D01*
X164439Y359768D01*
X164170Y359588D01*
X159000D01*
X157244Y359239D01*
X155756Y358244D01*
X152511Y355000D01*
X135340D01*
X135123Y355125D01*
X133724Y355500D01*
X132276D01*
X130877Y355125D01*
X130660Y355000D01*
X57417D01*
X56988Y356035D01*
X55706Y357706D01*
X54035Y358988D01*
X52088Y359794D01*
X50000Y360069D01*
X10000D01*
X7912Y359794D01*
X6368Y359155D01*
X5098Y359780D01*
Y369824D01*
X6218Y370422D01*
X6948Y369935D01*
X10041Y368653D01*
X13326Y368000D01*
X16674D01*
X19959Y368653D01*
X23052Y369935D01*
X25837Y371795D01*
X28205Y374163D01*
X30065Y376948D01*
X31347Y380041D01*
X32000Y383326D01*
Y386674D01*
X31347Y389959D01*
X30065Y393052D01*
X29578Y393782D01*
X30176Y394902D01*
X89873D01*
D02*
G37*
G36*
X388000Y341646D02*
X387290Y341095D01*
X386154Y340629D01*
X385274Y341304D01*
X383936Y341858D01*
X382500Y342047D01*
X377500D01*
X376064Y341858D01*
X374726Y341304D01*
X373577Y340423D01*
X372696Y339274D01*
X372142Y337936D01*
X371953Y336500D01*
Y331500D01*
X372142Y330064D01*
X372696Y328726D01*
X373143Y328143D01*
X369000Y324000D01*
X347547D01*
Y353673D01*
X348736Y354585D01*
X350184D01*
X351583Y354960D01*
X352837Y355684D01*
X353861Y356708D01*
X354585Y357962D01*
X354932Y359256D01*
X355629Y359953D01*
X359500D01*
X360936Y360142D01*
X362274Y360696D01*
X362670Y361000D01*
X373330D01*
X373726Y360696D01*
X375064Y360142D01*
X376500Y359953D01*
X381500D01*
X382936Y360142D01*
X384274Y360696D01*
X384670Y361000D01*
X388000D01*
Y341646D01*
D02*
G37*
G36*
X397773Y394902D02*
X398546Y393895D01*
X398500Y393724D01*
Y392276D01*
X398875Y390877D01*
X399599Y389623D01*
X400623Y388599D01*
X401877Y387875D01*
X403276Y387500D01*
X404225D01*
X405085Y386595D01*
X405198Y386312D01*
X405040Y385724D01*
Y384276D01*
X405318Y383238D01*
X405064Y382858D01*
X403726Y382304D01*
X402577Y381423D01*
X401696Y380274D01*
X401142Y378936D01*
X400953Y377500D01*
Y372500D01*
X401142Y371064D01*
X401696Y369726D01*
X402577Y368577D01*
X403726Y367696D01*
X405064Y367142D01*
X406500Y366953D01*
X410108D01*
X411684Y365377D01*
X413338Y364272D01*
X415289Y363884D01*
X417247D01*
X417957Y363474D01*
X419356Y363099D01*
X420804D01*
X422203Y363474D01*
X423457Y364198D01*
X424481Y365222D01*
X425205Y366476D01*
X425580Y367875D01*
Y369323D01*
X426684Y370111D01*
X426948Y369935D01*
X430041Y368653D01*
X433326Y368000D01*
X436674D01*
X439959Y368653D01*
X443052Y369935D01*
X443782Y370422D01*
X444902Y369824D01*
Y353564D01*
X443632Y352831D01*
X443123Y353125D01*
X441724Y353500D01*
X440276D01*
X438877Y353125D01*
X437623Y352401D01*
X436599Y351377D01*
X435875Y350123D01*
X435500Y348724D01*
Y347276D01*
X435875Y345877D01*
X436599Y344623D01*
X437623Y343599D01*
X438877Y342875D01*
X440276Y342500D01*
X441724D01*
X443123Y342875D01*
X443632Y343169D01*
X444902Y342436D01*
Y334564D01*
X443632Y333831D01*
X443123Y334125D01*
X441724Y334500D01*
X440276D01*
X438877Y334125D01*
X437623Y333401D01*
X436599Y332377D01*
X435875Y331123D01*
X435500Y329724D01*
Y328276D01*
X435875Y326877D01*
X436599Y325623D01*
X437623Y324599D01*
X438877Y323875D01*
X440276Y323500D01*
X441724D01*
X443123Y323875D01*
X443632Y324169D01*
X444902Y323436D01*
Y311564D01*
X443632Y310831D01*
X443123Y311125D01*
X441724Y311500D01*
X440276D01*
X438877Y311125D01*
X437623Y310401D01*
X436599Y309377D01*
X435875Y308123D01*
X435500Y306724D01*
Y305276D01*
X435875Y303877D01*
X436599Y302623D01*
X437623Y301599D01*
X438877Y300875D01*
X440276Y300500D01*
X441724D01*
X443123Y300875D01*
X443632Y301169D01*
X444902Y300436D01*
Y291176D01*
X443632Y290442D01*
X443316Y290625D01*
X441917Y291000D01*
X440468D01*
X439070Y290625D01*
X437816Y289901D01*
X436791Y288877D01*
X436068Y287623D01*
X435693Y286224D01*
Y284776D01*
X436068Y283377D01*
X436791Y282123D01*
X437816Y281099D01*
X439070Y280375D01*
X440468Y280000D01*
X441917D01*
X443316Y280375D01*
X443632Y280558D01*
X444902Y279824D01*
Y250000D01*
X442943D01*
X442500Y250088D01*
X434515D01*
X434029Y251262D01*
X436268Y253500D01*
X436724D01*
X438123Y253875D01*
X439377Y254599D01*
X440401Y255623D01*
X441125Y256877D01*
X441500Y258276D01*
Y259724D01*
X441125Y261123D01*
X440401Y262377D01*
X439377Y263401D01*
X438123Y264125D01*
X436724Y264500D01*
X435276D01*
X433877Y264125D01*
X432623Y263401D01*
X431599Y262377D01*
X430875Y261123D01*
X430500Y259724D01*
Y259268D01*
X427771Y256538D01*
X420344D01*
X419375Y257808D01*
X419500Y258276D01*
Y259724D01*
X419125Y261123D01*
X418401Y262377D01*
X417377Y263401D01*
X416123Y264125D01*
X414724Y264500D01*
X413276D01*
X411877Y264125D01*
X410623Y263401D01*
X409599Y262377D01*
X408875Y261123D01*
X408500Y259724D01*
Y258276D01*
X408625Y257808D01*
X407656Y256538D01*
X397819D01*
X397085Y257808D01*
X397125Y257877D01*
X397500Y259276D01*
Y260724D01*
X397125Y262123D01*
X396401Y263377D01*
X395377Y264401D01*
X394123Y265125D01*
X392724Y265500D01*
X391276D01*
X389877Y265125D01*
X388623Y264401D01*
X387599Y263377D01*
X386875Y262123D01*
X386500Y260724D01*
Y259276D01*
X386875Y257877D01*
X386914Y257808D01*
X386181Y256538D01*
X375819D01*
X375085Y257808D01*
X375125Y257877D01*
X375500Y259276D01*
Y260724D01*
X375125Y262123D01*
X374401Y263377D01*
X373377Y264401D01*
X372123Y265125D01*
X370724Y265500D01*
X369276D01*
X367877Y265125D01*
X366623Y264401D01*
X365599Y263377D01*
X364875Y262123D01*
X364500Y260724D01*
Y259276D01*
X364875Y257877D01*
X364915Y257808D01*
X364181Y256538D01*
X353819D01*
X353086Y257808D01*
X353125Y257877D01*
X353500Y259276D01*
Y260724D01*
X353125Y262123D01*
X352401Y263377D01*
X351377Y264401D01*
X350123Y265125D01*
X348724Y265500D01*
X347276D01*
X345877Y265125D01*
X344623Y264401D01*
X343599Y263377D01*
X342875Y262123D01*
X342500Y260724D01*
Y259276D01*
X342875Y257877D01*
X342915Y257808D01*
X342181Y256538D01*
X331819D01*
X331086Y257808D01*
X331125Y257877D01*
X331500Y259276D01*
Y260724D01*
X331125Y262123D01*
X330401Y263377D01*
X329377Y264401D01*
X328123Y265125D01*
X326724Y265500D01*
X325276D01*
X323877Y265125D01*
X322623Y264401D01*
X321599Y263377D01*
X320875Y262123D01*
X320745Y261639D01*
X319329Y261259D01*
X313839Y266748D01*
X314325Y267922D01*
X405000D01*
X405000Y267922D01*
X406561Y268232D01*
X407884Y269116D01*
X411884Y273116D01*
X412768Y274439D01*
X413078Y276000D01*
X413078Y276000D01*
Y316201D01*
X414274Y316696D01*
X415423Y317577D01*
X416304Y318726D01*
X416858Y320064D01*
X417047Y321500D01*
Y326500D01*
X416858Y327936D01*
X416304Y329274D01*
X415423Y330423D01*
X414274Y331304D01*
X414253Y331313D01*
Y332687D01*
X414274Y332696D01*
X415423Y333577D01*
X416304Y334726D01*
X416858Y336064D01*
X417047Y337500D01*
Y342500D01*
X416858Y343936D01*
X416304Y345274D01*
X415423Y346423D01*
X414274Y347304D01*
X412936Y347858D01*
X411500Y348047D01*
X408162D01*
X405326Y350883D01*
Y352244D01*
X405346Y352316D01*
Y353764D01*
X404971Y355163D01*
X404247Y356417D01*
X403223Y357441D01*
X401969Y358165D01*
X400570Y358540D01*
X399122D01*
X397723Y358165D01*
X396469Y357441D01*
X395445Y356417D01*
X394721Y355163D01*
X394346Y353764D01*
Y352316D01*
X394721Y350917D01*
X395131Y350207D01*
Y348772D01*
X395518Y346821D01*
X396624Y345167D01*
X400953Y340838D01*
Y337500D01*
X401142Y336064D01*
X401696Y334726D01*
X402577Y333577D01*
X403726Y332696D01*
X403747Y332687D01*
Y331313D01*
X403726Y331304D01*
X402577Y330423D01*
X401696Y329274D01*
X401142Y327936D01*
X400952Y326500D01*
Y321500D01*
X401142Y320064D01*
X401696Y318726D01*
X402577Y317577D01*
X403726Y316696D01*
X404922Y316201D01*
Y277689D01*
X403311Y276078D01*
X284222D01*
X284222Y276078D01*
X282661Y275768D01*
X281338Y274884D01*
X268365Y261911D01*
X267481Y260588D01*
X267171Y259027D01*
X267171Y259027D01*
Y247700D01*
X266848Y247377D01*
X266124Y246123D01*
X265749Y244724D01*
Y243276D01*
X266124Y241877D01*
X266848Y240623D01*
X267872Y239599D01*
X269126Y238875D01*
X270525Y238500D01*
X271973D01*
X273372Y238875D01*
X273632Y239025D01*
X274902Y238292D01*
Y220089D01*
X273632Y219563D01*
X273254Y219941D01*
X272000Y220665D01*
X270601Y221040D01*
X269153D01*
X267754Y220665D01*
X266500Y219941D01*
X265724Y219165D01*
X264938Y219018D01*
X264153Y219165D01*
X263377Y219941D01*
X262123Y220665D01*
X260724Y221040D01*
X259276D01*
X257877Y220665D01*
X256623Y219941D01*
X255599Y218917D01*
X254875Y217663D01*
X254500Y216264D01*
Y214816D01*
X254620Y214368D01*
X253645Y213098D01*
X252299D01*
X252108Y214061D01*
X251224Y215384D01*
X249900Y216268D01*
X248340Y216578D01*
X230029Y216578D01*
X220723Y225884D01*
X219400Y226768D01*
X217840Y227078D01*
X217840Y227078D01*
X180000Y227078D01*
X178439Y226768D01*
X177116Y225884D01*
X176232Y224561D01*
X175922Y223000D01*
Y209999D01*
X175922Y209999D01*
X176232Y208438D01*
X177116Y207115D01*
X177115Y207113D01*
X176560Y205875D01*
X175069Y204384D01*
X174185Y203061D01*
X173874Y201500D01*
X173922Y201261D01*
Y189069D01*
X172409Y188768D01*
X171086Y187884D01*
X171086Y187884D01*
X167116Y183914D01*
X166232Y182591D01*
X165922Y181031D01*
X165922Y181030D01*
Y163828D01*
X151000D01*
X149439Y163518D01*
X148116Y162634D01*
X147232Y161311D01*
X146922Y159750D01*
Y144078D01*
X126768D01*
X126768Y144078D01*
X125207Y143768D01*
X123884Y142884D01*
X123884Y142884D01*
X123116Y142116D01*
X122232Y140793D01*
X121922Y139232D01*
X121922Y139232D01*
Y128938D01*
X121813Y128742D01*
X120652Y127949D01*
X120000Y128078D01*
X120000Y128078D01*
X112844D01*
X111561Y128936D01*
X110783Y129258D01*
X110486Y129486D01*
X110258Y129783D01*
X110115Y130129D01*
X110031Y130767D01*
Y131047D01*
X109720Y132608D01*
X108836Y133931D01*
X108836Y133931D01*
X102962Y139805D01*
X101639Y140690D01*
X100376Y140941D01*
X100046Y141738D01*
X100022Y142270D01*
X100423Y142577D01*
X101304Y143726D01*
X101588Y144412D01*
X106412D01*
X106696Y143726D01*
X107577Y142577D01*
X108726Y141696D01*
X110064Y141142D01*
X111500Y140953D01*
X116500D01*
X117936Y141142D01*
X119274Y141696D01*
X120423Y142577D01*
X121304Y143726D01*
X121858Y145064D01*
X122047Y146500D01*
Y150398D01*
X123973Y152323D01*
X125256Y152256D01*
X126744Y151261D01*
X128500Y150912D01*
X137500D01*
X139256Y151261D01*
X140744Y152256D01*
X141739Y153744D01*
X142088Y155500D01*
Y158500D01*
X141739Y160256D01*
X140744Y161744D01*
X140396Y161977D01*
X140108Y163697D01*
X140279Y163922D01*
X141000D01*
X142561Y164232D01*
X143884Y165116D01*
X143884Y165116D01*
X143905Y165138D01*
X143936Y165142D01*
X145274Y165696D01*
X146423Y166577D01*
X147304Y167726D01*
X147858Y169064D01*
X147862Y169095D01*
X150431Y171663D01*
X151315Y172986D01*
X151625Y174547D01*
X151625Y174547D01*
Y174689D01*
X151768Y175033D01*
X152078Y176594D01*
X152078Y195000D01*
X151768Y196561D01*
X150884Y197884D01*
X150678Y198022D01*
X150553Y199286D01*
X150884Y199616D01*
X151768Y200939D01*
X152078Y202500D01*
X152078Y202500D01*
Y221432D01*
X152304Y221726D01*
X152858Y223064D01*
X153047Y224500D01*
Y229500D01*
X152858Y230936D01*
X152304Y232274D01*
X152078Y232568D01*
Y241432D01*
X152304Y241726D01*
X152858Y243064D01*
X153047Y244500D01*
Y247280D01*
X194230Y288462D01*
X194243Y288461D01*
X195174Y288106D01*
X195466Y287902D01*
X195500Y287640D01*
Y287276D01*
X195594Y286925D01*
X195642Y286564D01*
X195781Y286228D01*
X195875Y285877D01*
X196057Y285562D01*
X196196Y285226D01*
X196417Y284938D01*
X196599Y284623D01*
X196856Y284366D01*
X197077Y284077D01*
X197366Y283856D01*
X197623Y283599D01*
X197938Y283417D01*
X198226Y283196D01*
X198562Y283057D01*
X198877Y282875D01*
X199228Y282781D01*
X199564Y282642D01*
X199925Y282594D01*
X200276Y282500D01*
X200640D01*
X201000Y282453D01*
X201360Y282500D01*
X201724D01*
X202075Y282594D01*
X202436Y282642D01*
X202772Y282781D01*
X203123Y282875D01*
X203438Y283057D01*
X203774Y283196D01*
X204062Y283417D01*
X204377Y283599D01*
X204634Y283856D01*
X204923Y284077D01*
X221298Y300453D01*
X339071D01*
X340507Y300642D01*
X341845Y301196D01*
X342994Y302077D01*
X345923Y305006D01*
X346804Y306155D01*
X347129Y306939D01*
X347358Y307493D01*
X347547Y308929D01*
Y319922D01*
X369000D01*
X369000Y319922D01*
X370561Y320232D01*
X371884Y321116D01*
X371884Y321116D01*
X376027Y325259D01*
X376323Y325703D01*
X376675Y326104D01*
X376762Y326359D01*
X376911Y326582D01*
X377015Y327106D01*
X377187Y327611D01*
X377169Y327879D01*
X377222Y328143D01*
X377118Y328666D01*
X377083Y329199D01*
X376964Y329440D01*
X376911Y329704D01*
X376615Y330148D01*
X376379Y330626D01*
X376258Y330783D01*
X376115Y331129D01*
X376031Y331767D01*
Y336233D01*
X376115Y336871D01*
X376258Y337217D01*
X376486Y337514D01*
X376783Y337742D01*
X377129Y337885D01*
X377767Y337969D01*
X382233D01*
X382871Y337885D01*
X383217Y337742D01*
X383671Y337393D01*
X384143Y337161D01*
X384579Y336867D01*
X384850Y336812D01*
X385098Y336690D01*
X385623Y336655D01*
X386139Y336551D01*
X386410Y336604D01*
X386686Y336586D01*
X387184Y336755D01*
X387701Y336856D01*
X388837Y337321D01*
X389296Y337626D01*
X389788Y337872D01*
X390499Y338422D01*
X390668Y338618D01*
X390884Y338762D01*
X391186Y339214D01*
X391542Y339624D01*
X391624Y339869D01*
X391768Y340085D01*
X391874Y340618D01*
X392046Y341133D01*
X392028Y341392D01*
X392078Y341646D01*
Y361000D01*
X391768Y362561D01*
X391583Y362837D01*
Y375750D01*
X391253Y377408D01*
X390314Y378814D01*
X387047Y382081D01*
Y386500D01*
X386946Y387274D01*
X386991Y387441D01*
X387807Y388405D01*
X387999Y388500D01*
X388724D01*
X390123Y388875D01*
X391377Y389599D01*
X392401Y390623D01*
X393125Y391877D01*
X393500Y393276D01*
Y393632D01*
X394696Y394902D01*
X397773D01*
D02*
G37*
G36*
X422912Y240500D02*
X423261Y238744D01*
X424256Y237256D01*
X425744Y236261D01*
X427500Y235912D01*
X430922D01*
Y232799D01*
X429726Y232304D01*
X428577Y231423D01*
X427696Y230274D01*
X427142Y228936D01*
X426953Y227500D01*
Y222500D01*
X427142Y221064D01*
X427696Y219726D01*
X428577Y218577D01*
X429726Y217696D01*
X431064Y217142D01*
X432500Y216953D01*
X437500D01*
X438936Y217142D01*
X440274Y217696D01*
X441423Y218577D01*
X442304Y219726D01*
X442858Y221064D01*
X442902Y221397D01*
X444902Y221266D01*
X444902Y178735D01*
X442902Y178603D01*
X442858Y178936D01*
X442304Y180274D01*
X441423Y181423D01*
X440274Y182304D01*
X438936Y182858D01*
X437500Y183047D01*
X432500D01*
X431064Y182858D01*
X429726Y182304D01*
X428577Y181423D01*
X427696Y180274D01*
X427142Y178936D01*
X426953Y177500D01*
Y172500D01*
X427142Y171064D01*
X427696Y169726D01*
X428577Y168577D01*
X429726Y167696D01*
X430922Y167201D01*
Y164088D01*
X427500D01*
X425744Y163739D01*
X424256Y162744D01*
X423261Y161256D01*
X422912Y159500D01*
Y154500D01*
X423261Y152744D01*
X424256Y151256D01*
X425744Y150261D01*
X427500Y149912D01*
X442500D01*
X442902Y149992D01*
X444902Y148471D01*
Y142000D01*
X329000D01*
X310000Y161000D01*
X310000Y239902D01*
X359888D01*
X365922Y233869D01*
Y219078D01*
X352000D01*
X352000Y219078D01*
X350439Y218768D01*
X349116Y217884D01*
X349116Y217884D01*
X348311Y217078D01*
X327000D01*
X325439Y216768D01*
X324116Y215884D01*
X323232Y214561D01*
X322922Y213000D01*
Y192000D01*
X323232Y190439D01*
X324116Y189116D01*
X325439Y188232D01*
X327000Y187922D01*
X385000D01*
X386561Y188232D01*
X387884Y189116D01*
X388768Y190439D01*
X389078Y192000D01*
Y219577D01*
X391078Y221008D01*
X391500Y220952D01*
X393996D01*
X395067Y218953D01*
X394854Y218583D01*
X394479Y217184D01*
Y215736D01*
X394854Y214337D01*
X395578Y213083D01*
X396602Y212059D01*
X397856Y211335D01*
X399255Y210960D01*
X400703D01*
X402102Y211335D01*
X403032Y211872D01*
X406460D01*
X408216Y212221D01*
X409704Y213216D01*
X413441Y216953D01*
X417500D01*
X418936Y217142D01*
X420274Y217696D01*
X421423Y218577D01*
X422304Y219726D01*
X422858Y221064D01*
X423047Y222500D01*
Y227500D01*
X422858Y228936D01*
X422304Y230274D01*
X421423Y231423D01*
X420274Y232304D01*
X418936Y232858D01*
X417500Y233047D01*
X412500D01*
X411064Y232858D01*
X409726Y232304D01*
X409529Y232153D01*
X408401Y232377D01*
X407377Y233401D01*
X406123Y234125D01*
X404724Y234500D01*
X403946D01*
X403837Y234777D01*
X403613Y236500D01*
X404744Y237256D01*
X405739Y238744D01*
X406088Y240500D01*
Y242500D01*
X422912D01*
Y240500D01*
D02*
G37*
G36*
X98000Y229860D02*
X97953Y229500D01*
Y224500D01*
X98000Y224140D01*
Y215000D01*
X65000D01*
X57000Y207000D01*
X55563D01*
X54507Y207706D01*
X53200Y207966D01*
X48583D01*
X47927Y209083D01*
X49105Y211000D01*
X53000D01*
X60000Y218000D01*
Y224140D01*
X60047Y224500D01*
Y229500D01*
X60000Y229860D01*
Y230000D01*
X65000Y235000D01*
X98000D01*
Y229860D01*
D02*
G37*
G36*
X203500Y303500D02*
X148000Y248000D01*
Y221000D01*
Y202500D01*
X145500Y200000D01*
X140000D01*
X138000Y202000D01*
Y250000D01*
X196000Y308000D01*
X199000D01*
X203500Y303500D01*
D02*
G37*
G36*
X62139Y190000D02*
X89730D01*
Y189615D01*
X90105Y188216D01*
X90829Y186962D01*
X91853Y185938D01*
X93107Y185214D01*
X94506Y184839D01*
X95954D01*
X97353Y185214D01*
X98607Y185938D01*
X99631Y186962D01*
X100356Y188216D01*
X100730Y189615D01*
Y190000D01*
X108000D01*
X110000Y188000D01*
Y168000D01*
X109000Y167000D01*
X99000D01*
X94713Y171287D01*
X94304Y172274D01*
X93423Y173423D01*
X92274Y174304D01*
X91287Y174713D01*
X90000Y176000D01*
X63768D01*
X61884Y177884D01*
X60561Y178768D01*
X60302Y178819D01*
X59000Y179078D01*
X59000Y179078D01*
X41911D01*
X41078Y179911D01*
Y186089D01*
X42884Y187894D01*
X42884Y187894D01*
X43768Y189217D01*
X43819Y189476D01*
X43980Y190284D01*
X44898Y190664D01*
X45994Y191506D01*
X46836Y192602D01*
X47365Y193880D01*
X47385Y194034D01*
X53200D01*
X54507Y194294D01*
X54698Y194422D01*
X55050D01*
X55050Y194422D01*
X56352Y194681D01*
X56611Y194732D01*
X57012Y195000D01*
X57139D01*
X62139Y190000D01*
D02*
G37*
G36*
X385000Y192000D02*
X327000D01*
Y213000D01*
X350000D01*
X352000Y215000D01*
X370000D01*
Y235000D01*
X385000D01*
Y192000D01*
D02*
G37*
G36*
X189059Y306827D02*
X135116Y252884D01*
X134232Y251561D01*
X133922Y250000D01*
X133922Y250000D01*
Y202000D01*
X134232Y200439D01*
X135116Y199116D01*
X135116Y199116D01*
X136137Y198095D01*
X136116Y197884D01*
X130311Y192078D01*
X117000D01*
X115439Y191768D01*
X114320Y191020D01*
X113741Y190931D01*
X112707Y191061D01*
X110884Y192884D01*
X109561Y193768D01*
X108000Y194078D01*
X108000Y194078D01*
X100730D01*
X99170Y193768D01*
X97846Y192884D01*
X96962Y191561D01*
X96769Y190588D01*
X96555Y189790D01*
X96368Y189466D01*
X96103Y189201D01*
X95779Y189014D01*
X95417Y188917D01*
X95043D01*
X94682Y189014D01*
X94357Y189201D01*
X94093Y189466D01*
X93906Y189790D01*
X93692Y190589D01*
X93498Y191561D01*
X92614Y192884D01*
X91291Y193768D01*
X89730Y194078D01*
X71688D01*
X71435Y195348D01*
X72274Y195696D01*
X73423Y196577D01*
X74304Y197726D01*
X74858Y199064D01*
X75047Y200500D01*
Y205500D01*
X74858Y206936D01*
X74304Y208274D01*
X73423Y209423D01*
X73124Y209652D01*
X73555Y210922D01*
X98000D01*
X99561Y211232D01*
X100884Y212116D01*
X101768Y213439D01*
X102078Y215000D01*
Y224140D01*
X102026Y224404D01*
X102044Y224672D01*
X102031Y224767D01*
Y229233D01*
X102044Y229328D01*
X102026Y229596D01*
X102078Y229860D01*
Y235000D01*
X101768Y236561D01*
X100884Y237884D01*
X100629Y238054D01*
X100401Y239623D01*
X101125Y240877D01*
X101500Y242276D01*
Y243724D01*
X101125Y245123D01*
X100401Y246377D01*
X99377Y247401D01*
X98123Y248125D01*
X96724Y248500D01*
X95276D01*
X93877Y248125D01*
X92623Y247401D01*
X92000Y246778D01*
X91377Y247401D01*
X90123Y248125D01*
X88724Y248500D01*
X87276D01*
X85877Y248125D01*
X84623Y247401D01*
X83599Y246377D01*
X82875Y245123D01*
X82500Y243724D01*
Y242276D01*
X82875Y240877D01*
X83180Y240348D01*
X82447Y239078D01*
X65000D01*
X65000Y239078D01*
X63439Y238768D01*
X62116Y237884D01*
X57116Y232884D01*
X56232Y231561D01*
X56133Y231063D01*
X56061Y230916D01*
X56039Y230592D01*
X55922Y230000D01*
X55922Y230000D01*
Y229860D01*
X55974Y229596D01*
X55957Y229328D01*
X55969Y229233D01*
Y224767D01*
X55957Y224672D01*
X55974Y224404D01*
X55922Y224140D01*
Y219689D01*
X51311Y215078D01*
X49105D01*
X48636Y214985D01*
X48157Y214967D01*
X47862Y214831D01*
X47544Y214768D01*
X47146Y214502D01*
X46711Y214302D01*
X46491Y214064D01*
X46221Y213884D01*
X45955Y213486D01*
X45630Y213134D01*
X45391Y212745D01*
X45193Y212706D01*
X44085Y211965D01*
X43344Y210857D01*
X43084Y209550D01*
Y207450D01*
X43344Y206143D01*
X44085Y205035D01*
X45193Y204294D01*
X45932Y204147D01*
Y202853D01*
X45193Y202706D01*
X44085Y201965D01*
X43344Y200857D01*
X43084Y199550D01*
Y197450D01*
X43344Y196143D01*
X43440Y196000D01*
X43344Y195857D01*
X43084Y194550D01*
Y194413D01*
X42841Y194227D01*
X42419Y194052D01*
X42085Y193829D01*
X41714Y193675D01*
X41430Y193391D01*
X41096Y193168D01*
X40873Y192834D01*
X40589Y192550D01*
X40435Y192179D01*
X40212Y191845D01*
X40134Y191451D01*
X39980Y191080D01*
X39926Y190809D01*
X39716Y190494D01*
X38866Y189644D01*
X38577Y189423D01*
X38356Y189134D01*
X38195Y188973D01*
X38194Y188973D01*
X38173Y188941D01*
X36906Y189326D01*
X36903Y189327D01*
Y190825D01*
X36903Y190825D01*
X36797Y191359D01*
Y191854D01*
X36916Y192450D01*
Y194550D01*
X36656Y195857D01*
X36560Y196000D01*
X36656Y196143D01*
X36916Y197450D01*
Y199550D01*
X36656Y200857D01*
X36560Y201000D01*
X36656Y201143D01*
X36916Y202450D01*
Y204550D01*
X36656Y205857D01*
X36560Y206000D01*
X36656Y206143D01*
X36916Y207450D01*
Y209550D01*
X36656Y210857D01*
X35915Y211965D01*
X34807Y212706D01*
X33500Y212966D01*
X26800D01*
X25493Y212706D01*
X25302Y212578D01*
X20220D01*
X19274Y213304D01*
X17936Y213858D01*
X16500Y214048D01*
X11500D01*
X10064Y213858D01*
X8726Y213304D01*
X7577Y212423D01*
X6696Y211274D01*
X6368Y210482D01*
X5098Y210735D01*
Y241220D01*
X6368Y241845D01*
X7912Y241206D01*
X10000Y240931D01*
X50000D01*
X52088Y241206D01*
X54035Y242012D01*
X55706Y243294D01*
X56988Y244965D01*
X57794Y246912D01*
X57937Y248000D01*
X63000D01*
Y258000D01*
X133000D01*
X183000Y308000D01*
X188573D01*
X189059Y306827D01*
D02*
G37*
G36*
X228340Y212500D02*
X248340Y212500D01*
Y190000D01*
X202406Y190000D01*
X202008Y192000D01*
X202710Y192290D01*
X204453Y196500D01*
Y201500D01*
X202710Y205709D01*
X198500Y207453D01*
X183500D01*
X182825Y207174D01*
X180000Y209998D01*
Y223000D01*
X217840Y223000D01*
X228340Y212500D01*
D02*
G37*
G36*
X148000Y195000D02*
X148000Y176594D01*
X147547Y175500D01*
Y174547D01*
X141000Y168000D01*
X117000D01*
Y188000D01*
X132000D01*
X139000Y195000D01*
X148000Y195000D01*
D02*
G37*
G36*
X6696Y184726D02*
X7577Y183577D01*
X8726Y182696D01*
X10064Y182142D01*
X11500Y181953D01*
X16500D01*
X17936Y182142D01*
X19274Y182696D01*
X20240Y183437D01*
X20826Y183517D01*
X21859Y183363D01*
X22623Y182599D01*
X23877Y181875D01*
X25276Y181500D01*
X26724D01*
X27477Y181702D01*
X28747Y180875D01*
Y176740D01*
X28747Y176740D01*
X28178Y176047D01*
X24500D01*
X23064Y175858D01*
X21726Y175304D01*
X20577Y174423D01*
X19696Y173274D01*
X19142Y171936D01*
X18953Y170500D01*
Y165500D01*
X19142Y164064D01*
X19696Y162726D01*
X20577Y161577D01*
X20888Y161339D01*
X20457Y160069D01*
X10000D01*
X7912Y159794D01*
X6368Y159155D01*
X5098Y159780D01*
Y185265D01*
X6368Y185518D01*
X6696Y184726D01*
D02*
G37*
G36*
X58969Y174926D02*
X59284Y174716D01*
X60884Y173116D01*
X62207Y172232D01*
X63768Y171922D01*
X63768Y171922D01*
X88311D01*
X88403Y171829D01*
X89726Y170945D01*
X90217Y170742D01*
X90514Y170514D01*
X90742Y170217D01*
X90945Y169726D01*
X91829Y168403D01*
X96116Y164116D01*
X97439Y163232D01*
X99000Y162922D01*
X99000Y162922D01*
X109000D01*
X109000Y162922D01*
X110561Y163232D01*
X111884Y164116D01*
X111884Y164116D01*
X112707Y164939D01*
X113741Y165069D01*
X114320Y164980D01*
X115439Y164232D01*
X117000Y163922D01*
X125721D01*
X125892Y163697D01*
X125604Y161977D01*
X125256Y161744D01*
X125151Y161588D01*
X122161D01*
X120405Y161239D01*
X118917Y160244D01*
X115720Y157047D01*
X111500D01*
X110064Y156858D01*
X108726Y156304D01*
X107577Y155423D01*
X106696Y154274D01*
X106412Y153588D01*
X101588D01*
X101304Y154274D01*
X100423Y155423D01*
X99274Y156304D01*
X97936Y156858D01*
X96500Y157047D01*
X91500D01*
X90064Y156858D01*
X88726Y156304D01*
X87577Y155423D01*
X86696Y154274D01*
X86142Y152936D01*
X85953Y151500D01*
Y146500D01*
X86142Y145064D01*
X86696Y143726D01*
X87577Y142577D01*
X87978Y142270D01*
X87547Y141000D01*
X80402D01*
X80030Y141074D01*
X79716Y141284D01*
X79116Y141884D01*
X77793Y142768D01*
X76232Y143078D01*
X76232Y143078D01*
X67000D01*
X65439Y142768D01*
X64116Y141884D01*
X63232Y140561D01*
X62922Y139000D01*
Y121000D01*
X63232Y119439D01*
X64116Y118116D01*
X64116Y118116D01*
X65069Y117164D01*
X66392Y116279D01*
X67953Y115969D01*
X67953Y115969D01*
X72233D01*
X72871Y115885D01*
X73217Y115742D01*
X73514Y115514D01*
X73742Y115217D01*
X73885Y114871D01*
X73969Y114233D01*
Y109953D01*
X74279Y108392D01*
X75164Y107069D01*
X75164Y107069D01*
X76689Y105543D01*
X76609Y105463D01*
X76455Y105091D01*
X76232Y104757D01*
X76154Y104363D01*
X76000Y103992D01*
Y103591D01*
X75922Y103197D01*
Y87000D01*
X75922Y87000D01*
X76232Y85439D01*
X77116Y84116D01*
X77116Y84116D01*
X77838Y83394D01*
X77577Y81859D01*
X76866Y81384D01*
X75982Y80061D01*
X75672Y78500D01*
Y46000D01*
X75982Y44439D01*
X76866Y43116D01*
X78189Y42232D01*
X79750Y41922D01*
X91000D01*
X91000Y41922D01*
X92561Y42232D01*
X93884Y43116D01*
X110689Y59922D01*
X118000D01*
X119561Y60232D01*
X120884Y61116D01*
X121768Y62439D01*
X122078Y64000D01*
Y75832D01*
X122017Y76139D01*
X122031Y76452D01*
X121863Y76912D01*
X121768Y77393D01*
X121594Y77653D01*
X121487Y77947D01*
X121156Y78308D01*
X120884Y78716D01*
X120624Y78890D01*
X120412Y79120D01*
X120108Y79343D01*
X120003Y80417D01*
X120373Y81024D01*
X120768Y81615D01*
X120785Y81701D01*
X120831Y81776D01*
X120940Y82478D01*
X121078Y83176D01*
Y88311D01*
X125884Y93116D01*
X126768Y94439D01*
X127078Y96000D01*
X127078Y96000D01*
Y98922D01*
X133236D01*
X133827Y99039D01*
X134426Y99099D01*
X134602Y99193D01*
X134797Y99232D01*
X135298Y99567D01*
X135829Y99852D01*
X135955Y100006D01*
X136120Y100116D01*
X136455Y100617D01*
X136836Y101083D01*
X137690Y102688D01*
X137726Y102696D01*
X139064Y102142D01*
X140500Y101953D01*
X145500D01*
X145967Y102014D01*
X146922Y101177D01*
Y95860D01*
X146974Y95596D01*
X146957Y95328D01*
X146969Y95233D01*
Y90767D01*
X146957Y90672D01*
X146974Y90404D01*
X146922Y90140D01*
Y75860D01*
X146974Y75596D01*
X146957Y75328D01*
X146969Y75233D01*
Y70767D01*
X146957Y70672D01*
X146974Y70404D01*
X146922Y70140D01*
Y55860D01*
X146974Y55596D01*
X146957Y55328D01*
X146969Y55233D01*
Y50767D01*
X146957Y50672D01*
X146974Y50404D01*
X146922Y50140D01*
Y42078D01*
X143000D01*
X143000Y42078D01*
X141439Y41768D01*
X140116Y40884D01*
X140116Y40884D01*
X139280Y40047D01*
X134500D01*
X133064Y39858D01*
X131726Y39304D01*
X130577Y38423D01*
X129696Y37274D01*
X129142Y35936D01*
X128953Y34500D01*
Y29500D01*
X129142Y28064D01*
X129696Y26726D01*
X130577Y25577D01*
X131726Y24696D01*
X133064Y24142D01*
X134500Y23953D01*
X139500D01*
X140936Y24142D01*
X142274Y24696D01*
X143423Y25577D01*
X144304Y26726D01*
X144858Y28064D01*
X145047Y29500D01*
Y33922D01*
X151937D01*
X152000Y33606D01*
Y31415D01*
X152098Y30925D01*
X152122Y30426D01*
X152122Y30426D01*
X152166Y30333D01*
X152176Y30231D01*
X152271Y30052D01*
X152310Y29854D01*
X152588Y29439D01*
X152802Y28987D01*
X152877Y28918D01*
X152926Y28828D01*
X153743Y27831D01*
X153900Y27703D01*
X154012Y27535D01*
X154510Y27202D01*
X154973Y26822D01*
X155167Y26763D01*
X155335Y26651D01*
X155923Y26534D01*
X156496Y26360D01*
X156697Y26380D01*
X156896Y26340D01*
X161915D01*
X168526Y19729D01*
Y11419D01*
X168837Y9858D01*
X169721Y8535D01*
X171044Y7651D01*
X172605Y7340D01*
X188000D01*
X189561Y7651D01*
X190884Y8535D01*
X191768Y9858D01*
X192078Y11419D01*
Y25304D01*
X193348Y25557D01*
X193383Y25473D01*
X194265Y24324D01*
X195414Y23442D01*
X196751Y22888D01*
X198187Y22699D01*
X203187D01*
X204623Y22888D01*
X205961Y23442D01*
X207110Y24324D01*
X207992Y25473D01*
X208000Y25493D01*
X209375D01*
X209383Y25473D01*
X210265Y24324D01*
X211414Y23442D01*
X212752Y22888D01*
X214187Y22699D01*
X219187D01*
X220623Y22888D01*
X221961Y23442D01*
X223110Y24324D01*
X223305Y24578D01*
X223623Y24599D01*
X224877Y23875D01*
X225953Y23587D01*
Y19500D01*
X226142Y18064D01*
X226696Y16726D01*
X227577Y15577D01*
X228726Y14696D01*
X230064Y14142D01*
X231500Y13953D01*
X236500D01*
X237936Y14142D01*
X239274Y14696D01*
X240423Y15577D01*
X241304Y16726D01*
X241836Y18010D01*
X241947Y18201D01*
X243234Y18779D01*
X244276Y18500D01*
X245724D01*
X247123Y18875D01*
X248377Y19599D01*
X249401Y20623D01*
X250125Y21877D01*
X250500Y23276D01*
Y24724D01*
X250125Y26123D01*
X249401Y27377D01*
X248377Y28401D01*
X247123Y29125D01*
X245724Y29500D01*
X244276D01*
X242877Y29125D01*
X241623Y28401D01*
X241569Y28347D01*
X240423Y28423D01*
X239274Y29304D01*
X239253Y29313D01*
Y30687D01*
X239274Y30696D01*
X240423Y31577D01*
X241304Y32726D01*
X241858Y34064D01*
X242047Y35500D01*
Y39919D01*
X247795Y45667D01*
X271142D01*
X271218Y45287D01*
X272046Y44046D01*
X272185Y43954D01*
X272388Y42300D01*
X272174Y42047D01*
X269500D01*
X268064Y41858D01*
X266726Y41304D01*
X265577Y40423D01*
X264696Y39274D01*
X264142Y37936D01*
X263953Y36500D01*
Y32441D01*
X263915Y32403D01*
X262877Y32125D01*
X261623Y31401D01*
X260599Y30377D01*
X259875Y29123D01*
X259500Y27724D01*
Y26276D01*
X259875Y24877D01*
X260599Y23623D01*
X261623Y22599D01*
X262047Y22354D01*
X262232Y21561D01*
X261922Y20000D01*
Y10078D01*
X262232Y8518D01*
X263116Y7194D01*
X264353Y6368D01*
X264366Y6275D01*
X263614Y5098D01*
X30176Y5098D01*
X29578Y6218D01*
X30065Y6948D01*
X31347Y10041D01*
X32000Y13326D01*
Y16674D01*
X31347Y19959D01*
X30065Y23052D01*
X28205Y25837D01*
X25837Y28205D01*
X23052Y30065D01*
X19959Y31347D01*
X16674Y32000D01*
X13326D01*
X10041Y31347D01*
X6948Y30065D01*
X6218Y29578D01*
X5098Y30176D01*
Y41220D01*
X6368Y41845D01*
X7912Y41206D01*
X10000Y40931D01*
X50000D01*
X52088Y41206D01*
X54035Y42012D01*
X55706Y43294D01*
X56988Y44966D01*
X57794Y46912D01*
X58069Y49000D01*
Y59000D01*
X57794Y61088D01*
X56988Y63035D01*
X55706Y64706D01*
X54035Y65988D01*
X52088Y66794D01*
X50000Y67069D01*
X10000D01*
X7912Y66794D01*
X6368Y66155D01*
X5098Y66780D01*
X5098Y134220D01*
X6368Y134845D01*
X7912Y134206D01*
X10000Y133931D01*
X50000D01*
X52088Y134206D01*
X54035Y135012D01*
X55706Y136294D01*
X56988Y137965D01*
X57794Y139912D01*
X58069Y142000D01*
Y152000D01*
X57794Y154088D01*
X56988Y156034D01*
X55706Y157706D01*
X54035Y158988D01*
X52280Y159715D01*
X52276Y159718D01*
X51966Y160417D01*
X51831Y161109D01*
X52304Y161726D01*
X52858Y163064D01*
X53047Y164500D01*
Y169500D01*
X52858Y170936D01*
X52304Y172274D01*
X51423Y173423D01*
X51022Y173730D01*
X51453Y175000D01*
X58598D01*
X58969Y174926D01*
D02*
G37*
G36*
X180559Y203783D02*
X181168Y203174D01*
X182029Y203174D01*
X182825Y202844D01*
X183500Y203124D01*
X197639D01*
X199396Y202396D01*
X200124Y200639D01*
Y197361D01*
X199087Y194859D01*
X198408Y194405D01*
X198322Y193970D01*
X198008Y193657D01*
Y192394D01*
X197762Y191155D01*
X198160Y189155D01*
X198861Y188105D01*
X199345Y186938D01*
X199754Y186769D01*
X200001Y186400D01*
X201239Y186154D01*
X202406Y185670D01*
X205000D01*
Y162594D01*
X204547Y161500D01*
Y156500D01*
X205000Y155406D01*
Y147000D01*
X202008D01*
X198500Y148453D01*
X193500D01*
X189992Y147000D01*
X187500D01*
Y173204D01*
X187710Y173291D01*
X189453Y177500D01*
Y182500D01*
X187710Y186709D01*
X187500Y186796D01*
Y187000D01*
X187008D01*
X183500Y188453D01*
X178500D01*
X178000Y188787D01*
Y201453D01*
X177953Y201500D01*
X180330Y203877D01*
X180559Y203783D01*
D02*
G37*
G36*
X279000Y205131D02*
Y131000D01*
X285651D01*
Y129926D01*
X286025Y128528D01*
X286132Y128343D01*
X285398Y127073D01*
X284750D01*
X283287Y126782D01*
X283000Y126591D01*
X282713Y126782D01*
X281250Y127073D01*
X279750D01*
X278287Y126782D01*
X278000Y126591D01*
X277713Y126782D01*
X276805Y126963D01*
X274584Y129184D01*
X273261Y130068D01*
X272517Y130216D01*
X272386Y130442D01*
X271362Y131466D01*
X270108Y132190D01*
X268709Y132565D01*
X267261D01*
X265862Y132190D01*
X265348Y131894D01*
X264078Y132627D01*
Y133000D01*
X263768Y134561D01*
X262884Y135884D01*
X261561Y136768D01*
X260000Y137078D01*
X242000D01*
X240439Y136768D01*
X239116Y135884D01*
X238232Y134561D01*
X237922Y133000D01*
Y131003D01*
X238232Y129443D01*
X239116Y128120D01*
X239464Y127887D01*
X240375Y125689D01*
Y122311D01*
X239464Y120113D01*
X239116Y119881D01*
X238232Y118557D01*
X237922Y116997D01*
Y115000D01*
X238232Y113439D01*
X239116Y112116D01*
X240439Y111232D01*
X242000Y110922D01*
X245687D01*
X246460Y109914D01*
X246376Y109600D01*
Y108152D01*
X246750Y106753D01*
X247474Y105499D01*
X248498Y104474D01*
X248875Y104257D01*
X249683Y103566D01*
X249321Y102603D01*
X249089Y102201D01*
X248714Y100802D01*
Y99354D01*
X249049Y98103D01*
X248841Y97482D01*
X248467Y96833D01*
X232295D01*
X229317Y99811D01*
X227912Y100750D01*
X226253Y101080D01*
X224381D01*
X223992Y102020D01*
X223110Y103169D01*
X221961Y104051D01*
X220623Y104605D01*
X219187Y104794D01*
X217604D01*
X217118Y105968D01*
X221052Y109902D01*
X225290D01*
X225337Y109875D01*
X226736Y109500D01*
X228184D01*
X229583Y109875D01*
X230837Y110599D01*
X231861Y111623D01*
X232585Y112877D01*
X232960Y114276D01*
Y115724D01*
X232585Y117123D01*
X231861Y118377D01*
X230837Y119401D01*
X229583Y120125D01*
X228184Y120500D01*
X226736D01*
X225337Y120125D01*
X225290Y120098D01*
X218941D01*
X216990Y119710D01*
X215336Y118605D01*
X201525Y104794D01*
X198187D01*
X196751Y104605D01*
X195414Y104051D01*
X194265Y103169D01*
X193383Y102020D01*
X192829Y100682D01*
X192640Y99247D01*
Y94247D01*
X192829Y92811D01*
X193383Y91473D01*
X194265Y90324D01*
X195414Y89443D01*
X196751Y88888D01*
X198187Y88699D01*
X203187D01*
X204623Y88888D01*
X205961Y89443D01*
X207110Y90324D01*
X207992Y91473D01*
X208000Y91493D01*
X209375D01*
X209383Y91473D01*
X210265Y90324D01*
X211414Y89443D01*
X212752Y88888D01*
X214187Y88699D01*
X219187D01*
X220623Y88888D01*
X221961Y89443D01*
X223110Y90324D01*
X223823Y91253D01*
X224711Y91485D01*
X225376Y91496D01*
X226342Y90530D01*
X218607Y82794D01*
X214187D01*
X212752Y82605D01*
X211414Y82051D01*
X210265Y81169D01*
X209383Y80020D01*
X209375Y80000D01*
X208000D01*
X207992Y80020D01*
X207110Y81169D01*
X205961Y82051D01*
X204623Y82605D01*
X203187Y82794D01*
X198187D01*
X196751Y82605D01*
X195414Y82051D01*
X194265Y81169D01*
X193383Y80020D01*
X192829Y78682D01*
X192640Y77247D01*
Y73909D01*
X190065Y71334D01*
X173778D01*
X172348Y71050D01*
X171078Y71857D01*
Y75860D01*
Y93311D01*
X182024Y104256D01*
X190900Y113132D01*
X191050Y113356D01*
X191252Y113534D01*
X191488Y114012D01*
X191784Y114455D01*
X191837Y114719D01*
X191956Y114961D01*
X191991Y115493D01*
X192095Y116016D01*
X192042Y116280D01*
X192060Y116549D01*
X192031Y116768D01*
Y121233D01*
X192115Y121871D01*
X192301Y122319D01*
X192472Y122666D01*
X192768Y123110D01*
X192820Y123373D01*
X192939Y123615D01*
X192974Y124147D01*
X193078Y124670D01*
Y134330D01*
X192974Y134853D01*
X192939Y135385D01*
X192820Y135627D01*
X192768Y135891D01*
X192472Y136334D01*
X192301Y136681D01*
X192115Y137129D01*
X192031Y137767D01*
Y142500D01*
X191901Y143152D01*
X191873Y143365D01*
X194311Y144375D01*
X197689D01*
X200448Y143232D01*
X202008Y142922D01*
X205000D01*
X206561Y143232D01*
X207884Y144116D01*
X208768Y145439D01*
X209078Y147000D01*
Y155406D01*
X208768Y156967D01*
X208768Y156967D01*
X208625Y157311D01*
Y160689D01*
X208768Y161033D01*
X209078Y162594D01*
Y185670D01*
X209284Y185922D01*
X248340Y185922D01*
X249900Y186232D01*
X251224Y187116D01*
X252108Y188439D01*
X252418Y190000D01*
Y202902D01*
X273000D01*
X274951Y203290D01*
X276605Y204395D01*
X277827Y205617D01*
X279000Y205131D01*
D02*
G37*
G36*
X345000Y120000D02*
Y112853D01*
X343208Y111498D01*
X341250Y112309D01*
X334750D01*
X333294Y111706D01*
X329706Y115294D01*
X330309Y116750D01*
Y123250D01*
X331749Y125000D01*
X333973D01*
X334491Y124482D01*
X339047D01*
X339564Y125000D01*
X340000D01*
X345000Y120000D01*
D02*
G37*
G36*
X444902Y129897D02*
Y30176D01*
X443782Y29578D01*
X443052Y30065D01*
X439959Y31347D01*
X436674Y32000D01*
X433326D01*
X430041Y31347D01*
X426948Y30065D01*
X424163Y28205D01*
X421795Y25837D01*
X419935Y23052D01*
X418653Y19959D01*
X418000Y16674D01*
Y13326D01*
X418653Y10041D01*
X419935Y6948D01*
X420422Y6218D01*
X419824Y5098D01*
X390975D01*
X390841Y5464D01*
X390764Y6368D01*
X391884Y7116D01*
X391884Y7116D01*
X404884Y20116D01*
X405768Y21439D01*
X406078Y23000D01*
X406078Y23000D01*
X406078Y26000D01*
Y42000D01*
X405768Y43561D01*
X404884Y44884D01*
X403561Y45768D01*
X402000Y46078D01*
X378000D01*
X376439Y45768D01*
X375116Y44884D01*
X374785Y44389D01*
X374274Y44304D01*
X372936Y44858D01*
X371500Y45047D01*
X366500D01*
X365811Y44957D01*
X363078Y47689D01*
Y50356D01*
X364348Y51104D01*
X365500Y50953D01*
X370500D01*
X371936Y51142D01*
X373274Y51696D01*
X374423Y52577D01*
X375304Y53726D01*
X375588Y54412D01*
X383000D01*
X384756Y54761D01*
X386244Y55756D01*
X396393Y65904D01*
X400125D01*
X402027Y66283D01*
X403640Y67360D01*
X404717Y68973D01*
X405095Y70875D01*
Y74625D01*
X404717Y76527D01*
X403640Y78140D01*
X402027Y79217D01*
X400125Y79595D01*
X395375D01*
X393473Y79217D01*
X391860Y78140D01*
X390783Y76527D01*
X390405Y74625D01*
Y72893D01*
X381100Y63588D01*
X375588D01*
X375304Y64274D01*
X374423Y65423D01*
X373274Y66304D01*
X371936Y66858D01*
X370500Y67047D01*
X366441D01*
X362588Y70901D01*
Y82000D01*
X362253Y83683D01*
X362251Y83904D01*
X362901Y84953D01*
X363500D01*
X364936Y85142D01*
X366274Y85696D01*
X367423Y86577D01*
X368304Y87726D01*
X368858Y89064D01*
X369047Y90500D01*
Y95500D01*
X368858Y96936D01*
X368304Y98274D01*
X367423Y99423D01*
X366274Y100304D01*
X366253Y100313D01*
Y101687D01*
X366274Y101696D01*
X367423Y102577D01*
X368304Y103726D01*
X368799Y104922D01*
X375304D01*
Y102274D01*
X375493Y100838D01*
X376047Y99500D01*
X376929Y98351D01*
X378078Y97470D01*
X379416Y96915D01*
X380172Y96816D01*
Y89757D01*
X379973Y89717D01*
X378360Y88640D01*
X377283Y87027D01*
X376904Y85125D01*
Y81375D01*
X377283Y79473D01*
X378360Y77860D01*
X379973Y76783D01*
X381875Y76405D01*
X386625D01*
X388527Y76783D01*
X390140Y77860D01*
X391217Y79473D01*
X391595Y81375D01*
Y85125D01*
X391217Y87027D01*
X390140Y88640D01*
X388527Y89717D01*
X388328Y89757D01*
Y97346D01*
X388625Y97470D01*
X389774Y98351D01*
X390656Y99500D01*
X391210Y100838D01*
X391399Y102274D01*
Y107274D01*
X391210Y108709D01*
X390656Y110047D01*
X389774Y111196D01*
X388625Y112078D01*
X387287Y112632D01*
X385852Y112821D01*
X380852D01*
X379969Y112705D01*
X379874Y112768D01*
X378313Y113078D01*
X378313Y113078D01*
X368799D01*
X368304Y114274D01*
X367423Y115423D01*
X366274Y116304D01*
X364936Y116858D01*
X363500Y117047D01*
X358500D01*
X357064Y116858D01*
X355726Y116304D01*
X354577Y115423D01*
X353696Y114274D01*
X353142Y112936D01*
X352953Y111500D01*
Y106500D01*
X353142Y105064D01*
X353696Y103726D01*
X354577Y102577D01*
X355726Y101696D01*
X355747Y101687D01*
Y100313D01*
X355726Y100304D01*
X354577Y99423D01*
X353696Y98274D01*
X353205Y97088D01*
X345074D01*
Y98250D01*
X344782Y99713D01*
X344591Y100000D01*
X344782Y100287D01*
X345074Y101750D01*
Y103250D01*
X344782Y104713D01*
X344591Y105000D01*
X344782Y105287D01*
X345074Y106750D01*
Y107934D01*
X345201Y108019D01*
X345668Y108245D01*
X347460Y109601D01*
X347648Y109812D01*
X347884Y109970D01*
X348172Y110402D01*
X348518Y110790D01*
X348611Y111057D01*
X348768Y111293D01*
X348869Y111802D01*
X349040Y112293D01*
X349023Y112576D01*
X349078Y112853D01*
Y120000D01*
X349078Y120000D01*
X348768Y121561D01*
X347884Y122884D01*
X342884Y127884D01*
X342050Y128441D01*
X342269Y129258D01*
Y130707D01*
X342494Y131000D01*
X383000D01*
Y128818D01*
X383461Y126500D01*
X384366Y124316D01*
X385679Y122350D01*
X387350Y120679D01*
X389316Y119366D01*
X391500Y118461D01*
X393818Y118000D01*
X396182D01*
X398500Y118461D01*
X400684Y119366D01*
X402650Y120679D01*
X404321Y122350D01*
X405634Y124316D01*
X406539Y126500D01*
X407000Y128818D01*
Y131000D01*
X418000D01*
Y128818D01*
X418461Y126500D01*
X419366Y124316D01*
X420679Y122350D01*
X422350Y120679D01*
X424316Y119366D01*
X426500Y118461D01*
X428818Y118000D01*
X431182D01*
X433500Y118461D01*
X435684Y119366D01*
X437650Y120679D01*
X439321Y122350D01*
X440634Y124316D01*
X441539Y126500D01*
X442000Y128818D01*
Y131000D01*
X443632D01*
X444902Y129897D01*
D02*
G37*
G36*
X260000Y115000D02*
X242000D01*
Y116997D01*
X242710Y117290D01*
X244453Y121500D01*
Y126500D01*
X242710Y130709D01*
X242000Y131003D01*
Y133000D01*
X260000D01*
Y115000D01*
D02*
G37*
G36*
X323287Y113218D02*
X324750Y112927D01*
X326250D01*
X326450Y112966D01*
X326529Y112849D01*
X326822Y112410D01*
X326822D01*
Y112410D01*
X330410Y108822D01*
X330410D01*
Y108822D01*
X330966Y108450D01*
X330927Y108250D01*
Y106750D01*
X331218Y105287D01*
X331409Y105000D01*
X331218Y104713D01*
X330927Y103250D01*
Y101750D01*
X331218Y100287D01*
X331409Y100000D01*
X331218Y99713D01*
X330927Y98250D01*
Y96750D01*
X331218Y95287D01*
X331409Y95000D01*
X331218Y94713D01*
X330927Y93250D01*
Y91750D01*
X331218Y90287D01*
X331409Y90000D01*
X331218Y89713D01*
X330927Y88250D01*
Y86750D01*
X331218Y85287D01*
X331409Y85000D01*
X331218Y84713D01*
X330927Y83250D01*
Y81750D01*
X331218Y80287D01*
X331409Y80000D01*
X331218Y79713D01*
X330927Y78250D01*
Y76750D01*
X331218Y75287D01*
X331409Y75000D01*
X331218Y74713D01*
X330927Y73250D01*
Y71750D01*
X331218Y70287D01*
X331409Y70000D01*
X331218Y69713D01*
X330927Y68250D01*
Y66750D01*
X331218Y65287D01*
X331409Y65000D01*
X331218Y64713D01*
X330927Y63250D01*
Y61750D01*
X331218Y60287D01*
X331409Y60000D01*
X331218Y59713D01*
X330927Y58250D01*
Y57073D01*
X329750D01*
X328287Y56782D01*
X328000Y56591D01*
X327713Y56782D01*
X326250Y57073D01*
X324750D01*
X323287Y56782D01*
X323000Y56591D01*
X322713Y56782D01*
X321250Y57073D01*
X319750D01*
X318287Y56782D01*
X318000Y56591D01*
X317713Y56782D01*
X316250Y57073D01*
X314750D01*
X313287Y56782D01*
X313000Y56591D01*
X312713Y56782D01*
X311250Y57073D01*
X309750D01*
X308287Y56782D01*
X308000Y56591D01*
X307713Y56782D01*
X306250Y57073D01*
X304750D01*
X303287Y56782D01*
X303000Y56591D01*
X302713Y56782D01*
X301250Y57073D01*
X299750D01*
X298287Y56782D01*
X298270Y56771D01*
X298195Y56884D01*
X297697Y57217D01*
X297234Y57597D01*
X297040Y57656D01*
X296872Y57768D01*
X296284Y57885D01*
X295711Y58059D01*
X295509Y58039D01*
X295311Y58078D01*
X290689D01*
X290491Y58039D01*
X290289Y58059D01*
X289716Y57885D01*
X289128Y57768D01*
X288960Y57656D01*
X288766Y57597D01*
X288304Y57217D01*
X287805Y56884D01*
X287730Y56771D01*
X287713Y56782D01*
X286250Y57073D01*
X284750D01*
X283287Y56782D01*
X283000Y56591D01*
X282713Y56782D01*
X281250Y57073D01*
X279750D01*
X278287Y56782D01*
X278000Y56591D01*
X277713Y56782D01*
X276250Y57073D01*
X275073D01*
Y58250D01*
X274782Y59713D01*
X274591Y60000D01*
X274782Y60287D01*
X275073Y61750D01*
Y63250D01*
X274782Y64713D01*
X274591Y65000D01*
X274782Y65287D01*
X275073Y66750D01*
Y68250D01*
X274782Y69713D01*
X274591Y70000D01*
X274782Y70287D01*
X275073Y71750D01*
Y73250D01*
X274782Y74713D01*
X274591Y75000D01*
X274782Y75287D01*
X275073Y76750D01*
Y78250D01*
X274782Y79713D01*
X274591Y80000D01*
X274782Y80287D01*
X275073Y81750D01*
Y83250D01*
X274782Y84713D01*
X274591Y85000D01*
X274782Y85287D01*
X275073Y86750D01*
Y88250D01*
X274782Y89713D01*
X274591Y90000D01*
X274782Y90287D01*
X275073Y91750D01*
Y93250D01*
X274782Y94713D01*
X274591Y95000D01*
X274782Y95287D01*
X275073Y96750D01*
Y98250D01*
X274782Y99713D01*
X274591Y100000D01*
X274782Y100287D01*
X275073Y101750D01*
Y103250D01*
X274782Y104713D01*
X274591Y105000D01*
X274782Y105287D01*
X275073Y106750D01*
Y108250D01*
X274782Y109713D01*
X274591Y110000D01*
X274782Y110287D01*
X275073Y111750D01*
Y112927D01*
X276250D01*
X277713Y113218D01*
X278000Y113409D01*
X278287Y113218D01*
X279750Y112927D01*
X281250D01*
X282713Y113218D01*
X283000Y113409D01*
X283287Y113218D01*
X284750Y112927D01*
X286250D01*
X287713Y113218D01*
X288000Y113409D01*
X288287Y113218D01*
X289750Y112927D01*
X291250D01*
X292713Y113218D01*
X293000Y113409D01*
X293287Y113218D01*
X294750Y112927D01*
X296250D01*
X297713Y113218D01*
X298000Y113409D01*
X298287Y113218D01*
X299750Y112927D01*
X301250D01*
X302713Y113218D01*
X303000Y113409D01*
X303287Y113218D01*
X304750Y112927D01*
X306250D01*
X307713Y113218D01*
X308000Y113409D01*
X308287Y113218D01*
X309750Y112927D01*
X311250D01*
X312713Y113218D01*
X313000Y113409D01*
X313287Y113218D01*
X314750Y112927D01*
X316250D01*
X317713Y113218D01*
X318000Y113409D01*
X318287Y113218D01*
X319750Y112927D01*
X321250D01*
X322713Y113218D01*
X323000Y113409D01*
X323287Y113218D01*
D02*
G37*
G36*
X146922Y122860D02*
X146974Y122596D01*
X146957Y122328D01*
X146969Y122233D01*
Y107767D01*
X146957Y107672D01*
X145113Y107000D01*
X137775D01*
Y107747D01*
X137426Y109502D01*
X137000Y110140D01*
Y111000D01*
X126000Y122000D01*
Y139232D01*
X126768Y140000D01*
X146922D01*
Y122860D01*
D02*
G37*
G36*
X123000Y96000D02*
X117000Y90000D01*
Y83176D01*
X115456Y81495D01*
X114995Y81215D01*
X114457D01*
X113639Y80876D01*
X110361D01*
X107157Y82204D01*
X106861Y82500D01*
X105999Y82500D01*
X105204Y82830D01*
X84170D01*
X80000Y87000D01*
Y103197D01*
X81663Y104308D01*
X83500Y103547D01*
X88500D01*
X92008Y105000D01*
X123000D01*
Y96000D01*
D02*
G37*
G36*
X77116Y138116D02*
X78439Y137232D01*
X80000Y136922D01*
X100078D01*
X105953Y131047D01*
Y130500D01*
X106142Y129064D01*
X106696Y127726D01*
X107577Y126577D01*
X108726Y125696D01*
X110000Y125168D01*
Y124000D01*
X120000D01*
X121922Y122078D01*
Y122000D01*
X121922Y122000D01*
X122232Y120439D01*
X123116Y119116D01*
X133080Y109153D01*
X133154Y108974D01*
X133232Y108580D01*
X133455Y108246D01*
X133576Y107954D01*
X133697Y107345D01*
Y107000D01*
X134008Y105439D01*
X134301Y105000D01*
X133236Y103000D01*
X127078D01*
Y105000D01*
X126768Y106561D01*
X125884Y107884D01*
X124561Y108768D01*
X123000Y109078D01*
X92008D01*
X90448Y108768D01*
X87689Y107625D01*
X84311D01*
X83224Y108076D01*
X82830Y108154D01*
X82459Y108308D01*
X82057D01*
X81663Y108386D01*
X81269Y108308D01*
X80867D01*
X80496Y108154D01*
X80102Y108076D01*
X79995Y108004D01*
X78047Y109953D01*
Y114500D01*
X77858Y115936D01*
X77304Y117274D01*
X76423Y118423D01*
X75274Y119304D01*
X73936Y119858D01*
X72500Y120047D01*
X67953D01*
X67000Y121000D01*
Y139000D01*
X76232D01*
X77116Y138116D01*
D02*
G37*
G36*
X105290Y78291D02*
X109500Y76547D01*
X114500D01*
X116114Y77215D01*
X118000Y75832D01*
Y64000D01*
X109000D01*
X91000Y46000D01*
X79750D01*
Y78500D01*
X105204D01*
X105290Y78291D01*
D02*
G37*
G36*
X176605Y184909D02*
X176939Y184685D01*
X177333Y184607D01*
X177704Y184453D01*
X178106D01*
X178500Y184375D01*
X182689D01*
X184588Y183588D01*
X185375Y181689D01*
Y178311D01*
X184189Y175448D01*
X183732Y174765D01*
Y174765D01*
X183732Y174764D01*
X183557Y173883D01*
X183422Y173204D01*
X183422Y173204D01*
X183422Y173204D01*
Y147000D01*
X183732Y145439D01*
X184616Y144116D01*
X185939Y143232D01*
X187500Y142922D01*
X187583D01*
X187953Y142500D01*
Y137500D01*
X188142Y136064D01*
X188696Y134726D01*
X189000Y134330D01*
Y124670D01*
X188696Y124274D01*
X188142Y122936D01*
X187953Y121500D01*
Y116500D01*
X188016Y116016D01*
X179140Y107140D01*
X167000Y95000D01*
Y75860D01*
Y67158D01*
X166877Y67125D01*
X165623Y66401D01*
X164599Y65377D01*
X163875Y64123D01*
X163500Y62724D01*
Y61276D01*
X163875Y59877D01*
X164599Y58623D01*
X165623Y57599D01*
X166877Y56875D01*
X167000Y56842D01*
Y40078D01*
X165000Y38078D01*
X156063D01*
X156000Y38394D01*
Y38796D01*
X155846Y39167D01*
X155768Y39561D01*
X155545Y39895D01*
X155391Y40266D01*
X155107Y40550D01*
X154884Y40884D01*
X154550Y41107D01*
X154266Y41391D01*
X153895Y41545D01*
X153561Y41768D01*
X153167Y41846D01*
X152796Y42000D01*
X152394D01*
X152000Y42078D01*
X151000D01*
Y50140D01*
X151047Y50500D01*
Y55500D01*
X151000Y55860D01*
Y70140D01*
X151047Y70500D01*
Y75500D01*
X151000Y75860D01*
Y90140D01*
X151047Y90500D01*
Y95500D01*
X151000Y95860D01*
Y107140D01*
X151047Y107500D01*
Y122500D01*
X151000Y122860D01*
Y159750D01*
X170000D01*
Y181031D01*
X173969Y185000D01*
X176384D01*
X176605Y184909D01*
D02*
G37*
G36*
X194752Y60700D02*
X194819Y59595D01*
X194265Y59169D01*
X193383Y58020D01*
X192829Y56683D01*
X192640Y55247D01*
Y50247D01*
X192829Y48811D01*
X193383Y47473D01*
X194265Y46324D01*
X195414Y45443D01*
X196751Y44888D01*
X198187Y44699D01*
X203187D01*
X203654Y44761D01*
X204609Y43923D01*
Y40436D01*
X202967Y38794D01*
X198187D01*
X196751Y38605D01*
X195414Y38051D01*
X194265Y37169D01*
X193383Y36020D01*
X193348Y35937D01*
X192078Y36189D01*
Y45000D01*
X191768Y46561D01*
X190884Y47884D01*
X189561Y48768D01*
X188000Y49078D01*
X171186D01*
X171078Y49167D01*
Y56842D01*
X171074Y56862D01*
X171123Y56875D01*
X172377Y57599D01*
X173401Y58623D01*
X173438Y58688D01*
X175889Y61138D01*
X192177D01*
X193613Y61424D01*
X194752Y60700D01*
D02*
G37*
G36*
X188000Y11419D02*
X172605D01*
Y21419D01*
X163605Y30419D01*
X156896D01*
X156078Y31415D01*
X156078Y31415D01*
Y33922D01*
X160000D01*
X160394Y34000D01*
X165000D01*
X165000Y34000D01*
X166561Y34310D01*
X167884Y35194D01*
X167884Y35195D01*
X169884Y37194D01*
X169884Y37194D01*
X170768Y38518D01*
X170881Y39086D01*
X171078Y40078D01*
X171078Y40078D01*
Y44892D01*
X171186Y45000D01*
X188000D01*
Y11419D01*
D02*
G37*
G36*
X323211Y37213D02*
X323157Y35867D01*
X322577Y35423D01*
X321696Y34274D01*
X321142Y32936D01*
X320953Y31500D01*
Y26500D01*
X321142Y25064D01*
X321696Y23726D01*
X322577Y22577D01*
X323726Y21696D01*
X323747Y21687D01*
Y20313D01*
X323726Y20304D01*
X322577Y19423D01*
X321696Y18274D01*
X321142Y16936D01*
X320953Y15500D01*
Y10500D01*
X321142Y9064D01*
X321696Y7726D01*
X322577Y6577D01*
X322850Y6368D01*
X322419Y5098D01*
X286858D01*
X286735Y5290D01*
X286567Y6579D01*
X286939Y6916D01*
X287356Y7194D01*
X287523Y7445D01*
X287746Y7647D01*
X288323Y8424D01*
X288541Y8884D01*
X288823Y9309D01*
X289324Y10532D01*
X289474Y11304D01*
X289628Y12078D01*
X289627Y12086D01*
X289628Y12094D01*
X289471Y12870D01*
X289318Y13639D01*
X289115Y14129D01*
X289031Y14767D01*
Y19233D01*
X289115Y19871D01*
X289258Y20217D01*
X289486Y20514D01*
X289783Y20742D01*
X290274Y20945D01*
X291597Y21829D01*
X292689Y22922D01*
X296842D01*
X296862Y22926D01*
X296875Y22877D01*
X297599Y21623D01*
X298623Y20599D01*
X299877Y19875D01*
X301276Y19500D01*
X302724D01*
X304123Y19875D01*
X305377Y20599D01*
X306401Y21623D01*
X306772Y22265D01*
X308228D01*
X308599Y21623D01*
X309623Y20599D01*
X310877Y19875D01*
X312276Y19500D01*
X313724D01*
X315123Y19875D01*
X316377Y20599D01*
X317401Y21623D01*
X318125Y22877D01*
X318500Y24276D01*
Y25724D01*
X318125Y27123D01*
X317401Y28377D01*
X317013Y28765D01*
X316853Y30052D01*
X317098Y30389D01*
X317866Y31157D01*
X318591Y32411D01*
X318965Y33810D01*
Y35259D01*
X320035Y36172D01*
X320600Y36324D01*
X321855Y37048D01*
X322441Y37635D01*
X323211Y37213D01*
D02*
G37*
G36*
X295927Y53250D02*
Y46750D01*
X296218Y45287D01*
X296422Y44981D01*
Y38500D01*
X296422Y38500D01*
X296732Y36939D01*
X297616Y35616D01*
X297922Y35311D01*
Y28700D01*
X297599Y28377D01*
X296875Y27123D01*
X296842Y27000D01*
X291000D01*
X288713Y24713D01*
X287726Y24304D01*
X286577Y23423D01*
X285696Y22274D01*
X285142Y20936D01*
X284953Y19500D01*
Y14500D01*
X285142Y13064D01*
X285550Y12078D01*
X285049Y10855D01*
X284472Y10078D01*
X266000D01*
Y20000D01*
X270222D01*
X270623Y19599D01*
X271877Y18875D01*
X273276Y18500D01*
X274724D01*
X276123Y18875D01*
X277377Y19599D01*
X278401Y20623D01*
X279125Y21877D01*
X279382Y22836D01*
X286884Y30338D01*
X286884Y30338D01*
X287768Y31661D01*
X287794Y31794D01*
X288000Y32000D01*
Y32828D01*
X288078Y33222D01*
X288078Y33222D01*
Y37311D01*
X288384Y37616D01*
X288384Y37616D01*
X289268Y38939D01*
X289578Y40500D01*
X289578Y40500D01*
Y44981D01*
X289782Y45287D01*
X290074Y46750D01*
Y53250D01*
X290689Y54000D01*
X295311D01*
X295927Y53250D01*
D02*
G37*
G36*
X402000Y26000D02*
X402000Y23000D01*
X389000Y10000D01*
X378000D01*
Y42000D01*
X402000D01*
Y26000D01*
D02*
G37*
%LPC*%
G36*
X402027Y190197D02*
X400579D01*
X399180Y189822D01*
X397926Y189098D01*
X396902Y188074D01*
X396178Y186820D01*
X395803Y185421D01*
Y183973D01*
X396178Y182574D01*
X396902Y181320D01*
X397926Y180296D01*
X399180Y179572D01*
X400579Y179197D01*
X402027D01*
X403426Y179572D01*
X403752Y179760D01*
X406953Y176559D01*
Y172500D01*
X407142Y171064D01*
X407696Y169726D01*
X408577Y168577D01*
X409726Y167696D01*
X411064Y167142D01*
X412500Y166952D01*
X417500D01*
X418936Y167142D01*
X420274Y167696D01*
X421423Y168577D01*
X422304Y169726D01*
X422858Y171064D01*
X423047Y172500D01*
Y177500D01*
X422858Y178936D01*
X422304Y180274D01*
X421423Y181423D01*
X420274Y182304D01*
X418936Y182858D01*
X417500Y183047D01*
X413441D01*
X408548Y187941D01*
X407059Y188936D01*
X405303Y189285D01*
X404356D01*
X403426Y189822D01*
X402027Y190197D01*
D02*
G37*
G36*
X401500Y164088D02*
X386500D01*
X384744Y163739D01*
X383256Y162744D01*
X382261Y161256D01*
X381912Y159500D01*
Y154500D01*
X382261Y152744D01*
X383256Y151256D01*
X384744Y150261D01*
X386500Y149912D01*
X401500D01*
X403256Y150261D01*
X404744Y151256D01*
X405739Y152744D01*
X406088Y154500D01*
Y159500D01*
X405739Y161256D01*
X404744Y162744D01*
X403256Y163739D01*
X401500Y164088D01*
D02*
G37*
G36*
X354724Y159312D02*
X353276D01*
X351877Y158937D01*
X350623Y158213D01*
X349599Y157189D01*
X348875Y155935D01*
X348500Y154536D01*
Y153088D01*
X348875Y151689D01*
X349599Y150435D01*
X350623Y149411D01*
X351877Y148687D01*
X353276Y148312D01*
X354724D01*
X356123Y148687D01*
X357377Y149411D01*
X358401Y150435D01*
X359125Y151689D01*
X359500Y153088D01*
Y154536D01*
X359125Y155935D01*
X358401Y157189D01*
X357377Y158213D01*
X356123Y158937D01*
X354724Y159312D01*
D02*
G37*
G36*
X33500Y235047D02*
X28500D01*
X27064Y234858D01*
X25726Y234304D01*
X24577Y233423D01*
X23696Y232274D01*
X23142Y230936D01*
X22953Y229500D01*
Y224500D01*
X23142Y223064D01*
X23696Y221726D01*
X24577Y220577D01*
X25726Y219696D01*
X27064Y219142D01*
X28500Y218953D01*
X30489D01*
X32721Y216721D01*
X33974Y215759D01*
X35434Y215154D01*
X37000Y214948D01*
X42000D01*
X43566Y215154D01*
X45026Y215759D01*
X46279Y216721D01*
X47241Y217974D01*
X47846Y219434D01*
X48052Y221000D01*
X47846Y222566D01*
X47241Y224026D01*
X46279Y225279D01*
X45026Y226241D01*
X43566Y226845D01*
X42000Y227052D01*
X39507D01*
X39047Y227511D01*
Y229500D01*
X38858Y230936D01*
X38304Y232274D01*
X37423Y233423D01*
X36274Y234304D01*
X34936Y234858D01*
X33500Y235047D01*
D02*
G37*
G36*
X123500Y211047D02*
X118500D01*
X117064Y210858D01*
X115726Y210304D01*
X114577Y209423D01*
X113696Y208274D01*
X113142Y206936D01*
X112953Y205500D01*
Y200500D01*
X113142Y199064D01*
X113696Y197726D01*
X114577Y196577D01*
X115726Y195696D01*
X117064Y195142D01*
X118500Y194953D01*
X123500D01*
X124936Y195142D01*
X126274Y195696D01*
X127423Y196577D01*
X128304Y197726D01*
X128858Y199064D01*
X129047Y200500D01*
Y205500D01*
X128858Y206936D01*
X128304Y208274D01*
X127423Y209423D01*
X126274Y210304D01*
X124936Y210858D01*
X123500Y211047D01*
D02*
G37*
G36*
X246500Y163288D02*
X229500D01*
X227744Y162939D01*
X226256Y161944D01*
X225261Y160456D01*
X224912Y158700D01*
Y155700D01*
X225261Y153944D01*
X226256Y152456D01*
X227744Y151461D01*
X229500Y151112D01*
X246500D01*
X248256Y151461D01*
X249744Y152456D01*
X250739Y153944D01*
X251088Y155700D01*
Y158700D01*
X250739Y160456D01*
X249744Y161944D01*
X248256Y162939D01*
X246500Y163288D01*
D02*
G37*
G36*
X431182Y107000D02*
X428818D01*
X426500Y106539D01*
X424316Y105634D01*
X422350Y104321D01*
X420679Y102650D01*
X419366Y100684D01*
X418461Y98500D01*
X418000Y96182D01*
Y93818D01*
X418461Y91500D01*
X419366Y89316D01*
X420679Y87350D01*
X422350Y85679D01*
X424316Y84366D01*
X426500Y83461D01*
X428818Y83000D01*
X431182D01*
X433500Y83461D01*
X435684Y84366D01*
X437650Y85679D01*
X439321Y87350D01*
X440634Y89316D01*
X441539Y91500D01*
X442000Y93818D01*
Y96182D01*
X441539Y98500D01*
X440634Y100684D01*
X439321Y102650D01*
X437650Y104321D01*
X435684Y105634D01*
X433500Y106539D01*
X431182Y107000D01*
D02*
G37*
G36*
Y72000D02*
X428818D01*
X426500Y71539D01*
X424316Y70634D01*
X422350Y69321D01*
X420679Y67649D01*
X419366Y65684D01*
X418461Y63500D01*
X418000Y61182D01*
Y58818D01*
X418461Y56500D01*
X419366Y54316D01*
X420679Y52350D01*
X422350Y50679D01*
X424316Y49366D01*
X426500Y48461D01*
X428818Y48000D01*
X431182D01*
X433500Y48461D01*
X435684Y49366D01*
X437650Y50679D01*
X439321Y52350D01*
X440634Y54316D01*
X441539Y56500D01*
X442000Y58818D01*
Y61182D01*
X441539Y63500D01*
X440634Y65684D01*
X439321Y67649D01*
X437650Y69321D01*
X435684Y70634D01*
X433500Y71539D01*
X431182Y72000D01*
D02*
G37*
%LPD*%
D11*
X409000Y276000D02*
Y324000D01*
X284222Y272000D02*
X405000D01*
X409000Y276000D01*
X267598Y107902D02*
X268000Y107500D01*
X263098Y107902D02*
X267598D01*
X258500Y112500D02*
Y117500D01*
Y112500D02*
X263098Y107902D01*
X32319Y193500D02*
X32719Y193100D01*
Y190931D02*
X32825Y190825D01*
Y176740D02*
Y190825D01*
X30150Y193500D02*
X32319D01*
X32719Y190931D02*
Y193100D01*
X35500Y168000D02*
X44000D01*
X27000D02*
X35500D01*
X32825Y176740D02*
X35500Y174065D01*
Y168000D02*
Y174065D01*
X44000Y168000D02*
X45000Y167000D01*
X268500Y112500D02*
X269000Y113000D01*
X268000Y112500D02*
X268500D01*
X269000Y113000D02*
Y118586D01*
X268751Y126300D02*
X271700D01*
X267985Y127065D02*
X268751Y126300D01*
X271700D02*
X275500Y122500D01*
Y120000D02*
Y122500D01*
X274778Y24000D02*
X284000Y33222D01*
Y39000D02*
X285500Y40500D01*
X284000Y33222D02*
Y39000D01*
X285500Y40500D02*
Y50000D01*
X234000Y22000D02*
Y22000D01*
X227000Y29000D02*
X234000Y22000D01*
X123356Y114578D02*
X131687Y106247D01*
X114422Y114578D02*
X123356D01*
X112000Y117000D02*
X114422Y114578D01*
X107000Y117000D02*
X112000D01*
X200614Y52820D02*
Y61926D01*
Y52820D02*
X200687Y52747D01*
X200540Y62000D02*
X200614Y61926D01*
X208687Y38747D02*
Y66686D01*
X200687Y30747D02*
X208687Y38747D01*
Y66686D02*
X208914Y66913D01*
X159000Y53000D02*
X160000Y52000D01*
Y38000D02*
Y52000D01*
X257946Y99326D02*
X259772Y97500D01*
X254967Y99326D02*
X257946D01*
X259772Y97500D02*
X268000D01*
X255914Y108429D02*
X261843Y102500D01*
X252322Y108429D02*
X255914D01*
X251875Y108876D02*
X252322Y108429D01*
X254214Y100078D02*
X254967Y99326D01*
X261843Y102500D02*
X268000D01*
X85000Y361000D02*
X104000D01*
X77000Y369000D02*
X85000Y361000D01*
X104000D02*
X108000Y365000D01*
X195000Y315000D02*
X210510D01*
X187000Y307000D02*
X195000Y315000D01*
X429460Y252460D02*
X436000Y259000D01*
X322360Y252460D02*
X429460D01*
X308280Y266540D02*
X322360Y252460D01*
X288000Y143050D02*
X300500Y130550D01*
X288000Y143050D02*
Y259778D01*
X294762Y266540D01*
X308280D01*
X271249Y259027D02*
X284222Y272000D01*
X271249Y244000D02*
Y259027D01*
X325500Y120000D02*
Y126500D01*
X328572Y129572D01*
X336358D01*
X336769Y129982D01*
X312918Y25000D02*
X313000D01*
X311136Y26781D02*
X312918Y25000D01*
X310219Y26781D02*
X311136D01*
X306925Y30075D02*
X310219Y26781D01*
X306925Y30075D02*
Y37731D01*
X310925Y38157D02*
X313465Y35617D01*
X310925Y38157D02*
Y39388D01*
X313465Y34534D02*
Y35617D01*
X310500Y39814D02*
Y50000D01*
Y39814D02*
X310925Y39388D01*
X305500Y39157D02*
X306925Y37731D01*
X305500Y39157D02*
Y50000D01*
X14235Y177235D02*
X15000Y178000D01*
X12848Y177235D02*
X14235D01*
X11000Y175387D02*
X12848Y177235D01*
X13918Y178000D02*
X15000D01*
X12175Y179743D02*
X13918Y178000D01*
X11000Y170000D02*
Y175387D01*
X9257Y179743D02*
X12175D01*
X6000Y183000D02*
X9257Y179743D01*
X320500Y120000D02*
Y129198D01*
X327342Y136040D01*
X250765Y122765D02*
X252000Y124000D01*
X246000Y122000D02*
X246765Y122765D01*
X250765D01*
X246000Y130500D02*
X252000Y124500D01*
X246000Y130500D02*
Y131000D01*
X252000Y124000D02*
Y124500D01*
X315500Y129960D02*
X319016Y133476D01*
Y138968D01*
X319524Y139476D01*
X315500Y120000D02*
Y129960D01*
X310500Y139500D02*
X311000Y140000D01*
X310500Y120000D02*
Y139500D01*
X305500Y120000D02*
Y135418D01*
X302000Y138918D02*
Y140000D01*
Y138918D02*
X305500Y135418D01*
X291350Y130651D02*
X295500Y126500D01*
X291150Y130651D02*
X291350D01*
X300500Y120000D02*
Y130550D01*
X151000Y30415D02*
Y30415D01*
X152000Y31415D02*
Y34000D01*
X151000Y30415D02*
X152000Y31415D01*
X145129Y24543D02*
X151000Y30415D01*
X156000Y38000D02*
X160000D01*
Y34000D02*
X167000D01*
X174000Y27000D01*
X156000Y34000D02*
X160000D01*
X108000Y365000D02*
Y376000D01*
X110000Y378000D01*
X120500D01*
Y368000D02*
X139000D01*
X147000Y376000D02*
X233000D01*
X139000Y368000D02*
X147000Y376000D01*
X233000D02*
X241000Y368000D01*
X114000Y133000D02*
X126318Y145318D01*
X131318D01*
X133000Y147000D01*
X114000Y133000D02*
X114000D01*
X106000Y141000D02*
X114000Y133000D01*
X80000Y141000D02*
X106000D01*
X72000Y149000D02*
X80000Y141000D01*
X104111Y119889D02*
Y129889D01*
X101000Y133000D02*
X104111Y129889D01*
X94000Y133000D02*
X101000D01*
X104111Y119889D02*
X107000Y117000D01*
X106188D02*
X107000D01*
X86000Y112000D02*
Y119000D01*
X72000Y133000D02*
X86000Y119000D01*
Y112000D02*
X101188D01*
X106188Y117000D01*
X112000Y85000D02*
Y99000D01*
X86000Y92000D02*
X86037Y91963D01*
X94000D01*
X100963Y85000D01*
X112000D01*
X86000Y52000D02*
Y62000D01*
X95635D02*
X102635Y69000D01*
X112000D01*
X86000Y62000D02*
X95635D01*
X86000D02*
Y72000D01*
X435000Y175000D02*
X435000Y175000D01*
X435000Y157000D02*
Y175000D01*
Y225000D02*
Y243000D01*
X6000Y183000D02*
Y220000D01*
X24793Y203500D02*
X30150D01*
X17074Y195781D02*
X24793Y203500D01*
X17074Y193886D02*
Y195781D01*
X15188Y192000D02*
X17074Y193886D01*
X6000Y220000D02*
X14000Y228000D01*
X404000Y5000D02*
X414000Y15000D01*
X324222Y5000D02*
X404000D01*
X312222Y17000D02*
X324222Y5000D01*
X293000Y17000D02*
X312222D01*
X300500Y38500D02*
X302000Y37000D01*
Y25000D02*
Y37000D01*
X300500Y38500D02*
Y50000D01*
X252000Y124000D02*
X258500Y117500D01*
X171235Y338765D02*
Y342515D01*
Y338765D02*
X172000Y338000D01*
X170500Y343250D02*
X171235Y342515D01*
X170500Y343250D02*
Y345250D01*
X162765Y342515D02*
X163500Y343250D01*
X162000Y338000D02*
X162765Y338765D01*
Y342515D01*
X163500Y343250D02*
Y345250D01*
X382540Y104774D02*
X383352D01*
X378313Y109000D02*
X382540Y104774D01*
X361000Y109000D02*
X378313D01*
X384250Y83250D02*
Y103875D01*
X383352Y104774D02*
X384250Y103875D01*
X347000Y67000D02*
X353000Y61000D01*
Y44000D02*
X359000Y38000D01*
X353000Y44000D02*
Y61000D01*
X342146Y67000D02*
X347000D01*
X359000Y46000D02*
Y61000D01*
X348000Y72000D02*
X359000Y61000D01*
X338500Y72000D02*
X348000D01*
X295500Y120000D02*
Y126500D01*
X318477Y41449D02*
Y42531D01*
X320000Y44054D01*
Y49500D01*
X320500Y50000D01*
X258389Y7611D02*
X260000Y6000D01*
X290000D01*
X258389Y7611D02*
Y11611D01*
X256000Y14000D02*
X258389Y11611D01*
X290000Y6000D02*
X293000Y9000D01*
Y17000D01*
X351000Y13000D02*
Y13000D01*
X341243Y22757D02*
Y26757D01*
Y22757D02*
X351000Y13000D01*
X341000Y27000D02*
X341243Y26757D01*
X359000Y24000D02*
X368000Y15000D01*
X359000Y24000D02*
Y38000D01*
X336000Y50000D02*
X350172Y35828D01*
Y29829D02*
Y35828D01*
Y29829D02*
X351000Y29000D01*
X330500Y50000D02*
X336000D01*
X325500Y41500D02*
Y50000D01*
Y41500D02*
X329000Y38000D01*
Y29000D02*
Y38000D01*
X37000Y178222D02*
X40222Y175000D01*
X37000Y178222D02*
Y187778D01*
X40000Y190778D01*
Y201000D01*
X59000Y175000D02*
X67000Y167000D01*
X40222Y175000D02*
X59000D01*
X359000Y46000D02*
X368000Y37000D01*
X338000Y72500D02*
X338500Y72000D01*
X342146Y67000D02*
X342146Y67000D01*
X338500Y67000D02*
X342146D01*
X338000Y67500D02*
X338500Y67000D01*
X345828Y77500D02*
X348328Y80000D01*
X349000D01*
X338000Y77500D02*
X345828D01*
X346000Y57000D02*
Y61000D01*
Y51000D02*
Y57000D01*
X345500Y57500D02*
X346000Y57000D01*
X338000Y57500D02*
X345500D01*
X344500Y62500D02*
X346000Y61000D01*
X338000Y62500D02*
X344500D01*
X40000Y201000D02*
X42500Y203500D01*
X49850D01*
X14500Y208500D02*
X30150D01*
X14000Y208000D02*
X14500Y208500D01*
X211000Y387000D02*
X230000D01*
X26000Y187000D02*
Y187172D01*
X23000Y190172D02*
X26000Y187172D01*
X23000Y190172D02*
Y196050D01*
X25450Y198500D02*
X30150D01*
X23000Y196050D02*
X25450Y198500D01*
X106000Y227000D02*
X129000D01*
X105000Y209500D02*
X106000Y210500D01*
Y227000D01*
X105000Y203000D02*
Y209500D01*
X56000Y208500D02*
X68000Y220500D01*
Y227000D01*
X49850Y208500D02*
X56000D01*
X129000Y227000D02*
Y247000D01*
X83000Y203000D02*
X105000D01*
X230000Y387000D02*
X241000D01*
X241000Y387000D01*
X55050Y198500D02*
X59550Y203000D01*
X67000D01*
X49850Y198500D02*
X55050D01*
X274000Y24000D02*
X274778D01*
X137000Y32000D02*
X143000Y38000D01*
X152000D01*
X68000Y227000D02*
X90000D01*
D13*
X161000Y137000D02*
D03*
Y157000D02*
D03*
X133000D02*
D03*
Y147000D02*
D03*
Y137000D02*
D03*
D15*
X394000Y196000D02*
D03*
X378000Y196000D02*
D03*
X216687Y96747D02*
D03*
X200687D02*
D03*
X216687Y74747D02*
D03*
X200687D02*
D03*
X369000Y15000D02*
D03*
X385000D02*
D03*
Y37000D02*
D03*
X369000D02*
D03*
X398000D02*
D03*
X414000D02*
D03*
X216687Y52747D02*
D03*
X200687D02*
D03*
X216687Y30747D02*
D03*
X200687D02*
D03*
X27000Y168000D02*
D03*
X11000D02*
D03*
X280000Y255000D02*
D03*
X296000D02*
D03*
X197000Y180000D02*
D03*
X181000Y180000D02*
D03*
X378000Y229000D02*
D03*
X394000Y229000D02*
D03*
X272000Y14000D02*
D03*
X256000D02*
D03*
X252000Y124000D02*
D03*
X236000D02*
D03*
X272000Y34000D02*
D03*
X256000D02*
D03*
X31000Y227000D02*
D03*
X15000D02*
D03*
X383352Y104774D02*
D03*
X399352D02*
D03*
X357000Y368000D02*
D03*
X341000D02*
D03*
Y388000D02*
D03*
X357000D02*
D03*
X121000Y203000D02*
D03*
X105000D02*
D03*
X145000Y227000D02*
D03*
X129000D02*
D03*
X145000Y247000D02*
D03*
X129000D02*
D03*
X140000Y173000D02*
D03*
X156000D02*
D03*
X67000Y203000D02*
D03*
X83000D02*
D03*
X90000Y227000D02*
D03*
X106000D02*
D03*
X68000D02*
D03*
X52000D02*
D03*
X179000Y17000D02*
D03*
X163000D02*
D03*
X159000Y73000D02*
D03*
X143000D02*
D03*
X159000Y53000D02*
D03*
X143000D02*
D03*
X155000Y368000D02*
D03*
X139000Y368000D02*
D03*
Y388000D02*
D03*
X155000Y388000D02*
D03*
X86000Y52000D02*
D03*
X70000D02*
D03*
X86000Y72000D02*
D03*
X70000Y72000D02*
D03*
X86000Y92000D02*
D03*
X70000Y92000D02*
D03*
X86000Y112000D02*
D03*
X70000D02*
D03*
X159000Y93000D02*
D03*
X143000D02*
D03*
X180000Y119000D02*
D03*
X196000Y119000D02*
D03*
X180000Y140000D02*
D03*
X196000Y140000D02*
D03*
X197000Y159000D02*
D03*
X213000Y159000D02*
D03*
D16*
X131687Y120247D02*
D03*
Y106247D02*
D03*
D18*
X156000Y34000D02*
D03*
X160000Y38000D02*
D03*
X156000D02*
D03*
X152000Y34000D02*
D03*
Y38000D02*
D03*
D20*
X409000Y340000D02*
D03*
X409000Y324000D02*
D03*
X361000Y93000D02*
D03*
Y109000D02*
D03*
X329000Y29000D02*
D03*
Y13000D02*
D03*
X351000Y29000D02*
D03*
Y13000D02*
D03*
X234000Y38000D02*
D03*
Y22000D02*
D03*
X380000Y334000D02*
D03*
Y350000D02*
D03*
X45000Y183000D02*
D03*
Y167000D02*
D03*
X114000Y149000D02*
D03*
Y133000D02*
D03*
X94000D02*
D03*
Y149000D02*
D03*
X415000Y191000D02*
D03*
X415000Y175000D02*
D03*
X415000Y209000D02*
D03*
X415000Y225000D02*
D03*
X435000Y191000D02*
D03*
X435000Y175000D02*
D03*
X143000Y190000D02*
D03*
Y206000D02*
D03*
X112000Y85000D02*
D03*
X112000Y69000D02*
D03*
X293000Y33000D02*
D03*
Y17000D02*
D03*
X368000Y59000D02*
D03*
Y75000D02*
D03*
X379000Y384000D02*
D03*
Y368000D02*
D03*
X320000Y384000D02*
D03*
Y368000D02*
D03*
X299000Y384000D02*
D03*
Y368000D02*
D03*
X409000Y359000D02*
D03*
Y375000D02*
D03*
X221000Y384000D02*
D03*
Y368000D02*
D03*
X241000Y384000D02*
D03*
Y368000D02*
D03*
X67000Y183000D02*
D03*
Y167000D02*
D03*
X87000Y183000D02*
D03*
Y167000D02*
D03*
X14000Y206000D02*
D03*
Y190000D02*
D03*
X179000Y40000D02*
D03*
X179000Y56000D02*
D03*
X137000Y16000D02*
D03*
Y32000D02*
D03*
X77000Y385000D02*
D03*
X77000Y369000D02*
D03*
X72000Y133000D02*
D03*
Y149000D02*
D03*
X435000Y225000D02*
D03*
Y209000D02*
D03*
X214000Y217000D02*
D03*
Y233000D02*
D03*
Y195000D02*
D03*
Y179000D02*
D03*
X360000Y211000D02*
D03*
Y227000D02*
D03*
D28*
X122000Y178000D02*
D03*
X104000D02*
D03*
X143000Y115000D02*
D03*
X161000D02*
D03*
D63*
X399846Y353040D02*
X400228Y352657D01*
Y348772D02*
X409000Y340000D01*
X400228Y348772D02*
Y352657D01*
X169000Y62000D02*
X169541D01*
X173778Y66236D01*
X192177D01*
X200687Y74747D01*
X218941Y115000D02*
X227460D01*
X200687Y96747D02*
X218941Y115000D01*
X210127Y314617D02*
X210510Y315000D01*
X296000Y255000D02*
X306000Y245000D01*
X362000D01*
X378000Y229000D01*
X280000Y215000D02*
Y255000D01*
X273000Y208000D02*
X280000Y215000D01*
X238000Y208000D02*
X273000D01*
X404000Y229000D02*
X404000Y229000D01*
X394000Y229000D02*
X404000D01*
X409000Y375000D02*
X409271D01*
X419697Y368982D02*
X420080Y368599D01*
X415289Y368982D02*
X419697D01*
X409271Y375000D02*
X415289Y368982D01*
X93500Y183000D02*
X98500Y178000D01*
X104000D01*
X87000Y183000D02*
X93500D01*
X56000Y183000D02*
X67000D01*
X45000D02*
X56000D01*
X67000Y183000D02*
X87000D01*
X67000Y183000D02*
X67000Y183000D01*
D65*
X405303Y184697D02*
X415000Y175000D01*
X401303Y184697D02*
X405303D01*
X399979Y216460D02*
X406460D01*
X415000Y225000D01*
X265000Y27000D02*
X280500Y42500D01*
X349460Y360085D02*
Y360273D01*
X356950Y367763D01*
Y368000D01*
X133000Y350000D02*
X154000D01*
X159000Y355000D02*
X167000D01*
X154000Y350000D02*
X159000Y355000D01*
X120500Y388000D02*
X139000D01*
X95500D02*
X120500D01*
X395000Y130000D02*
Y146000D01*
X114000Y149000D02*
X114161D01*
X122161Y157000D01*
X133000D01*
X94000Y149000D02*
X114000D01*
X299000Y384000D02*
X302000Y387000D01*
Y388000D01*
X320000Y368000D02*
X341000D01*
X338000Y92500D02*
X360500D01*
X361000Y93000D01*
X394797Y70500D02*
X397047Y72750D01*
X394500Y70500D02*
X394797D01*
X397047Y72750D02*
X397750D01*
X383000Y59000D02*
X394500Y70500D01*
X368000Y59000D02*
X383000D01*
X358000Y69000D02*
Y82000D01*
Y69000D02*
X368000Y59000D01*
X338000Y87500D02*
X352500D01*
X358000Y82000D01*
X357000Y368000D02*
X379000D01*
X56000Y183000D02*
Y189650D01*
X52150Y193500D02*
X56000Y189650D01*
X49850Y193500D02*
X52150D01*
X280500Y42500D02*
Y50000D01*
X341000Y368000D02*
Y388000D01*
X357000Y368000D02*
Y388000D01*
D67*
X236500Y57500D02*
X268000D01*
X216687Y37687D02*
X236500Y57500D01*
X216687Y30747D02*
Y37687D01*
X226253Y96747D02*
X230500Y92500D01*
X216687Y96747D02*
X226253D01*
X230500Y92500D02*
X268000D01*
X229441Y87500D02*
X268000D01*
X216687Y74747D02*
X229441Y87500D01*
X226441Y62500D02*
X268000D01*
X216687Y52747D02*
X226441Y62500D01*
X268000D02*
X268000Y62500D01*
X378454Y356966D02*
X379124Y356297D01*
Y352936D02*
X381030Y351030D01*
X379124Y352936D02*
Y356297D01*
X381030Y351030D02*
X387250Y357250D01*
Y375750D01*
X379000Y384000D02*
Y384000D01*
Y384000D02*
X387250Y375750D01*
X246000Y50000D02*
X275500D01*
X234000Y38000D02*
X246000Y50000D01*
D68*
X342000Y308929D02*
Y355000D01*
X219000Y306000D02*
X339071D01*
X339000Y358000D02*
X342000Y355000D01*
X339071Y306000D02*
X342000Y308929D01*
X231000Y358000D02*
X339000D01*
X221000Y368000D02*
X231000Y358000D01*
X201000Y288000D02*
X219000Y306000D01*
X306000Y375000D02*
X311000D01*
X299000Y368000D02*
X306000Y375000D01*
D69*
X112000Y99000D02*
D03*
Y117000D02*
D03*
X191000Y199000D02*
D03*
Y217000D02*
D03*
X394000Y157000D02*
D03*
Y243000D02*
D03*
X435000Y157000D02*
D03*
Y243000D02*
D03*
D70*
X430000Y95000D02*
D03*
Y60000D02*
D03*
X395000Y130000D02*
D03*
X430000D02*
D03*
D71*
X15000Y15000D02*
D03*
Y385000D02*
D03*
X435000Y15000D02*
D03*
Y385000D02*
D03*
D72*
X60000Y390000D02*
D03*
X40000Y370000D02*
D03*
Y390000D02*
D03*
X60000Y370000D02*
D03*
X124000Y87000D02*
D03*
X410540Y385000D02*
D03*
X404000Y393000D02*
D03*
X401303Y184697D02*
D03*
X162960Y173000D02*
D03*
X162000Y209000D02*
D03*
Y223000D02*
D03*
Y234000D02*
D03*
X269000Y118586D02*
D03*
X267985Y127065D02*
D03*
X255000Y159000D02*
D03*
Y167500D02*
D03*
Y182500D02*
D03*
Y192500D02*
D03*
X252000Y228000D02*
D03*
X265000Y27000D02*
D03*
X340000Y115000D02*
D03*
X169000Y62000D02*
D03*
X62000Y156000D02*
D03*
X227000Y29000D02*
D03*
X211000Y86000D02*
D03*
X399979Y216460D02*
D03*
X441000Y348000D02*
D03*
X200540Y62000D02*
D03*
X208914Y66913D02*
D03*
X378454Y356966D02*
D03*
X251875Y108876D02*
D03*
X254214Y100078D02*
D03*
X349460Y360085D02*
D03*
X351000Y329000D02*
D03*
X168000Y387000D02*
D03*
X176000Y368000D02*
D03*
X133000Y350000D02*
D03*
X69000Y385000D02*
D03*
X96000Y373000D02*
D03*
X179000Y56000D02*
D03*
X210510Y315000D02*
D03*
X198000Y304000D02*
D03*
X201000Y288000D02*
D03*
X400460Y361558D02*
D03*
X336769Y129982D02*
D03*
X334829Y120836D02*
D03*
X313000Y25000D02*
D03*
X313465Y34534D02*
D03*
X227460Y115000D02*
D03*
X78944Y224104D02*
D03*
X15000Y178000D02*
D03*
X153000Y131000D02*
D03*
Y142000D02*
D03*
Y152000D02*
D03*
X327342Y136040D02*
D03*
X271249Y244000D02*
D03*
X269877Y215540D02*
D03*
X260000D02*
D03*
X246000Y122000D02*
D03*
Y131000D02*
D03*
X319524Y139476D02*
D03*
X311000Y140000D02*
D03*
X302000D02*
D03*
X291150Y130651D02*
D03*
X377000Y219000D02*
D03*
X354000Y153812D02*
D03*
X305571Y260000D02*
D03*
X139000Y388000D02*
D03*
X193000Y369000D02*
D03*
X241000Y368000D02*
D03*
X86000Y62000D02*
D03*
X334000Y227000D02*
D03*
X361000Y234000D02*
D03*
X404000Y229000D02*
D03*
X420080Y368599D02*
D03*
X30000Y150000D02*
D03*
X15000D02*
D03*
X45000D02*
D03*
X15000Y50000D02*
D03*
X45000D02*
D03*
X30000D02*
D03*
Y350000D02*
D03*
X15000D02*
D03*
X45000D02*
D03*
X15000Y250000D02*
D03*
X45000D02*
D03*
X30000D02*
D03*
X42000Y221000D02*
D03*
X221000Y368000D02*
D03*
X348000Y100000D02*
D03*
X302000Y388000D02*
D03*
X441193Y285500D02*
D03*
X441000Y306000D02*
D03*
Y329000D02*
D03*
X414000Y259000D02*
D03*
X436000D02*
D03*
X392000Y260000D02*
D03*
X370000D02*
D03*
X348000D02*
D03*
X326000D02*
D03*
X150000Y270000D02*
D03*
X172000Y338000D02*
D03*
X162000D02*
D03*
X383202Y328118D02*
D03*
X367540Y384000D02*
D03*
X366133Y394000D02*
D03*
X318477Y41449D02*
D03*
X330000Y368000D02*
D03*
X224000Y124000D02*
D03*
X384000Y26000D02*
D03*
X341000Y27000D02*
D03*
X388000Y394000D02*
D03*
X378000D02*
D03*
X63000Y35000D02*
D03*
X121000Y203000D02*
D03*
X420000Y80000D02*
D03*
X410000Y110000D02*
D03*
Y50000D02*
D03*
Y30000D02*
D03*
X297000Y73000D02*
D03*
X95230Y190339D02*
D03*
X6122Y238340D02*
D03*
X327133Y394000D02*
D03*
X179000Y38000D02*
D03*
X283000Y21000D02*
D03*
X245000Y24000D02*
D03*
X329000Y13000D02*
D03*
X349000Y80000D02*
D03*
X346000Y51000D02*
D03*
X23000Y88000D02*
D03*
X22000Y120000D02*
D03*
X110000Y40000D02*
D03*
X40000Y201000D02*
D03*
X54000Y86000D02*
D03*
X145129Y24543D02*
D03*
X224000Y149000D02*
D03*
X372000Y133000D02*
D03*
X311000Y375000D02*
D03*
X79000Y233000D02*
D03*
X267000Y373000D02*
D03*
X399846Y353040D02*
D03*
X26000Y187000D02*
D03*
X317000Y88000D02*
D03*
Y98000D02*
D03*
X302000Y25000D02*
D03*
X274000Y24000D02*
D03*
X88000Y243000D02*
D03*
X96000D02*
D03*
X174000Y27000D02*
D03*
X184000D02*
D03*
X256000Y24000D02*
D03*
X211000Y387000D02*
D03*
X193000D02*
D03*
X230000D02*
D03*
D77*
X49850Y208500D02*
D03*
Y203500D02*
D03*
Y198500D02*
D03*
Y193500D02*
D03*
X30150D02*
D03*
Y198500D02*
D03*
Y203500D02*
D03*
Y208500D02*
D03*
D78*
X40000Y201000D02*
D03*
D79*
X160000Y34000D02*
D03*
D80*
X303000Y85000D02*
D03*
D81*
X330500Y120000D02*
D03*
X325500D02*
D03*
X320500D02*
D03*
X315500D02*
D03*
X310500D02*
D03*
X305500D02*
D03*
X300500D02*
D03*
X295500D02*
D03*
X290500D02*
D03*
X285500D02*
D03*
X280500D02*
D03*
X275500D02*
D03*
Y50000D02*
D03*
X280500D02*
D03*
X285500D02*
D03*
X290500D02*
D03*
X295500D02*
D03*
X300500D02*
D03*
X305500D02*
D03*
X310500D02*
D03*
X315500D02*
D03*
X320500D02*
D03*
X325500D02*
D03*
X330500D02*
D03*
D82*
X268000Y112500D02*
D03*
Y107500D02*
D03*
Y102500D02*
D03*
Y97500D02*
D03*
Y92500D02*
D03*
Y87500D02*
D03*
Y82500D02*
D03*
Y77500D02*
D03*
Y72500D02*
D03*
Y67500D02*
D03*
Y62500D02*
D03*
Y57500D02*
D03*
X338000D02*
D03*
Y62500D02*
D03*
Y67500D02*
D03*
Y72500D02*
D03*
Y77500D02*
D03*
Y82500D02*
D03*
Y87500D02*
D03*
Y92500D02*
D03*
Y97500D02*
D03*
Y102500D02*
D03*
Y107500D02*
D03*
Y112500D02*
D03*
D83*
Y233400D02*
D03*
Y220700D02*
D03*
Y208000D02*
D03*
Y195300D02*
D03*
Y182600D02*
D03*
Y169900D02*
D03*
Y157200D02*
D03*
Y144500D02*
D03*
X238000D02*
D03*
Y157200D02*
D03*
Y169900D02*
D03*
Y182600D02*
D03*
Y195300D02*
D03*
Y208000D02*
D03*
Y220700D02*
D03*
Y233400D02*
D03*
D84*
X167000Y355000D02*
D03*
X163500Y345250D02*
D03*
X170500D02*
D03*
D85*
X30000Y147000D02*
D03*
Y54000D02*
D03*
Y347000D02*
D03*
Y254000D02*
D03*
D86*
X384250Y83250D02*
D03*
X397750D02*
D03*
Y72750D02*
D03*
X384250D02*
D03*
D87*
X95500Y368000D02*
D03*
Y378000D02*
D03*
Y388000D02*
D03*
X120500D02*
D03*
Y378000D02*
D03*
Y368000D02*
D03*
D88*
X32000Y226000D02*
Y227403D01*
Y226000D02*
X37000Y221000D01*
X42000D01*
X299000Y384000D02*
X320000D01*
M02*
